<mxfile host="app.diagrams.net" modified="2022-12-01T15:58:08.767Z" agent="5.0 (Windows NT 10.0; Win64; x64) AppleWebKit/537.36 (KHTML, like Gecko) Chrome/107.0.0.0 Safari/537.36" version="20.6.0" etag="VcbLOQMXJUMl-TijHJBM" type="github">
  <diagram id="x23O6uEv00NPNAmL5EBE" name="第 1 页">
    <mxGraphModel dx="2623" dy="724" grid="1" gridSize="10" guides="1" tooltips="1" connect="1" arrows="1" fold="1" page="1" pageScale="1" pageWidth="827" pageHeight="1169" math="0" shadow="0">
      <root>
        <mxCell id="0" />
        <mxCell id="1" parent="0" />
        <mxCell id="yo_I0r40DUydshJ_veD_-4" value="scheduleCallback(priority, callback, opt)" style="rounded=1;whiteSpace=wrap;html=1;absoluteArcSize=1;arcSize=14;strokeWidth=2;fontSize=14;" vertex="1" parent="1">
          <mxGeometry x="30" y="280" width="260" height="40" as="geometry" />
        </mxCell>
        <mxCell id="yo_I0r40DUydshJ_veD_-5" value="currentTime = getCurrentTime()" style="rounded=1;whiteSpace=wrap;html=1;absoluteArcSize=1;arcSize=14;strokeWidth=2;fontSize=14;" vertex="1" parent="1">
          <mxGeometry x="340" y="280" width="260" height="40" as="geometry" />
        </mxCell>
        <mxCell id="yo_I0r40DUydshJ_veD_-6" value="startTime = delay ? currentTime + delay : currentTime" style="rounded=1;whiteSpace=wrap;html=1;absoluteArcSize=1;arcSize=14;strokeWidth=2;fontSize=14;" vertex="1" parent="1">
          <mxGeometry x="340" y="350" width="260" height="40" as="geometry" />
        </mxCell>
        <mxCell id="yo_I0r40DUydshJ_veD_-11" style="edgeStyle=orthogonalEdgeStyle;rounded=0;orthogonalLoop=1;jettySize=auto;html=1;exitX=1;exitY=0.5;exitDx=0;exitDy=0;entryX=-0.001;entryY=0.42;entryDx=0;entryDy=0;entryPerimeter=0;fontSize=14;" edge="1" parent="1" source="yo_I0r40DUydshJ_veD_-7" target="yo_I0r40DUydshJ_veD_-9">
          <mxGeometry relative="1" as="geometry" />
        </mxCell>
        <mxCell id="yo_I0r40DUydshJ_veD_-7" value="timeout = getTimeout(priority)" style="rounded=1;whiteSpace=wrap;html=1;absoluteArcSize=1;arcSize=14;strokeWidth=2;fontSize=14;" vertex="1" parent="1">
          <mxGeometry x="340" y="420" width="260" height="40" as="geometry" />
        </mxCell>
        <mxCell id="yo_I0r40DUydshJ_veD_-10" value="" style="group;fontSize=14;" vertex="1" connectable="0" parent="1">
          <mxGeometry x="690" y="182" width="469.3800000000001" height="384.5" as="geometry" />
        </mxCell>
        <mxCell id="yo_I0r40DUydshJ_veD_-8" value="" style="shape=image;verticalLabelPosition=bottom;labelBackgroundColor=default;verticalAlign=top;aspect=fixed;imageAspect=0;image=data:image/png,iVBORw0KGgoAAAANSUhEUgAAATwAAACXCAYAAACIqeefAAAAAXNSR0IArs4c6QAAAARnQU1BAACxjwv8YQUAAAAJcEhZcwAADsMAAA7DAcdvqGQAACKfSURBVHhe7Z1/bBXXlcdP94+KYpsammADpg7eBxQLQl6aJdmA4sRJRZFIVCFZoKhEgpUgVUOkbMniJEoVtUpiNnRXSlgl5A+QShWBkFCUsCJRgxOiZDehKQ4xIgKsxy8Tfhbc2Kao/+zec++dmTv33pk37/nNezOe85Ge7Dcez5uZ9+b7zrn3zPl+50fz7/o/IIrwj7B41d0w6eR+2P/n63IZQRBp4x/kTyKQydD+8N3QMnoCPiWxI4hUQxFeICKqa8Ffmdjtf/cL+JYvJwgirZDgEQSRGSilJQgiM5DgEQSRGUjwCILIDCR4BEFkBhI8giAyAwkeQRCZgQQv0dTDlp6lcGDrUti+Qi6qBova4B32mge23gEb5SKCGA+kTPB+Di8s3w3/NXuJfE7UDCmKVRVighgjKSs8RsF7GG49/hr88uQnclkZ4MX62GyogxHo+/2nsPGQXM4jqsWQH/oSHuy5JJdFwN2exmCJ20kT8piv9r4Pa/fKZSlkSUc7bFg4QT5jnC3AyreH5BNivJHplHZ0BCDf2SSfjZ0z7OJ/8An5+P1JGG25g9LCBLP6Z3cysQPo23UYVr7KHru+gRs/bIPdP2uUaxDjDUuEJ6KoH8pnAKfg/X3dsFs+c1j5492wdJp8wvibFnXdM3s7rJtxAt78aBB+qmxPX0+gv+Yo9H+0Fv6TCRLCtzXXiJ9c7NsMQUYn0H8Sri6YBMee+BK28D/YI7yu9Yvh8QX18hlDj9yCop0VTPCYoI72fwqPbMODUbbfW+eLCr11ELme+5J6JOpnY/dSWMZv+hX4t8Xg+1HHt3GxU133Eux3j52hR6ojJ+GN7gLskU8R/bV0UPTxHDjnzHnuIY8NzG1XlanNsGPVdLjcexg2HZXLkPlM8DonMBE8Bj2X5TJODrqeWQ+3N5yBD57dCgflUiJd+CO85h7YjsJz4V1Yu2+lfByFeT/+uVwBEeNoSxv64E1nnY/6AOZugO2+9Rj1eVi3vBP++pFc74tT8D223gvN8u8cKXa+1+yF79/VDffINT47uVYufxfOsucocN66K8eQ3l6GY4NNcN96Rcx84MW5lF24o0wYnOjtSziDkVtPG3TJtQIZ/JZJtwX8/8emwYnfy232XoK6BYuV8bARJize34Jpgu1bmQA1MvFw9o9FlsC2daBbj1zrIf8YWxeY2PJ1P4W+kSZYph7HoQI8Irezf1Au09jS470OHpsvqmUPR9z2bBuAM+xn6xxtPxZNhTnsdI+eulw7sWMsmTcFJsIQHFXFDiZA9z9hdDcB5s5T0lwktwjaGvCXVpjbwZcQKUQRvCXw1I9mAaDw/PkPchnyB3hBeX7P7E4WibGo76Me+Ewug5Ee2HmcffyndcJTmnac/cKL1ODiUS5YtzYokw71LXAr+3H2vPaa6vZjZEsvE4hZU+3itSLHoiyMrpQoiEVFa1GE6mfDsmID9i2TeLR09YoSbXEwslIitr0XuDjccmuQ8NrpWp9jlx/blhopMdHa2c9eryUHWxbJZRKM/LzIdAQ+P8XWq5/EthEHl9iXCfvRMs2X0nflp7Fzcgk+ViPQKDzwK7j93/8j8DHjAbleRGZNZoI2fIN9kh0aYfOT7TC3UIC+YYCJ+HeVgUNQYMuZxMNxCu9Siyd49Usgx643v/DoLIF/nsEu4ZEhfoGqfHbhBPyNfZS/77tmT8HXF+WvQYwMwhX244d37dYivyrBBOLjIbt4beTRyShc1FPJKAKF6SGOD7L01xjUH/lWO39MRFl05EtDi1IPd89ir29si0VXfRfYXtfDFC311IV3zzYmgGpKW2G2nEBxbYJ299zKfR68UPprfvg7+Orf/jXwcf5DuV45YBr75HS4vuswrDl4Uy7UGYA9Lz8Nz1M6m2oUwWuE77HL5K9RrrnhwcDoyxe9RYJFc/teAwxKUPS2s3R5+/LtRqQYJ3hhtjKBskZ5FkFxqJvsH1ds7RQ1c/whx/Rin6UdGg1MDUuNGCvO3gGWNitpLU9nWcQcmqZXl1kd7bC7E2Dfq/qYHTEe8QSPRW1mhFY6V4bLGU/7BP7TGef7qI/vx4L7qyh6eGHCNLhbSwGLMXrdP0IXNJ5VK8xUutrItFmmtTydHbkAnwdMvoRS4ZT21HUWyTVMh+Vt1+C1VwuwUy7H8bvJDQA38O/EuEMRPJlaztAmHnx8Av97Hsfq5sNKucThnmlzWIQYIYUtxkgP/FKKnim+p3kE+r1Jt8nnlQIvTIA5eX/ExlOyeosQrpgGrex/TmD4UjP8YqLijJMdi1NwD43CVfajWBQpJi8wrRXpbNmTFRVOaT/5+hrcYD9P/+ki+1QrzJ8Ct8FNOP61KXgdv3gFfvvSK7COJi1SizJp8Qd4j088PKzdyfBzeEGZff3sZC+chVmwVJ2Rre+G1XPr4G/H9xnlK0Vp7jHunBDiaUuvP4FvcODYMjkyVvDCvLogB3Pkcw5Pyeohv0JNd5tgOx+bGwgsE6kWjpgsU2dkWWq+egETlv6B2MbmBKNwjb0/deychdcZismL1k4ssyljsiIuLl+E3rMAt3Wy8yUX8VKVzka4caRgSW8fhLkzxW8z730U2sSvRMow6/CwNOWuWfIJYqvD0+vmcDZ2JbygRHeidu6y9r/i//Q7Jcw6O3vtn2AJPHX/BlDL4sqvw/PXq7k1Zr46O70mTsx2+iYY5PaMOjyDiDVocnv+eFNi1MZhacodvplWo/ZN1gOaNXF+jHpDBeOYORFeG5Gvn8Q7T7D4eLnyQb5x5FjgxEVb169hTR5rU6gWL62QpwURPxEFN/HkHoVNa/NQf+49eP71A3IhkSaUlJYg4oGX97DIdH+axY7R8RMmdjAMX/2RxC6tUIRHxIpIkyH01rik46ayw32w4+W3oCCXE+mDBI+IBe+e2/D7gAmimpDgEQSRGWgMjyCIzECCRxBEZiDBIwgiM5DgEQSRGUjwCILIDCR4BEFkBhK81CDazZut2xH5t4zYJmKNHx7rO4Gt+eMgW+d4vJIywRN+GuRLGyfCJ6O6YjJ+4GIcxe+EqAkpKzy2d1sph2D3raTeGSA7rZTqmVsyogPKLdbuKKUg99fQTfTziK+tfK3hnys0VaqlI1sl4O5taGg0BPt8DVLTTWZTWtd9C13I2HNucMOf021QFQVbQrldoKVTGqWFCQbNjO6E3blrsA8dt8YZlghP73U3Dn1pfQRHNPzbGr6EN67nRJ84vHgVP1mn3VHU9Vyc/nAOAX3irFGob109igqJTo0ee/51w3rhIWY/PL0Xnh65BUWk8v+Uvn7itdEKcwCa1ePRev/p5yOs3ZRxPMY5Vt73Kznf++HfboRzHNa/EHGOQ77vtt6C4thqHf1OgO417TD5T8KrV/QKDI/wsAv0QzOH4avtv4E9A3JhgvFHeJnzpY1AYw5WTx4Q/rAtOXhnBfrJYqSiea5GXA8vRGGKrUSY6FPrm4zAi4xdAKrfLI+O5J9dSvCvZRHVTndb6DuLPrWLXStH4WCGf9MjXvHwXaB4gUuxcP6+fxAjtzuKdD9GRKdkE/z/xTDnlLIf9bPhceW86J64dsS5i+oljH7ABzrBXfeN/hHendmzuIxwjnU/XxQ4+Zw/HNGWpkZ1hi1oE7TzxrNluLlVlJvQs0MzJg/F6QLdAG35HF+SdBTBy6YvbVHY8ZxwP+jsyakj3rd7Y533wY20HruoWdQx2q/8DS0apUi6F5njh7u3UuNA7DW0MSX040UrxznmIFtRNnayaIZd1DsVEdzSg0IZZmruUAdTcBWL2xpGVp6wSl9b9RxHoVQvYS5O3rpBFpeVwfEC1nxSpEdK6W5uD8MMi6GR+3jiYbleXByA4+fw5zAU+lIQ3jE8wcuqL20xNJetQCewKOsFmf8Mfuu7yETDzDLdvaIiTXhKR0QjphmP9LjQrCv9YPSFaTBL3YwUfgSuocAp8IhOE+pilOwlrAuvjNbi6szsCKr6RVP++/0unLcYGrmPre/K9eLj4Ovo1ZuOdBZRBC+7vrTVoutWFANMJUU9l/sIG/+pEDyVVl/TN/5WAovq4Bb2g6eCvu3ZZmQZmEqq6+CYnhJRxUIJXsJVB43fmbB7aa34AjnDlpci7ER5eIKXZV/aKrHnCo48YbqljO8oj7iiCmcAH1NG7/XEWF3JyMhQH+NzH3rkhpMFYX+vMrqXcC3w2X/yqL9cS81ap7TpQxG8LPvSVgktdQ3izHV2kPWT/BEYH5uSv5eE8ION7ilRLDWNkrrWjlp7CVvfOx1p/4lpLU9ny56sqH1Ki+3v0at3U1fqJi2y7UtbFWQ6458FNBHjPMoEAM6KdtbBaFnX6ghcHGI/VBGQs6z2i1Kur06i+BiBjYeYqLBUNZF3Y9TYS1hE8cUmb8TkBQ4LLGspZ7IiKeTgxzm0rWQfr/xPIQ3+5GYdXhZ8aRnWGjcOppyizoqv41TN+6wGZW2W9JdtjbieM0Zj1IghTq2WfOqv1RP1WYCvA0o9WVj9l297cj/cl8TtXYB2pw5Nqwkz1xcprFGaYry2d+7cbUS4M0Scj2JGP3rdn4o4P16UFGH/ne0F1EC6RD7HHsb7a1vP2W7ANmqF7tPr42wBVr6N34YKHU/Ab5fiu5KOWjzytCCIWiAFTzeDTx8PwrqXfgozU+LopqS0BEFUi678NBY1XoKPUy12OIa3GLD2+Nz/pMO+kiI8gqg2vmEPuSxtuKnsGfjg2a1wUCxNPCR4BFEl1LG9VItdiiHBIwgiM9AYHkEQmYEEjyCIzECCRxBEZiDBIwgiM5DgEQSRGUjwCILIDFSWkmr0e0bVe1njQ9STYQv1iH3tnPuCE3bfaGl457qqNXTuvbz6/cJEOaQswhN+GuRL6xDV04IY16AobiUnuCikLMKzd1spGfmtedX4po7e4SNWfJ1SPGxuVy78f9AcKIERXjVxIyKNYl1R0kzg5zlFTG2GHaumw0T5FA2F+nYdg57L8mmFoDG8xKJ1RmYRHPZPS2QPugSCaad77tDljLeaj+KqRlQdLnZT4Piuw7DyVfHYd3YC5Fe1Q/dUuU6FsER4eq+7cehLW2KEZ/Q3C4oW9MjMWE/ZvuJbi/iiN2u0ViT6LBrh6f3kQsb7ihyHLcJz+wuq43RFz4eA/y/2+dPOiW2sLLCPobPtoPdW7ot3nsX5qIgvrYK+f0ZUrrxPFzvVdbUxOj1StYx/Bp4LiXMczufXPJ/y2LR+jYlARnxw5BisOXhTLnTIQdcz6+H2htIbF/gjPPKlNRAfFmxO6UUMaLitj5fgesX9ZiW4/DH0rZXryugttjEYvMjkxe0eQz9wMyH9NfEiwovfFyGdmBa6b86Fx/9HvXD2MhHi27B56mrwczIJPnb3T/eHdV4HhUHulxy3RFGxfgmo8Pb6JhXxpeWggLL9U72EWWQJuH3jMyCMnLjI83Xx/DTBMtU3V/e6taD79PreM/ZwxG3PtgHuX+LzUUYWTYU5TMhNB7qEk1sEbbzRcivMLbHNsiJ45Etro3UyOyDNQg9Nq/3flBH9Zl3wolWihCALQYWu9QtZlMGii9CLzgb7Fl/EPugsAlIjjT3bjnARamWRhHuRsd/vk8LlOz4mXP7j9UChd8QuaJ1oYOTkRTimP6y0h+wf8KKgQGNrCy2TeLRk2Gdi5KREVuX60natz7HLj72vquAz0dqJdnyWz4BfpB2/2iJeGGUjPX5bpvlS+rJ78j3wK7tpkHzMeECuNxamTuTjeZf/okd3jIFDUECrB3bVHC+xL5UneORLa0WYssyGxy2u9S4R/WZdDBtBJo7sG9k/IeG3cxQpSXAqFYjzLW64dZkXmXMBRHXQamZiZ0+VyqCYL6u0h7RiMfX2gekhpqxM9I39rIgvrWOUZNpDBgmoLrz4JRqnfSU3N8IvDTdSl/tcjoHQh7+zmwbJx/kP5Xpl0wibOxvZzyE4elQs8TMAe15GP9zS+/Apgke+tDb4BxGjKhQ9KT56ihKP36w2acHSlls6zdeOSqCBONvDZhl9iGg22NPVTxPk+bimaaAdC9IAqW5BzotSpJPbGX4x+2nFc6W8DzimVzTtHSshwhsWvVcFGQ27aS3/IiwnY4gbJnZPtsFtfJaWRchyaaXwBI98aYNxx6LkeIo2NlcVv9mQ9GhseC79kSwGXURazh3CHgt3YasM9dCMX/o4fOAImRxrtJ3foPGsWhH8hVMtZEQv01oezReLqoOILaWdAN1rUOwATvdWviQFUQQve7605rduHUxhi8LMmnGgmIteY52X4kb0m60MnkBF4tBlOMHOmTFgbUlpHItBL+0pBg7oo6E3il7MJR88mjO/VGotZAK/mKiUOkxQFtIcvVgUKSYv8P0V733ZkxWxpLQodu2Qb0CxOwybrKmsR8cvXuF+uOvKn7TIkC+tLT1ibOzGsg11EBen7fULWQye+9IXub1ifrNjYlEbrMYUsuQxF89HVp1ptU6COGmPfhwr/P/r5xKs5bOE2ixjpanql0rpOGKyTB1ykO+Zb6IlFqQ5uvZ5NhGTF/j+5uuTZCBUmtihU9pcdA5izLz3UWgTv0bCrMPLiC8tYtQxWe/1NP1QjdoqiVPv5MO3zYh1T3r9msRI33AwPmicUD8WY5uYktoHyY3zEqEOz9u+t11jOwrqsfD1HF9fscg9NrWeznp+EfVYLf9nJw5fWvOzYrxn8jwFpeIOgcfKsH/+Irw24rxPxY67msxvg918ksKG/Y6Ltq5fwxpUSPY1U0otHjUPIFKBIwCBop+kCzjJRBTcxJN7FDatzUP9uffg+dcPyIXFUVJagkgufAYZUzL9IpXjV0Q0NuJYLotM96dZ7BgdP2FiB8Pw1R+jix1CgkekAj6DzNI2fUJFjLuyv1tKUwg/GCUvaxmBvr0hwykJB1NZnKx4qLEPdjz7G9gzIP8QEUppidRgH9cKHoskBN5YKs5yl1G8Po4gwSMIIjNQSksQRGYgwSMIIjOQ4BEEkRlI8AiCyAwkeARBZAYSPIIgMgOVpaSa0vwWKo5zX6ZxT2m8OHVlQfc0E0QQKYvwhJ8G+dI6kC9tEFikTC5lhE7KIjx7t5WScTtg6BGRjJhq7UtbDjzaqrNGePauJeO76l7clZFQ79wo2DqIDH8Dr+24CPFZVo1/Mj2GN8qyoTxvaZQBMO1UGmfuHxQt6cnnNqEcLbgereJRgNMN02HDmmag/KZ8LBGe3utu/PrSQv9JuLpgEhxzowB7hGfcw2m0IlL+L8Rvlkda8CW3eeTbw+0o6/tb9ujjc0XGrIpFeHq/OXf7yr2oyjZCPVOdsTuHsNZMRj85895XLxobgGb1mLWxQT1SNVscmT3h/DivLdezjT3KY0ti+6QlHe2wYeFN2MfEz/B6KLNdUtbwR3iZ86W9DMcGm+C+wCgHRQEdw/BidKIj6Tdr6+4bxW+2MQerJw+IMbeWHLyzAtcXvq1qG/aN3QsB9jqv6W2rchHZCFwckr/6EJFfqGdqRL9ZPo7GxA6bcTrHsZ+d72VbbZ2hxfI5pxzvXHae0ThJ6SCs+7CaCPc3XAf9ZYXAyf/hD0do2XL8e/00uFvbD94+if091pbsMdCWz7F3jjFzHpTY9TxTKIKXTV/aLb0nAYJ8TV0fBTUikX6z7GJcZrQ9xwtMibBsfrPs1xPuBAN7ckrxslV8Mrb0aJFaKR6skZCmOBaXMowkvYitXM9UJmAsisVtqZHSlh7pgWEZSsCoyotgRTtyn3dIBXHsE+eoITS2n+Kzv6W3ZP/uqhcNMxvv8SL8gCUUY2JqM/zLwglw48g3VievQt8Ae6cY574u2bowS3iCl1VfWvSjGLKJl/NtbzHNCTLOjuI3qzlFRXezCorIymNjN6aOTMwtvdEq4pnKvXptxxckZKbdI4/o4ip3keZGvi+QIH/hCPx913NWQxvxeA7+clKuWApM5HY8eSfsxseq6TDxbAHWHLQYUyMDb8HmZ5+mdLYIiuBl15cWTYp9DvwqIT6tdZODxxXHDI59OXaE8mHOtJaA6quL28IxPTUajYUQz9rYXPajIs2NlLSWf8ENDsR8Tkrg8kVYo0xc7IM2Jn7t0D1V/p0oGU/wsuxLi+kimOM5xQizcxwTzkA/TgYoY1DcHrJctFna2CKnqEQ2/I4RHqk7aa1IZ8vtnBx7SsvY+XYBTsMEmDtvglxClIoieNnzpfXAcSpgH3x/xIaRn21geyypTxSElylLN92xvhTiExMVOU5WridqRITHbh00h36JickLntby97T8yYpYUtqSeBDWvYRerU/QpEUIyqRFhnxpLaCv6NUFOZgjn3P4REE95Feo6W4TbMcB9xhTH3GxqmIhZovHlNJWHSkmCxb6ZmRN79+YkD62xeos+eQFpvtsvfj9Y8eC48o/BL22cbyOeSCsWlvhnq4c/40wUQRPln/I0hExloaP+fC1PmuL5SFMGN117s/DlS/KLA+52A07Ya3yertB+Nkqs7sKu/+M432Y8nrrV+ZWMxxMr4c6n5DirVufsnRXHf+6A27xzWLGwN4veVkFlqGI11wMUw5ZUlp1nI9f2KKkhD+P0RQb6+Gc/eKajOU4cj/UEhyc7HijH7x9Yg8xdljiBAgHa+fkdmRdX2uns13LLWSHCvAIL/3x9s2+npi8wPc6roi9HLDmjk9WuI92mFs4xguQbbO0cPA9+AqDAUb9LbUdHU0y1DyAyDiyALuYOXoKcMypz73/NLxJtSlWfBEeQWSORVNhDotSz7CIMM1ih2N4D6ET/3AffEBiFwhFeESGkbeYhd0al3hy0PXMeridad1I3zbYXKpRa8YgwSOyh3p/b6rFjigVEjyCIDIDjeERBJEZSPAIgsgMJHgEQWQGEjyCIDIDCR5BEJmBBI8giMxAgjcuEM0F8H5RXzv5uEH/B7xHNcb7dgmikqRM8ISfBvnSpgjZ4KCqQkwQAaSs8FgY/ozZlxaR1fYQ5gRWadQKf5XxXO0vjxmNfJLmAlYOq392JyxHez3yiE0llNLWADSrcTsPowMXb2FELvmJZ36bEDsitVgiPGmbKJ+NS19apIQIL9SXtkgE43PAD1pXeqF6vrPipnbsu/fIlZzPAzbcuxYd1oJ8KuSN8vKZdd0K+tLqHrI6znE459b0gU1a2yZswNkO+esF7i2xfHJQhOfczH8GPnh2KzmIJQx/hJc5X9piiMmAUF/aQ6Nwlf0wHMxUivk38O68JrwBaCe4r41NQVs7VU9XbFAq9yusHTyfXJCNS91ticac5thaZXxpdQ9ZX1TLHo64YadpPDeqJy9Htm2KuxV8VJZ0tEG+YQj2vV3EOi63CNoa8JdWmEu91hOHInjZ9KUNJZIv7ShcUy96Li6eKLVOZidkaDT8om2ZxMf1DEtDbrzjvbbjpTqlpFbvTLQXMTFhUZgaye7ZdoSLlc2trTK+tFGRto0t03wpvfD1KKMV/AO/spjoeI8ZD8j1SkF6wp7uDeg2rDJwCAq88/AZOE7hXeLwBC+rvrQhRPOlFX6xjmVj16340/GjkGbXYWCai+khEyR/SsfQhRLblivRUSScSMlwWAsWsor40pYAN0tiKXe7G23Ww92z2E4PXij9NT/8ncVEx3uc/1CuVwKr750OE4e/gXePygWhDMCel5+G5ymdTSSK4GXXlzaUCL60Z66znefG0nihAvT1X/J51upi43kxsIcc04t7ljbY8LuYs1cV4GZJSlrLRTohrm18ouIm9P03zciOBzzBy7IvbZn4hIxHSnUwBS7A533fwihP0dhzdgy62ASNZ9UGSwRbdWS0KdNans6OsPNYzn5VNKVthM2djXDjSAF6LstFRKpRBC/LvrR2ovrSCltFBi7HNJQ7YTkpWoj7fjWQrlzGpMBY0sZSiDKpwxCTF3jOxH6VPVlRyZR2/hTAT9rEhX4HMV6a0jAdNuDzNc2g5zQdv0B/2FdgHU1aJA5l0iLbvrRWovrS8lnWJljGlgvnehGxtHZiGUitI6gRtp9sn1ru8M3Idq1fKCZkYk8bxaRO3YJckTpDMXmBs9D5+ir41kbhaAFWvnrYeOzDmTcsPMbnRmnKgzBXGMTCzHsfhTbxK5EQzDo8LE25a5Z8gtjq8PS6OZyNXQkvKNGdqJ1Df1n1f8X/6XdKmHV29to/wRJ46v4NoJbFjaUOT31VB68eDtFr3fS/I06Nm1Kv5mwfZ1qdOrKgOjyDiOYyIcfAZ3jV+jW9dk7dVwe5jlkT5yesxs7+v3oNYMB6zj4WO+4aw++2CKzD8+wScaaWavGSBXlaEMkhouAmntyjsGltHurPvQfPv35ALiSSgJLSEkRt4WVALDLdn2axY3T8hIkdDMNXfySxSxoU4RGJQNxiBiG3xiUfN5Ud7oMdL78FBbmcSA4keERN8cYDw+4DJojKQIJHEERmoDE8giAyAwkeQRCZgQSPIIjMQIJHEERmIMEjCCIzkOARBJEZqCylDHjtWKP/XlX9/tJE3h7l3ntruY82Tpx7ZPX7ewmiyqQswhN+Gkn0pdU9HIgSQTEm/1oiZlIW4dm7rZRDcMeP4hX/tgjPJXJHlBCMziYCs0vLOKIS562mNMLmJ9t4/zyd072HYVOk9vBE3GR2DM+NyFhqhy3cuXENf56U25tQeJ19ZI/eS8LFTHUPIxLHjSPHjP55JHbJwRLh6b3uxqkvrYvo1cY9YAOiJ8OXFgkaj4oSqegRnN7/jf+9zog0TQ9XZd/D/GvdsTtJ6Fia3rvOjHg9r90BaFZ7BRbrwWfpcxccaQvEcTg9CS1jj/LYovgLx4uI8KYywVtz8KZcFgK1kKoJ/giPfGkN8IL0+9K+D/vH0LIdxUKImbM96XPbbaawOm4reY2i/rXS7azovqNASQF1jjXYv7YJlm1dDHNOOeuy46ifDY+rx1Ex/1rZtZm9pudsJhB2jl67/bTQls8B/56YOQ+oE3z1UASPfGkNWPRwH4s+zvRWakaTiQSL0Eb7jygRk/S5bckpBtt2hAWkxSMDIysl8qmWfy2Kk7eu9Jfl7m0xIK0x/d4cji+H0m4/It9d9aJh8OM9XoQfsKCxHHT/i83z5R80Cn0D7J1knPuaOiJXEU/wyJfWwDGDPlapQXTN/MeFe2IUESgWfWE66xdLSU38a03h5dFabGUnFsNuuc/CR6Q0/r7rOavJj3g8B385KVeMzBBs0sbuXjtyE27rvBN2dEyQ6ygMvAWbn32a0tkqowge+dLGjWPSjSmi60srvWnNEUptPZkGxz1OlWT/2i29mPZ6aa2wc0xuh+RPDhagb5hFfW2NhrMZURs8wSNf2tgRY3Da7Kvy8Edk+nq1nj1OgH+tz3JybHaOcaW0fm7C+evsR8NEUG2xiNqhCB750uoIgdIiGzmuVxZRUtdakQr/WsdykqW1PJ0tf7Ki8imtjUaYj6UHZ6/BTrFA4UFY9xL61z5BkxZVRJm0IF9aAz5QzlJLt7SiCbZjCcRIeRcZjq19PCi8V4tNUFSflPjX8vekCZbhMEAZkxXVYwJ0r8FC5CHY9/aQXKbQMQ+EfW0r3NOV478R8WPW4WXElzbynRa+Gjbxt8/zi+HxWReUmjPTd9XDrB0rWtcXUIdnIl+3iI+r9fUkxt0beu1c4P4XN9wJq7Hz1Qm6mOfRtp6zXfs2asTUZtixajpMlE85Zwuw0iZ2nBx0PbMebkf7WqrFqxrUPIBIHULwTCFOG47L2bn3n4Y3qTalKigpLUGkgSZoZ9HdaP9AqsUOx/AekpaOH5DYVQ2K8IgUIW8xg7Bb45KOl8qO9G2DzXsG5HKiGpDgESlAGdsLvQ+YIMIhwSMIIjPQGB5BEJnhO/PzSyjCIwgiE1CERxBERgD4f6WusWSBQGSeAAAAAElFTkSuQmCC;fontSize=14;" vertex="1" parent="yo_I0r40DUydshJ_veD_-10">
          <mxGeometry width="316" height="151" as="geometry" />
        </mxCell>
        <mxCell id="yo_I0r40DUydshJ_veD_-9" value="" style="shape=image;verticalLabelPosition=bottom;labelBackgroundColor=default;verticalAlign=top;aspect=fixed;imageAspect=0;image=data:image/png,iVBORw0KGgoAAAANSUhEUgAAArAAAAFBCAYAAACPYpyXAAAAAXNSR0IArs4c6QAAAARnQU1BAACxjwv8YQUAAAAJcEhZcwAADsMAAA7DAcdvqGQAAHp6SURBVHhe7b0LcFXXneb75WVABylCD4SFkJCEwMaSbczD2DBBJn2NmcHldDMuKCepqaQn3El1x7foqXS4yU3G3b5xk05NUxN3KnOdarvujdtlKqE7adODcXcwdkNsg20cS0DzktADIRBIIHEEtjPju177nP08Z+/zkM4R369qS2evs87ea6+19l7f+q//WvsTt7Uu+xiEEEIIIYQUCZ80/wkhhBBCCCkKKGAJIYQQQkhRQQFLCCGEEEKKCgpYQgghhBBSVFDAEkIIIYSQooIClhBCCCGEFBWfqppd+4T5nBkVy7D+kXbUXO9A34gJ8yNsPBKKsqWP4Atr5uJqZzdGTVhKmtdi07r70No4DX0nB/CBCc43de2PYf3KNtRP68fp8zdMKJk4mrFq83q0Mv/9maT74qaiwPP4pntGWeXR2ma26vDtyBQichtqNMzSmzS/CpGsLbBljXNRFj+JjjMmIICw8cgkIm/QzY9hVbPZLzBkQ7Pp4WUoM/uEFBKyQdy0eS3qzD4hBYcUr8vnYPTUHux88QWz7UO/+ZpkizQYiA7R0llmvzgplmdZli8ykIV1L8rEzbDnnVRm1bDxfJCi6sGFSvzueentZK/H3Ihwh084+tqcBR1Hxyu/wrFhs+tgFhY/vB5tMaiHSOT8MMgKtr5lDAdz+fAxeT16+AUcLMCOhhSwq0onu7wLgWQdCmTwLezcLwsxi3uPRCIv9ySZMuj6EUN/wPNVPd/mDCbrj9X2qW812bQZEs85CgL/55lvPnnyJFVbm5r83K9T43lbLM+y7CywzQ1CuMXR052moMLGS0VsLuoqzGdB3TwhXguCM6KQrZ6s3g4OxtD24CNYbEuvRFaKTZs/Bxw7yeEHkgUjOPaSrc4dHhRh8kFuC1PilRBSKIx2n1PP/bp5fkNczWiQTdpgjxYM0kBjjAn2+7ysZX321r34aIG1P67nmdj2nIqjbrlrNFCJ17nosT3ngtpacnOQhQXW9JrGLEtPEGHjBaAsrUDHqVI04HXTq5G9nAaMiLC22nMOi5zuYZodScISpbF6wWHDM8LPkimvY/GoTqv5HjmxwPagwWYB9vTQLUu1hc/1efLMRZDFIBXuY/ofQ/dWIb7rKDf5r0hthXDgY4FPlKXB32oRbMV0xnfH8+nxqzwuVeGjd9qve4IsHbbzey0RSYvAQXzOP4/thKgv6dF51jCwBx2l61V+qDy9ssQc25WHaa0q+hpkJzhceAhCXqeqxxDfvT/LkcZkfbbSEIRPPkc5ty1aAlf89PU9WQeSZaDJ5N7WuK876L7I4jp966j7vJnfY6GeUQnR5Lq3Mxr5s54lwXXCSoNKm2e0Kcu2VOB/XBee+9GdXls6XPeF/7M2E2x1NtXxsmhLQ7eh7vwI0ea4yThfUpZFivoUkC+edDruyejPstTPnojtQJhniovMJ3FVtGLZ7ZUYOv56mslbIeMFUdGI1rnA6XcuoWbFfNzo7AaWfg4tw2/hjSsVaJ0/DReNQ7XMzIUXf4E9/9KBo51iG5iG+rvuwtKqcRw9q0/+wfkTuFrVhvo5s/DxwAkMXZfnWIa1K27FtIAHbGRm1KKluRIfDNgmrI1046g1gcF8j+HTGU8amFZ7G1qmT0P5PY34QDz01DVfr8bStiUot0+Uk+eVedHZj48bW1Dz4blEXliMnrXll0jXkHU89bvMJt25j+nIiwQVqG+tQ93cNrR8dAQ7d79u0rkEyxaZCR/XB3DapEOV2yfEw+Pv9uJdE5bIU4N8QK9tGBY32j/gDXP+lhUr0eKYoGFufCSP1TetCS2Vt6gGZN9RK568odpVXdNpk/Fuw6oVtyXrjkTV0QrUNIv0XbPiuq7DRM0L6vziPjhjS1MCncfVlS2ivpw112vSVpu8LyTy/vlC2zTx0PgF9h+W+TuO8pX34n7b/ROOGahe1ILy0lrUXP419g3XorW2AfXzP8TbLx7FJ1sbUfO/rPIQefx7M/C2rUyvVi3FsruabHk8gj5Vj25FfSyZlrr29WidmYF4lYS4LyRl8+Wzog6tzR+JtOs6JevK0jarDoi0mXTrOmSre2pzTvYIm8daXMkGwxxL3Nutc2eqBuCXbwyYWGHre7IOtM69lojrvA4TNRSmoZHPS3NfHO38HRb+XjOu2ut6yDxOPCsSm8gTkd7Rw/+Ao/boslF+5C5Mk3nwT4dV3KtV92HVyswm1YR6Rqlntah34t4uP2+dV6TvHme7Eo4b+KBU1pEKfNI1mbnurvtQP3MQHf9i2jJZ7yo+SrRtmrlYeI9o3s93RGo3VJ1bs1RN2KqfKQJuqURLYgKXCLPVFRVXtIX2NkDnsf1+1Pd3TYW8L6bjpFWX/dqfjNF1dlq6NjKLtjR0G+pug6ZdxmnXM13qCnvdlcLRqqNyi5o2hU2EJo41UIlV987AaVXvbmDof8rnwhxPfSpbvBytlR/h5DvvJe5tWbbrW2B79ojfVH4Oy0pOmN9Ge5alf/ZEbAfCPFNcZOxCMOGTt4bPoCc+Bw3Ns1BXC193hNF3fuXsQQ+/jQ45ujpHujAk6d8vegTxGNpWyQlBQsysEj0c2avKhXi1HS/vE9ZiMaeV98wRcV2iYi0usolOjrwfQf+AuIhYWfRrEDd8m+jY9R+29RJFHTh4Ko6yliXJOlDRjAbRaew/luxFj77TqX5jH94rW9oqfiNEhK1ejL7zuq47d3qHAaW4SHaAsriOfCDzOGE1MGlz3BfNaBM96dFTr9vE4BkclO4Jc1ozGqIri42hw+qNq7qaLJeyUuuA4hwua0b/+9LFJoaGRttQqSjHPSot9+phxea1qkfffzgD8RoZKZKTaddDwTHMijySGzaP9XDy6KkjyXps7u2y2uZkfQpb3y1kHbBZUDK+jopZKg39ffYHnLccM6WuXTdkbmto3Z36uXrQZlHq3/+WuJ45aMv3pBmRnqRlSbRFsl0p1fkQBb/njF95W9e1arM1PG4aeNf1h0G2i8khdxGg6oFtuD5xPKt+7nHkvU6L3zNPdrBs998Z7f5QVp59Wag6II6feH4EMUs/X0evRMuTBIXchqprc7leyuegXaeYPHfWJ6mRRAM32Ol4NpaVirD4OfTbwjyaKSwRnj2h2oEMnykZClhT0QfOpHlghY0XTFl5qch06bMzgmPHBkXF+hwa4CyEVIyOidroQRzroGgkYwuxfrM0wYsG6mA2D19p0XsMmzbLzZj0c/QwT80gehyVb0Rcr/hXKKIpJNnUDzuqs+TJE/lwk5lSijJLIJiHnh+jY1bFsh4Cxictgcljn8bL/RDVDYftBp9E0uZxkJ/6iLz3MhFrAkfexTESto0ZFnlsPjo4s081wNI3Tg1B+YicvOB66GdM2Dw2D3NfxpJ5E7q+W9h+q5CNoRQ1UfPQlI/HRzEXqI6JeB6/706UEXmeejyMESnsEx2i/OBsWLPBiF9759G3XojGWwlO6eMp2xVjncpnu6LS4X2OJdLsfuZ5fGl1mjMaKhdIi55uQ+Xog7PT6I8Q9Woo2nsPhKeA21DzXEjt4+tTnywDjavOKi0kNc/D2YvzSM+eMO1Ahs+UzASsqughekdh44VF9jakgrdZzpyZJXupyZtAboF+Kaa3IHFaRDLBPakGKh2TsZSGv2C/OVA9TGW1cNYBhx+exKeXra2t9kakArPU4e51Hkts/v56xY3qKKqHpfNa5USSfD/I5dCW45wOPygn2hokcVrGi4HQeSyeTXLkyGHJaF6i/LDtjVLo+p5zpFCRo1imM6HOm4uJNFqQ+D6PjaiXk5gc16oMBjpKsdDfpxQHGkxDrSYkezpJui3TbiSiTXnlJEbVsyjfE5ZSdDTzLOr699va0FfOoUHeJ+1BasZYpEV6fYWu9Cl21BOxhRRuBdOGqg6msX4nnhnepa30iFWyPgWNeiuDihztUYY7c7zA/E1N7p89mT1TMhCws7B4sUikxzLlJmy8KJheqW+7ZSq0e3jEiFQPooJLcds/qGd25tSSYCxFjuG+CUIPE7h7xjcH+sFjHviezT7UbMSp7UbWvkH2ONqyo5zc/Y43IRb2iUP3nGVj4HOtYsuXpVP7ZemlhZLns0SqGznSIe/xQfTHxcMzZINUKITPYyHWpNa1NxCiYXBPMgpf3/OBrdMuxVVaS1F61LBx0BC5sdAoNx3PtYqtmDozjmFfP8uyqeeqbI04s4sZ5fo2CUxku2IZmFzufxorf4R4C3IhEm2wp46EfGYXVhuqNY9KvxSf6pngErHKvdKqT3rkMHDEzZYvyp1EdooyELH5efZEf6ZEF7AB5mkPYeOlQSv9EJjhD7tfYzC6p6+GIPcba9xyb8+m+NAPQ89QYVhMI5ELH6Z8oG6aFFaAwKFTFwnf1pQ3nRlKysDPLS2WdeDhAhJg2bgKZIxx0/CxFvhRtvRzxt1HdBCPaUvCqgJaMDxt/Qubx8ra6hW67k5E2Pqed6S4Mg1OxvXHch0IdOWaGFeBicE27OvrPmA62B4RZTrV+bKEKmHt8j1X+InsyUKKV2119101ImuybEPzWU+l+FQi1n3Pa/dKVZ+U7vJxU/JBWryViPV1h0v9bMn7syfdM0VOcBNtaGQBaznSp2twwsbLCnuDoD5bvRCN9KnxuhDYereq1278YWXPJkNzuhtpVVITTEKJ6dxhOb5nPrRqbj6/CSAFgL5pUkzYUK4BsteWujMS9uZTQzPSSpujemGRWMPYtbbxpCIeGHLYum55voco7ZhOgj0f1INJW1ccmBGTxPCyNcrR8rkJTG8aLJ81nwl+irB5HFbohqzvOUeWhese1D5xEfycHaRwHUhgNdL3Fv1bjiSWG4EypHjcB4zAFc+eNntVMm4kuR3VtHMGHWoSjvOeCj2hKpck7nfbRMa8i9dctKHmmZbhxFc7Ske4HiW67RjDqPs+UZ0PUZ+kO5Jr8pZG5p37OZFCrKd7luX62RPxmaK/i7wOrB6mT/+WibDx0iNFaOC6dbKxEwWWmEUoMsHug6FmU6q1L5NvlFDHE1Hkd/a0WUOZznXRQmDS4OjBSDcGd3r94iWQ1paIZveQ57Wu1w//h4BxxTB7kugPC+8xkkjLp+Wz5F9PdFn4vwUkUU4WYa/ZVa6B+eIpf/9rceSJqXeh88mqp371JBPU8dKvAxsmjz35K4mcTtPQmPUq9TEtFw2Tn4l8TjZKGlk/9LqMiTQn6rq97kissol+/4S9L1Q89/PH/dyx43oGOeu7Jkwe+8aRZFTf3XmePd70ea8zUh6HiKfwfY5m8PwMuK81tmsJKGvfehGJ5PndbZGFX74ExQ1LmHR7ytZT58w9K5chzPj67fiVhbc+ee8tO/lrQwPvRYF/ebifaZmXm6cOpHgWW3GD2yFvPqdMV4hnmV8dTT57orQD4Z4pCUzZRROw6oIQfFCLsPEImQT0TefzwDM3bLaNBCHZYD3IA8VbDoUoIWRqoNu1FKJvChLBhUCo6UmbvEVIrjATZPyWRjJuKIRMJtrv32dpoKDlxQghNznGT9nhcjH1iSBgzQyxtD3/sPEImQx8/C4VouMlX0CBcA7whOQLPcM3uSyOhfbPQ9YTYwkhUwk5VC+eDfHoL7kodiL6wBIyNfD13UnhX0TIROLvd3dzDQ8SQlJh82m9SdsuClhCCCGEEFJUZPAiA0IIIYQQQiYPClhCCCGEEFJUUMASQgghhJCiggKWEEIIIYQUFRSwhBBCCCGkqKCAJYQQQgghRUX2Ala+3nDzY1jlWnTbQ9h4BYNcY+0xrF86y+xPFfR1FU85RES+DnbzWtd7tQkhhBAylchawJY1zkVZ/CQ60rwcJmy8iUIuFH7zCZ3kGzsKpRxyzpkj6IjPwaqHl6HMBBFCCCFkavGpqtm1T5jPGdCMZWsagZ5DOHr+hgnzI2w8H6Tl9pF2LG2chr6TA/jABCtL27r70OoOD8m02tvQUvkh+jq7A95eUYH61jpMGz6N01HTXKDUtf8BllUM4uDfHcSQCbMj3061fmUbWlvNVjWOo2fz+Wo6Kaj/AGvvsZ1TbOXXO9Dnc1p3+uqn9fuUzQ0MnRxH+T13YWne058hVt1trcbVwPpHCCGEkCCys8A2N6AuzLvjw8ZLhevd9XXz3O8BJSkRHYE2kWX9h/1fRalerYq3sPPFF/T2ykmMzrkXm9rz6WswgmMvmfOZbc+pOOqWu10cpNAVYXPkqzRN3MODKGtZH+DicQYHxfcQ6S8sVwntvrFpXg8OiuQRQgghJDOysMAKUbF6CWqGj2D/8VTCNGy8AGpvw9K519BxahoaZl00FrdmtK38NHpOfQI1pWM4bbPAprYiSgGxHveL8JbKW8T+TNRb8dRmt4glLbAXa9fhC2uW+sSJgLIkL8ctAycw7V5bGn0tyMl06nM24WPxu6Hr+lt1jW1Blmf921aXdbLu3na0fOIkDr7pb60ePdvhtFZeH8CNqjbUz/n0hFoJPzj/O5SLfC8bt6W/+X6snf8JdLzyMs6YPMBIN/qmNaG1pcI/fSNX8HFjC1qqM7PQ5x4pwtsx47dCpB8ZQdl8kbczr6UYASCEEEJIEJlbYCua0RAD+vvSOFOGjZeG0e5zQMsS5bNatrQVZaeO4NiVMSBWlvB1lH6tDX02i57HingmYcGTlj7AZtFTm9c6qax8teewR32/R/tXZmyVjKHtQbul8y30xxZivf14ahLSveL69pg4Mq3QvzPRRsdE2m3X7cfoFXtnQZTBHBE2cKYoxZKytsfPoX/YBChEJ6ZFVCzMQYNvcYygf0Dmk9NyP3loa/PBqep7TAghhEwgGQvYCZ+8NXwGPUI8NjTPQl0tfN0RRt/5lVMgDL+NDjlUO0e6MGSISPuel942ws+IomyONyjE634rkWfQIYV04nizsHixEGsizp53ktc3+s7rQjgLIbdYT0walcI9gR5eT4j0ilkiThwjDv2aiQuHOE6p+BcfnVDRW9d+r0jrIDoS12/SMTaSTIda0eJe4LDoAIjdsnL/lSJkp2dUdBpmTbWFJAghhJCbnAwFrLZ+pbfohY0XTFm5UC9KRI3g2LFBIeI+hwa4rXHBKGtlFuTaaum2RGsxWooyaSU01urRMffFWdZEY3UdkflhfoMKzFKGSCOCZ3ktsyoPMYbRkHkmKVv6ObTJtEyA1Va6RGySvqFyea85cXS84u+nK1GrRzxYho4XQ1gzh7XoDRK4hBBCCClOMhOwyqJnt5IFEDZeWM70oD8mBPExyyIqsYScxEySsW3r1TBzceEc/rdjrlUJM2NZlHk8eBIdcXs+RBOrbqRIVPnmsgTni/79lguH2F45h4YHRdn5uGko31/lzhEscHONXVwn6tSUWxuYEEIIKS4yELDWMLcQkybEn7DxoqB9WP0tb1K86jVOtb+q5T+anQW2sHAKU2lZlNbV/j4h6MdiaGjU+1kN+zev1eJV5mPC1WECGX4bBx1uFUKsSyO1XFFA+g4n3DkEyl0ileDPHoe4turUBIh6QgghhAQTXcBO8OStstKQFlRl7RXnc1hng3EM3ecE44u62b0EVGocE5SUn68Mcx9A+v1Ki6jVGRjGiNLlFcofWPq79vcNoqy2WbsP2P1FBaGvVU4gWy7TY/f7DUBNNhPX+3D+Xxggr00kCh3vO+uS8q/GIHqCqtgECFxCCCGETDyRBWzdnQtDTcoKGy8rlC+oGUpXn53iTw05B7kQmN+23RlBbabCCHaJV4AGIETgKqEXk6Jb+/m61y/V/qh2AaetkmUt96LN8gdW7hULsUr6HLt9aOV34lqlhTaQKOJVoP1qBeKcbTnKQoWxAI+eOpK03Ku3a4myWmUTyyZe0Lq2Ei1wXRPaCCGEEFL0RFwHVq6/WhfqzVvh4qVHrZc57bJjrdcEM2rR0lyJDwY60DcwgNPXq9G66Dazdmobys/vwb5hEcfvjVvXvfGD1oG1r6ca+Aav69dxS2MLam4RgvT46943SZm0Vs+1ziW2uXJt01/g3QETRzLSjaMiXfcvl29q0vFaKodx8EXbGqiSyia1lu1oIo9H8LFct3UmMNR12HV+/V1L1ccBa6LO0mv1yqVxb6lEi5U+a/N5o1VivVbxeVTmf0Yi0b3erdjmXhPX+g9411Fv5Nu1+vHxopVYZb21a+5MIV5TTeSaheZlizNffzgPqA6VWf9XlpNjHeJCfWsYIYQQUoB84rbWZR+bz+lRVjoIgZFmEk3YeDcTcumnBxdiNKXoyiPm/Di1J2c+nFKQ6VUDfoVjWUwaywuqDpYWZtoIIYQQkhURXAgmc/IWyRqzJm5Zy+ewOBd+v0IgSveH0VOvF6BAbMYq6Q4x2EnxSgghhExBollgSeZMtgVWISearUdbTL6BLFPruFntQXxKPYQ/WZhrRDhfXkIIIYQUH5mtA0uKFPk6U/n2qqDXr4Yh+TrewhOvguYlWqBTvBJCCCFTFlpgCSGEEEJIUUELLCGEEEIIKSooYAkhhBBCSFFBAUsIIYQQQooKClhCCCGEEFJUUMASQgghhJCiggKWEEIIIYQUFdkLWLlA/+bHsCrduqJh42WMXGD/MaxfOsvsE0IIIYSQqUjWArascS7K4ifRkWZR+7DxCCGEEEIIScWnqmbXPmE+Z0Azlq1pBHoO4ej5GybMj7DxUiAtuI+0Y2lrG1rVVo2rnd22ty1VoL61DtOGT+N0yHPUtT+G9SvFsarGcfTsiAn1Ei6efIXpH2DtPW2on9afIg0h4yWutwkfD5zA0HUT7iZsvOa12LTuPp98c5HjeAWdx1OkLHKbx1Okvk+RsiCEEOJPdhbY5gbUIY6e7jQP4LDxgpCNx4MLgVN71CtMd764Bx3xOVi1ea16J39k5PE2P4aGPvla1RSEjFe29BER73PAsZPBDaAgXDzZ4D+GTauAjlNxE+ZH2HjatWLTvB4cHDRBvuQ4XkHn8RQpixzn8dSo71OkLAghhKQkCwErGorFc4DBThwbNkG+hI0XhPX7t7DnHUsAJ9/p3+bj86obTtHoqM0lcqVlZjnU+/xTvss/bDzRIK2vPYc9L/4Kx1Lp85Dx6trXo2FACPU07/IPF0825vcCh4Xo35/qInIcr8DzeEqURa7zeErU9ylSFoQQQtKSuYCtaEZDDOjvS/MkDhsviIDfly1tVcK0rLYZZTpIU/s503CKRsey1D68LBln+G3x3b701o+w8c7sS9uoKkLG69//gk2oBxMunhT6YRrLHMcr8DyeEmWR6zyeEvV9ipQFIYSQtGQsYCds8tasMiE+4xixtUnKf0yI1INyiDAmv09SBiFeEw2naICODYo4C9GWt9UPCCGEEELIRJKhgG1GW0sMowNn0lhYwsYLi/ZHaxsLHiL0nGtkVO2XlXN5LUIIIYSQqUBmAlZNyhpER7qhurDxwjBrGdZv1v5oYYYSEwyP5Eg8E0IIIYSQQiADATvLTKrqSePLFTZeGpQFNYa25XPR84rTH62sNAbEtYU1kIpZysVg9EoORDQhhBBCCJl0ogvYiZq8ZTF8Bj1yNRzPKgbi+EIfp3NPUD64Lh9aQgghhBBSvEQWsHV3Lgw1KStsvPSYiVhz7rW9hlYvb1Mnjn8wlTtBxTKskj64p17PcAkvQgghhBBSaHzittZlH5vPIZCTqO5F2ak9afxQw8aLQPNabFo+x+wIhHhNrjagkasTrLJFkfQfdi+Do9MW9AKEZPyQ8eTajg8Ksa6DXcTR8cqvtHgOGU+uYbteiG5fbNccNp5fniQYfCuxvmVu4xV2Hk+NsshxHk+R+j41yoIQQkg6oglYJSLlQtxp1jIMG48QQgghhJCIRHAhmODJW4QQQgghhPgQ0YWAEEIIIYSQySWzdWAJIYQQQgiZJChgCSGEEEJIUUEBSwghhBBCigoKWEIIIYQQUlRQwBJCCCGEkKKCApYQQgghhBQVFLCEEEIIIaSooIAlhBBCCCFFBQXshBPD9hUP4OX2B/BMlQkqVKpaRTpXYHuJ2Z90iijvCCGEEJI3KGDJlGPrHULkrmjARrM/MVTjGSGsdzXEzD4hhBBC8gVfJZsTpGVwBe62WSrj3YewsSdu9ooUaYFtLcF7hw5h27gO2tiwAl9rdIm0oU48dHTI7DiRYnJdtfjgF6ekAbtWNIncc5HieGFQ54x14aeHerDLhDkIOq8k43NLAduKygIu9y9/4R5sqBcferuw6ZdXdKCL1WsW4xt3TTd7AlfcxDF8uYEjLx7D9ovyczl+8HgT5qtwC/v3mvDHs5M89vhvj+Err93QwXZmz8Fzm2tREngMQWsTdq4tNzuas/vexbc6zY7Bk0af/PPkmyRFPhNCCMkOCtis0cKlftwpmKTQWxc/hC2XTEAx4iNgPVhi0C381G+r0dsp1ECryJ8UAvZy56vJfAo6XgTSClgbWpCPY+/+TuwwYZlRwALWCLWz+7qAtUL4BQgrLdRsgs8SgSGEmPrtrAE8/dwgDpgwN57jpyDV8eyC0itgp2PbVxZjCQawu6sCG+6C7/m04HR+Z4lQu4hV54Lt+sPmSYS8I4QQEp3wAnbmNvy4fQlw4mn80Slnk7Ky5VlsWQR07P8qdlwzgSb+DLMLxJ3fC/TvLmLv7t2obf8G2maaL64dwTP7t+NNsxsGJVrQiZ9ea9QWQimAuksSlrZeu0gSJCyDFi7BlLA0pgnX+0gt8hRuK208+DeBFsLkb9R5ay4IkTaOdVJAWzF8BVTIc/ueN0U6DR7BqI5TigNKFBqB7ydI/QSswCtAQ6Q/MM8Mrg6GRSoBGyaPE/UhgEm3xCshVYJ9P+rCzyzLpZ+oMoLrotsCqcTv9NSi0/wWQdZQi6BzuEl1vMQxtBif7YojBefaER3mJ1I1RuSOuPNB54/7mG60gL6C3SpPg0klwtd8/Yf4vXljeP/ZP8fPT5tAQgghoQnvA3vtAE4L8Tlj7mqsNEGa1bhvrmjAz++zidMv4YllwM92b8JXzbb3fAxt7c9iqyVSEzRi3YZvYMG5p03cl9A7cwm2LP2S+T4CsUY8NrMbD3UKoVTdiF2tNTglhM57QujU1yTVqhQdt194FQ/tN9uhLsSrW/HyHck4u3oOYa/UW+I4iUlMQiQ95iNqpcCqsLkP+BPHtkPmfDJ9QRghBiF8dPp0+sVJhchyi7YmfK29EcO248YaV7gmOEkBKcRfXKTZXO9Pu4G7hSB0TM6SFlMjJq14KdOZivEebMzaomknRN6pc+o4qtykYLWuQ24hrLG+pMljWU/0OTrRK/alYE2cU2yTbo29OIivpBFaktW3V6AEVyAN5kmE0Fsuh9inY9HtruFxG1++Xw7VX8G+VOI1AsHHE+n5d9qqGSSAf/bLd1OLaDuzpounl43Z0zFb/Lt4OTfXEcznsWie/F+KpiULVAghhJBoRJjEdQBvnBON8cyFuM8uQmeuxgKx33vueRMgeR5PuCyoO08cwXUh9Bbc6mgyFL1vb7JZdZ/H8fPiX2mdSyiHQAiyU92WwBFC88LRpOCLlSQm9UjR4RjaF+LngPxZdQ226hDFjqNSPMZwd6ucEBTD9tYmxKQwsonXXT3dSrjUt8rZ8a2O32fCRpGGmBCrBxLCR4i3LpU43O4z87630yZqL11QaamMJS2CGxsaUS/FryPNR/V1NVqCXVxbk/gshHlklwchfKUlu7crQ4HoJtfHywHp8ji3PIy5f/lXuDNo++OHTbzc0ijEHMbGIfo2BmmNXIxFXV04MiZuLfm9H7PnYG29uIV+O5BGJBvxOTaAl9JYX4OOt3pNE5aUXsHurIfkb2D7Pw5gvLQW33i8CV+WQcaym0oca6Zj7izxz5FXPohnhXRzOHvYz6Xi1zjRJ/+PoesIza+EEJIJkVYhePPUPtF4O0XoylsXYoZ4lB8fNAFBXOsXMsqPOK7a3AokO9/ZhK9GdCFQjF/AYZuF8nI8vPWr95pfXCEeO7sQV1Y4OYQdx3udbmE1hC37pVVT/r4a69qzW+apfmaQMIpj2G59VQzheErBGcPyGmkxvuCyhsZxQSbXEvUlVWgR4r/3gn8JeZDWWnOd0s9VWh0jC18bWvzn7ni5JV0e55qXcO5P/wTvB21//ZKJl0ek28DjtRh5Mb01M7X1VQ7V3yOOJbfFWnym8JGVBB+vHA/fNT2EUA6JskwfE+K8HBtk+ozLQjp/VS2ipYH/ivc6VL6Z611brvxzg8Twaz/5Jr77bboPEEJIpkRcRktbR5NuBNp94PqJ3dip9pNI/9ZnN+y0bQ8nfAgnHzmsbhNNYgv0YxzvwQtKnArZ122z6LpwDyUrUWZzSQjLjm4hmEX6VieWYzLWUZc4D0eJdm2Q7hGu63X4/0blUtIdQbo4nKpZIY6ZufVZ+icnj9eJy43ieBO+DBaRNK5ZLMQXsFuIu3QTrdJbX29g+3PvYtOPzLYPSiw+tya6NffLX2jC/LEB/E1Y94B0SIurFNUYwNMqbVdQcpe4dssi60NipYHeLn9hLzq7iWsV+XeiKfXxCCGEZE7kdWB3nutOuhEo94E4Tp932iL05KyYcg2wfGCVb6v5fnKxrRqQEE2WBdWHqlYlbnuH/PxL/dAWWY//bFhKSoVkFbJVijglNlfgbvhPQErPuLbaSp9d27Umtkz9Qh0YK3WAi0N0RP5JP9eSJqzLyfGKjclxIegeEYKstBYbmoaFoLP7zE7HLGlxlN+7iOz7KurJbvEQKGkqd/qeGgKPp4bjb+DIP6a23oanHD+Q7gJCECcmWEnx+eKAuGPKseELzqW1FCINSrzK34RyYTBuCuJ4ra0miBBCSM6ILGAxuBsd17QbgXIfuHYSbzhcAMykrmtH8HI6t4LJoKpGWYLD+VgKsdtarQTglqPdejKYaI2y9XMNJumLmhuh6XIVCGJ8HJfFP6dfp0nLpOHnMhEO5Q4iOgITa/HXnYXYzKg9FjeT40Jw4PiwuAIfn83WCswXYuzEcZeoTGt9jUgq6+sCPZFsyWbLHUFueh1YbTVNYdX1w0zWghDljmu9eAPK6Oye3CVdA+R6sXbBmyVNj34PTz71Q3zrUU7iIoSQTIguYMXjW07mmjF3Ax4SQrX3X92+qgcwMCb+2Sd7ySW1CsWFYHxMSCMhRG2rEshlm7wuBELArZBLJ1kToJKWxnU214Ctd/i8arWkAatllKHuQJcDf0IKzgjskC4J0oc3pTvDEI6LS4w1NibEubyuu0V6AuzSNoTIl8tXjXdhb058RU2nISOXCc2uuPyh3Q1jIjBll4nVvRC4OIh9vcD8tbYhbznMrnw5uzzuBJGtrwI5BB80sSnV8eTKAsmheWvrwlnxnfQzlfuhVx6QXLyCE/IZVV+LbUrJalavqdUvR7D7t2YsXpNWXu+ktQVYuqBUfZq55CGsUZ8IIYREIbMXGSTWeO3G3t3bPP6v0gq71b6uq4rXiduFiK22rSPru35shjjWDpWTjNQi+nJ9USlEXcPw5nsLOWnoBdzhWA/UWifWvY5nYt3PxFJa5vgu0eJedzblOqWONUqNi4P67MR+TP/1S/VvvYvp+x/TmUbndajrHqoSadZLkVlC3MoXO55rTXENkkT8gDxx53n4vEviWZ/VHi/V8RLlGjWPJd664LmWCces/Wr23LjfPGV/SYDE901XUtiaGfuBk56sOGZXESQCwxzPg/+arQk/VT8c5zdrwWodmcCZH/5xEtjS6843id9bvRKs+WM8ua5BfOBasIQQkgl8E1dBYYSfjyjTwjH9SwUIIcXA57HlqYcwb+wInvuLF0T3mhBCSBQycCEgeaOkBJXiX/zCJY9F0X+ZL0JIMdL06CrIdxn0/YbilRBCMoECtpAwk6liNVVOH9gS8wawLPxCCSEFgHQdeOqH+MqSYfzzt7+JZ14z4YQQQiJBF4KCw99/dPJ9KQkhhBBCCgMKWEIIIYQQUlTQhYAQQgghhBQVFLCEEEIIIaSooIAlhBBCCCFFBQUsIYQQQggpKihgCSGEEEJIUUEBSwghhBBCigoKWEIIIYQQUlRQwBJCCCGEkKKCApYQQgghhBQVFLCEEEIIIaSooIAlhBBCCCFFBQUsIYQQQggpKihgCSGEEEJIUUEBSwghhBBCigoKWEIIIYQQUlRQwBJCCCGEkKKCApYQQgghhBQVFLCEEEIIIaSooIAlhBBCCCFFBQUsIYQQQggpKihgCSGEEEJIUUEBSwghhBBCigoKWEIIIYQQUlRQwBJCCCGEkKKCApYQQgghhBQVFLCEEEIIIaSooIAlhBBCCCFFBQUsIYQQQggpKihgCSGEEEJIUUEBSwghhBBCiopPVc2ufcJ8zoyKZVj/SDtqrnegb8SE+RE2Xg6oa38M61e2oX5aP06fv2FCSU5pXotN6+5Da+M09J0cwAcmuPCYhcUP/wHW1o7j6Fl3xTPf3dOG8gmol6Gx8ra1TW9VfmknhBBCbl6ytsCWNc5FWfwkOs6YgADCxiN5QHYeNj+GVc1mn+SBZqwSebx+6SyznwVn9mHniy+IbQ864iaMEEIIIQk+cVvrso/N5wyQjfa9KDu1B3veSWUhChvPS9nSR7C+JWb2/BjEwRf3od/sER+kgH1wIUYPv4CDN10HQlpZ16Nt7C3s3J/Pi8+8jgczUWknhBBCiovsLLDNDahDHD3daRrssPF8GH3nV8YaJbe3lFAdFSIhGUbxSgghhBByM5GFBTasdSiXVqTUVi7p+7pqjtkR9PtYHFUcvIU9Y63asjso0vX+LGWhLBPfe34j/RGX2w4q4/tch/vcUmRnbonT11ln9iDEf8crv8KxYbMr0JbpMZf12Zk/7jS58cuftITIj7B5HLUs3Nb4oDz2vW5HOk2dTBzKm78JjPVapkfjjJtuhMCbRnfZphpBCLp3rPT7/NakF1nVP0IIIaSwyXwSV0Urlt1eiaHjr6eZvBUyXigqUN9ah2nDp30nZ42e7cDRTrENTEN9cyU+GPBOzCmb34b60lmoQSd+efzTaF00D/VzytCz/9e4OKcFLdOTE2akOPlC2zQhWH6B/YflscdRvvJe3O+aVKMFkxQT/4A35PnFdmPROtSNnsDQdRMpLGoCz21KgPzynw6rY/VNuw2rVix1TDSaVnsbWio/RF9nN0Z1kMCZP+78GBKCcM+/mDB53EzKY6Tb/L4fHze2oObDc54JRmHzOEpZyDxe2zCczGNxTS0rVqLFMVFPCrs/wLJpJ7Hn7/bi3cB03sDQSZMP16vROncaLp7xKyshNn9vBt5OHKsDV6uWYtldTfh4QMf/4PwJkx+iboi8t5eb3Bz1VE1kvAvTbHGuVt2HVSurcdVRjhYzUL3IL49F+v+nTPccfNI1+axs8XK0Vn6Ek++8F73uEUIIIUVCxi4ERT15Kwb0vG8lSOwMvJ60vglBpa1tzWhriWH0lO07nMHBw4PAnFYsrjBBQjSVlYp/gz0OS1j//gCLXkqEAFs8R1kL7daz0XdeV5N56hYvs1kCC5xQeSwIE08IvzaRLf2HbdbG4bdx8FQcZS1LktbM5iVoi8XRcfBtHzGYCaK8X3Ieq//9k2I/hobG6JO16u5cqO6Fg7ay7d8v3WLmoC3q5K8zur7VzbPPzJuFulqRh4OdGdQ9QgghpHjIUMAacTdwJo1QCBtvgomfQ7+tgR+9YrduGYL8dkdGlYCZldAbIxgdE//m3ItN7VlO869oRoPQH6NjbvUxgv4BoWBjZcUjYMPksSREPNUJwiB6XJ2g0Ssy40tRZjoTdfOEynUdL+cMi/I2H6MhylYkz3svDGNEFG1ZaaJHFJIz6BF9KcyR9dRg6k9/XyH1FgkhhJDck5mAVeJuEB3pfOzCxitAysqlWTWGtgcfw6bNts3hD6np3/8C9pwSKkSKWBMvm+WUAsWeTazdTJSVClWGOZDLVDnKwu6LmyekG4njnA7/1QhUaGtyWct61/HsvrjR0NbgOWgw/SYuVUcIIeRmIQMBaw1zO4fMvYSNV5ho656csGOtduDc3JOfkqsl6LU7pVDJyZqgDsYwmk/rYoEyOiYyVE128pbDzhczcdUIhzVBS04mS55Pr4QRGWO5da6gYdsymeA4fAY9Imu0G4F2Hyi40Q5CCCEkD0QXsGGHKYt9ONPjKhCWERx7yYjYqMPCDkFix/JtTNMZUBZvH4x4KivPtaCeGNyuAkEooet2s1B+seZzJEyeh7ZopnMFyNRVIBWirh2TPtmi3NX9ltlSdYQQQkixEVnAWhNR0jXqYeMVLMNvo0Nog7rlj9gmbPnRjFUPuyZXBfqypsMSJPc63ppVtvRzenJSYrKTJeqSw8ee5a0cGPFkn/BUTJw5IjoE0p1jbcr0j3afU0PqiQlRctb/8lKMimuPjvFtjs0V4lCHqOMFuhBYvtD2CX52kmWbU8u8msw1B6ukawsnbxFCCLlJiLgOrHOd0WDCxotKquPq7/zFRXK9TLXkVelJ7JGzy43o0+uNmrU1Yb7TP/Rf51MIc3sca+1Nu4jNaI1VC48Y9V8r1Jk2GecIysQ1NAyEy59M0ui7xqrBOl7YPC6LWBa+53avQ+vIO51vkL+DLZ5PeSVwlK1JR6L45fF60BBYB93xhah2x/M9t3Nt2TB5bMeKn0l5EkIIIcVINAGrxAF8xZSDsPEIIVmjBax/J4cQQgiZikRwIZh1U0zeIqS4aNbLc506wvuNEELITUMWr5IlhEwu/q4WhBBCyFSHApaQosPmz+z2xyaEEEJuAihgCSGEEEJIUZHZm7gIIYQQQgiZJChgCSGEEEJIUUEBSwghhBBCigoKWEIIIYQQUlRQwBJCCCGEkKKCApYQQgghhBQVFLCEEEIIIaSooIAlhBBCCCFFxRR6kUE1nmlvRb3ZczDehZ8e6sEu8XFjwwp8rTGGePchbOyJ6+8FW+94AOuqkQgPGy/leYc68dDRIfXR+p2TON47dAjbxs2uwDqvH72dr2LLJbNjUdWKl1vlgb3HSn4XRPI3wef1OW46Shqwa0UTPEez5YcmIO/c8YKOJ/Ec05vX7jIMOp47XqiyCJXH3ahYIa7TVg8dmGN40pmCVGnTDGHv/k7syPF9Eba+W6QrC/V9zCdfVJ6U6LpXEr4eFwtf/sI92CAzsbcLm355RQcSQggJzdR8E5e98XM1aomG3yEmko2y1cCGjZcI82m87fg11EGiQRPD9hUrcHc8xHHRhfdiTWi54Hcci9TH02lBboSAEYiX7YI7IRotYSXReVdpv35LEAbkp07nuO0YdkxZ2MvMOq/9eD7py0VZpIwXKFJ90hwZn3z0Iwf3RSIsTX0PWxahBKwjrWHLokBpbcLOteU4u68LWNuE+RSwhBCSEeFdCGZuw4837MSPW1abgCQrW57FsxuexdaZJkBi4j+b2FzfC/TvtmMTVmNruy1u+zasNHFyTf1M0UgPCcGHGiwvMYFVNaJBFmG2hjJsvGzY1XMIe0UbHGu8A9utc0SiGrcLrdd7oQeHL8QRq6nCRvNNwTHeg42dUnBUY3WDyNsgLnXr/K2uwVYdEpqNDY1CbAmBbBdD1nmrW/FMlQnzYVdPN3rF/7zl4aVOU9aNjuvSaY7jvc5MxWtuyHV9z6Yspiyz5+C5tcDuH72Lb3WasDSs+foP8eRT38OjC0wAIYQQRXgBe+0ATl8DZsxd7RKXq3HfXNH4nd+HHeJ7zZfwxDLgZ7s34atm23s+hrZ2r4gFGrFuwzew4NzTJu5L6J25BFuWfsl8nw/GheAD7m6Uw5IxbG8qwXvdPRAaELGZdiUZNl7m7OjuEvIlhpbqFKIuCCkwhEg4fkkIsKELiJfYxEchMj4mrjUkIq4UlOGpxjppQRT54LHMXrqgjlVfk2oY2hAfz5uQ1GUt0nmHlQ4rzd0FMvydq/qeo7KYalwcxFd+1IWfmd30fB6L5sn/pWhaQgVLCCF2IkziOoA3zomWbOZC3OewtK7GArHfe+55EyB5Hk/s3443zZ5k54kjuC4axQW3ei24vW9vwh+dOmD2nsfx8+JfaV3erLASJfikla+kCi24gMMBAiJsvGzJRBBvlSLAEgnj47icqRCeKEpKRQqBy/FgGbux4Q7cLbIifuFSNCFZUoJK8a/3grTyuhnHcJpy23qHHir3/32OGO/BC93i2qsblcVdn3MIewtoKDwn9T3Lssg/D2PuX/4V7gza/vhhE2+y+TVO9Mn/Y+g6clqFEEII0URaheDNU/vQ6xKhK29diBnoxvFBExDEtX7RVPsRx9WE5Vaz851N+KpLAOeGGGqEgopfEy2oEBMHhqqxurUG8IilsPFsVLfi5fYHHNuuVEPlFkp4ZoLlPmDl6hCOi4/ZDYHHcPcK5zW83N4aeSjfF+n/aHxb3RPRYo0rEufTfrivpvblzJRYiSNv6luT17muWvrm+kySyzHaVUHkc+sKrJbl1+nnyzvRTGB9t3CVxcTyEs796Z/g/aDtr18y8Saf137yTXz323+On1O/EkKIg4jLaGnraNKNQLsPXD+xGzvVfhLt32rza93wsLJwFRI7hPiLlYzjgF0s+TSsoeLJiSlCANm3UCLMWKsio9wH4g5rlkwnSpqwLmP/Qjmb23kND/lOlgqHXSC+bCZN+U28kROE1LmUj6wQd2oIOw+43APkSgLyvD+VVlHRIUjpm5szhrBFXmdJDLHxLuzNs2DOhLzWd4s8umpMDveg8rtea+7cB8zXhBBCckpEAQvsPNeddCNQ7gNxnD5vDf9rpHjdsiimXAMsH1jl22q+LxguyUY4hEALGy8TzLB61KFr5T7gtphKC6egUPwLLYFobWmtm2aikzXEHgljya6M+YnQElRItwRpYfRhV89RNVHJPcEqbxg/0MhuEhNFtvU9i7KYGPLhQvAuLj/pteaee9V8TQghJKdEFrAY3I2Oa9qNQLkPXDuJNxwuAGZS17UjeDmdW8GEoxvP9ISNly1yoowUm3oiVni0+0DCcmnbtACMPoO/UNhhJrVFt8IaFwo/EWqs1aeGgiyEcWzrUhk3QVbYQiPX9T1iWYhOnHt0ZmNMJmgcF/Kic4vHhaDp0e/hyad+iG9xGQJCCHEQXcCayVwz5m7AQ0Ko9v6r21f1AAbGxD/7ZC+1pFbhuRC46b0mGlWfxtRN2HipMetZinY6sh9kCkGm3AikwC3WZYqUD6b4n4EVVotf+yx/gfG9jXcfTT3T3yzfNWFW2CIik/oetiyseI6Og4j3mFqTtzs/ox5FwwIsXVCqPs1c8hDWqE+EEEIkGQhY4M3zJ3F9ZiPqZ/pP3tr5ztPKSttmre3aXo7X8+5CIBdOtw+l24bXVzTkf8KIz6SWl+2Nt6SkCV9LfG8WY3cNrcsF5RPfSwFnO661dqZyHxgPmCGe1TJFLpcEk47M1qjNHI8VVgofkx612L4URlb67HksxO/G/Z3otZeF8b1N75/ptcKGKYvCJ0/3Rbr6HrYsZLxDXYBtIl/4Mis2yvGDx+/BTrU1Yb4Mqm8y+/fgB60qko3T+PlvesznCsymEZYQQhJMzTdxEULIlODz2PLUQ5g3dgTP/cULEFKfEEKIICMLLCGEkPzT9OgqyHcZ9P2G4pUQQuzQAksIIYXGmj/Gk+saxIce/PO3/xqv6VBCCCEGClgSDumHuqIJaefoy/VBC+jNUkUF85gQQggJBQUsIYQQQggpKugDSwghhBBCigoKWEIIIYQQUlRQwBJCCCGEkKKCApYQQgghhBQVFLCEEEIIIaSooIAlhBBCCCFFRfbLaFUsw/oHF2L08As4eMaE+RE2HgmHyc8ys4v4Sex56W2Mmt0EzWuxafkcsyMYfAs79xdeAdS1P4ZVIpmjp/ZgzzsjJpQQQgghxEvWFtiyxrkoE+KpI40mChuvWJECbNPDy5KCMt8Mv409L76AnWI7OGjC/DizT8XZ+eIedMRN2ARRtvQRbNq8FnVmn0RAdlA2C1HfbPYJIYQQkiBLAduMtpYYRgfOeC1/DsLG80cLISEQPdsjWFxhIpGipn+/FuO0vhJCCCEkHdkJ2OYG1CGOnu40oiNsvJTE0fGKFjnJ7Vc4Nmy+JoQQQgghNwVZ+MDOwuKH16NtLJ1PZdh4wUgL7PoWCAEbLFi1D+UgDr64D/0mTNOMVZvvRZ3b9zOtb6j+HQ6/gI5yeX7rDfW2c7j9UN3Y/VIDfIBVuktd/que40rxnuba3cfwEFwOOn9j6Pf4J5vfIN2x7Zj8NntenGVk+b5aBKWhYWAPOkrXJ/1krywx5efNG+t6LIL8at3nzs7/1n3d3nSlKmurXrjT5MabP4QQQsjNx6eqZtc+YT5Ho6IVy26vxNDx19GXqs0PGy8F02pvQ0slcPHMCQxdN4EuRj9Vjda5c/DJ6x3O8zQvwf1zP4GO37yR+K0UOF9omyYExi+w/3AHjnaOo3zlvbi/ahxHz1o/rkB9ax3q5rah5aMj2Ln7dRGvHx83LsGyRdPQd3IAH1wfwOlO+fsOXK1qQ/0nhDj5u71414QdlXHM0TCjFi3NlfhgwJm+svnid9Mu43QirhBCvzcDb9uOc7VqKZbd1YSPB/yv33sMP2agelELaj48Z7tGzQfnf4dyea2fsl+/wJTdBz2HcPT8DROYjhH0mXT3TWsS5TYsBOs/4A0TdrSz2yGER8+a8IFpqPfJHyvd5aW1qLn8a+wbrkVrbQPq53+It188ik+2NqLmf/XjtEmfFIBrG2znFMdtWbESLdOScSRaKEoxnUzbjUXrUDcaXMcCkZ2hdbcBQgD/8p8Om2u/DatWLEW5rT76lpOrXrjzY0gI1j3/YsLkcZ1FRwghhNyUZOxCUHCTt870KKte3TznrJe6eXOA+Dn0Jyxhxh/31Os269gZHDw8CMxp9frUSitqwmI5gv6BOBAry+NkLZEWl7Wz//2TYj+GhsZZJiTXnEGPnAg2R7p6JFFlh0F0FIBfallsLJmOmCi/w0krblmpKbSKZWgTxd1v+05Odjt4Ko6yliW2a5slfiP+Deo6Y9G/PxOXlFlYvFicdPAth/V29J3X1aS5usUTOLGPEEIIuUnIUMBOzOQtJzG0PeiexGWf4X4GHUKoOEVYMxqEtnCcP8gfd2RUicRZLo2Ym7RnyfBI3tPQ36cULBoS+n8W6mpjHpE3aTjSEceIj6a2BHePq7M0emVM/C1FWaJzIvJTBs25F5vas5zmXyHqmMim0TG38p2Izg4hhBByc5KZgFUiMIRlLmy8UPhN4nL6u452nxNCzybCfM5fVi5Nbz5iOJUv6wTjXXUhlU9pjjhzRFsMLQu2EmYiz98vHofLslLp9zoHqxx5Jza7r7NBrnqwR3V4hIg18dYvzdzCPXolqI7bhTMhhBBCckEGAtYaMk1nmQsbL4cMn0GPTYQp9wHX+bU1zk8M622yJ8jYJ1Ql0/XWBOShsRgaC7Z2/bC7XhQ+o2Mi/aLDctBWnsnN6x4w+s6vzHd6jdyylvVZiVh/xjBaRHlICCGEFAPRBawZMu3vS6P0wsbLKSM4dkz6skoRpt0HPOcPcBXIFiWeIg8X6zQmMcP2k/TCh9F3OoVQlhZsnY5s3Se8Q/f5JfPziXrzkhGxlj9tWFydpiThXDC024MPxm2krDxffs+EEEJI8RJZwNbduTDUpKyw8XKOmswlRFi7ELF+5x9+Gx1C49Ytz+1LELR4moO2IAueESRJoeO33JTxzYzNRZ2VNrnM0kS4ECj0ZK665evRFsuB64fpLLTd6RZ3eUK5QUj3kHRv/xJ5/7BrclWgL2s6rE7TvY63ZpUt/ZzIQ6cLhu7kJMvWvdyXk2GMKKuwffIZIYQQQiQR14HVoqss7XqZYeOFI7ih9661KbHW0ky1rqfvMeWKA4kVAPyvQf9uzLGWqYXnmI7jCVzru0o3AbXGbO05Wzyz9mriMHJIvAcNrrSkEj/26061rqjvmqLW+riedXEzxL3erroeK+/8RLyFFc/kh1m/Vl+3tSaw+b0rrb7X7L4ez1q7AfkRlpTXmcSRNlU/RtAmrkGuN+w9tzd/uA4sIYQQElXAqkYavg2zg7DxSOFhhBiFEiGEEEIKlQguBAU8eYvkDL1u7uT44BJCCCGEhCGLV8mSqYZzeN4EEkIIIYQUGBSwxOaX6e9TTAghhBBSSFDAEkIIIYSQoiKzN3ERQgghhBAySVDAEkIIIYSQooIClhBCCCGEFBUUsIQQQgghpKiggCWEEEIIIUUFBSwhhBBCCCkqKGAJIYQQQkhRQQFLCCGEEEKKiinzIoONDSvwtcZx7N3fiR0mTFHSgF0rmnC581VsuWTCBFvveADrqs2OZKgTDx0dMjuSGLavWIG7S8yunfEu/PRQD3bJz+b4MfVFknj3IWzsiZu98HjSpYjjvUOHsG3c7Cqq8Ux7K+o96fbDxDV7/sfTeM5vv1YrT+LOc+q8FzmQSIv7fDZsx0v8znEOQUCZ+eV1rztOGKpa8XKrJ5M9ZZZInwNv3vnH03jS57mGIU+d9a8DYeNJrDSmqMMWsswu1Kj8CKqz+jzBdcZLivI3JM4VcP8oPPXJlQeJ39rCA8pWErkszPeeeih+kbwPxsPlcdp7NM/MnoPnNtcimcwbOPLiMWy/aHYV5fjB402Yb/bsnN33Lr7VaXYU7rh+xyOEkPxxEwpYq1F3NVai4dsV67Y14CYeXOLKjU8jZwmaTESsEgsx5zn9BURIAWsadHtarPQ5G/RgkfBM9SVsUb/1EbDm+hF0rer8Jb7iR6dDiBkhtC532dLik6eWWHPn6dY7VqBGhIUTVga/NFnCxyOw7XXKqjtBYs4nf2z45btf2XrrQEDZJNDfV6arbynKwr+OCXzqT1S8+ehPcDzr+p0i1MpPh/A06fWIVRehysKnHmpSlHOKPJ40lHitwAmbwPzyF+7Bhnq36NSidPZvj+Err90wYT5YYri3C5t+eUUF+R+PEELyR3gXgpnb8OMNO/HjltUmIMnKlmfx7IZnsXWmCZCY+M8mNtf3Av277diE1djabovbvg0rTZycU9WorCW9na5G8lJnxg20m1093egV/2M1Vdiog7JiR3cX4qLRrEhl5fFFNLRNQpQJkWu/tl09h7BXtLv1ra3YasK23hEgkMZ7jHj1QwgL0cDHXMePyqkLQ6iv8beaKYQokOJVig33eXYczZFQEOX/025x7JImrKsyYR7i2NYlBUsMLdX+FtdgqrHOdGrsYkim/z0h4O9ubUhRV0S5yLSJY9wemLbs2HG0U9RZkY5GezmY+iNE/Qs5ujcyoqQEldKq3G2vJzEsr4EKi042ZVGEXBzEV37kFJY/+80AxjEdi26fbkLC8+X7hXgdG8DTRrxKfvbLYzgyNh1L7i83ITYWPIZvPfVDPPn1z5sAQgjJnvAC9toBnL4GzJi72iUuV+O+uaIxP78PO8T3mi/hiWXiobZ7E75qtr3nY2hr94pYoBHrNnwDC849beK+hN6ZS7Bl6ZfM9/mhMhZVgGRAfDzYcjsRWGJdCEQ3O1SYJYjEf6kLhi6ktJC5UaJXWiyzHR4V5+2tbsR2X4GeFFF7U1jUcsEuUV5huRyPJug2NjSKDkIcp4bcv4vj8AUpnGuwPG0HJY7hvFn1jEiubsUzlki26k9XihGIicReT2Ta4t3YNjQmcqUENWnzLkluyuJmpRyt9fJ2vIIDJkTRWoslpeJ/fQW+rEMSNC1ZAPXYn3c71qgQQgjJngiTuA7gjXPi4T5zIe5zWFpXY4HY7z33vAmQPI8n9m/Hm2ZPsvPEEVwXYmTBrV4Lbu/bm/BHp6zH4fM4fl78K63LjxX2UjfeEyIg1rgCL7evCBBN2aGtmf7CMTpCwLU2IZaBgNsYkxc3hON+vxuXDb+hqiZyeuUQ7LpqIXpSuVeERoonBFg1S7TleQI6Azq/UonEajwj3QyC8jQF9TPFtY1fwGGfY6cVziUNeEwOlQf8Plfs6jmq7o36JmmBNNc61JlyKH5iEfk+pK3fW2uqM76/siqLieCB/4w7//KvAre5D5h42TC7RPnDXrzsdRUouWsxdj5+T2L7Qav5QjJ7OmaLf/bfrV4j4q8Fdu+TFtnpmCsj2Og6chrKttF3HK+pEEIIyZ5IqxC8eWqfGma0i9CVty7EDHTj+KAJCOJav2h+/IjjasJyq9n5ziZ81SWAc0cc2w69ioc6ZWpiuHvFA0LIPoBdDQEW2ZImfE18L+MktjusYcwk9a3J75Ww25/aBy8ljnNKn8tcCUUvGVmiq1uN/2Bqn8YoSLeLy42NCZeGBGr42In0VUyURa46IVX6muLdR10uCdVYlziX6JhIn+M0vpyZ4XIRsdcB42P8UJ7qQBLjIiHO/dgKaaUU9S5b63ouKCkVuTOOC6JcpDsNau7AanGPpepE2O/H6PUkE3edHPLqf8X7f/ongdu5V028jCnHD9bKof4rELewjSv41o/exSbb9vRvb2D+2nvw3Bo/V4Pp2PaVe/CNWQMibhd+ZkI9nH4BP/j2N/Hdn/zaBBBCSPZEXEZLW0eTbgTafeD6id3YqfaTaP9Wm1/rhoeVla9guCSFiBCy+6Xfm7HIrvDxfZND5CqebfNp1KV/pvxO+VEK0bM6SBCHwXXOn3aXKBGVGNrNIVGHwhVCxMnrrG/NpQVbWtd88m18HJfNR4sdR03eqE5IpiQ7L2pTE2+8PrYyXbIzYtUTBLo6ZIvL8puoA9I3VdZPH3GfD8R9If2jYyVSzHfnQahnyfglnBJlB0favILTuh+TWxRf6Xy6akw21uoBcsJVCtFpOPBaF46MyT5NuXja25HHWYxFXccSE7kIIWQiiShggZ3nupNuBMp9II7T5x3eUEq8blkUU64Blg+s8m013xcW2iKbfgJPOKxh2FwKDufQbnj0cGiAf6CyapmG2rgTpJxI5UJPBJMiMDkRLFt2KOuae+LbuE5jrCTHE2vkbPMoAkfUk049mc450Skcvddk/Sr17cRp1wVtYfQyhC1KqGfZKYqA9o/28xEtBPT9ms2kwczLYoLImwuBtJjqpa/O7gu7WsANnBsR/0pL0Ch3L96A/Nn8tU3AvncdqxWsrpRWWhGfqxAQQiaAyAIWg7vRcU27ESj3gWsn8YbDBcBM6rp2BC+ncyvIOT5izS7UJgQzDJsPwRHVD/TSBZ+Z5RrpQ5jwA5RWLfm/uiaSGNUz16uxzs9ynQnKuuaeQFNAE2vGe3BAFW10K+yuoQviSvzqhJxNL8JSTaBL+G1PkBW2wNCiMndELQuvm432y45fy9NDJS8uBFK8LlYTrbxruqZCT9pC77Cx1l5Bp7REjA3gJccxpmN1kxCwiXh2Po8tchWCp/6Yk7gIITkjuoA1k7lmzN2Ah4RQ7f1Xt6/qAQyMiX/2yV5qSa38uhDopavcYs2aiNKdsK7JyUfeoXi9rE7OZrrnWHBsbLgjcDWB1MjJUUL82WeWC/QErDje67R8Ki3rovT3dFlU5TqwgUJ8CFsOid9Jf82ciFgp/sdxd1ON2ddoC7S09uZn0l0UpJU4IyusEb+xxjsc1yDXsVU+zil9TfPYKSp2jItJJF/usGWRiOe8j60l5w5M5tJikchUvFoW2yvYbV8ySy7BVVqLP7T5xX75C/L4zngJ1tyOeepDA1Y+ukB9IoSQbMnsRQZSkLYvUZO39u7e5vF/lVbYre3fQFtitQIZrxO3CxFbfeLpxIoD2tUA6Nj/VdsSXNmQXPDcwm8Bdr1gudkxeOOZxcr9BJP0T7Qm1AQtdp7hAvB+aVNCNMXi7h7kRCO7IDJpSeJ3PInPNduv1frevYC7dfxE3BRpsx1PLyYP16Lvyd+6F6O3Fp934EhfSFR60y82r8/nXVjfveC9b7oMaa/BJ/3q+K6XWSTLJll2/nVFYluM307I6w4dLyRB+agw949v7pl6nPL3pr4kXuLgqetJMikLiSefU9W5HOddTmhtwk41acsP28sHPG/rEtheVuDAE1eI18CJXAvw6P/5v+NOucxW38uczEUIyQlT5k1chBBCCpOmR7+HrywpRd/eb+IZrqVFCMkBGbgQEEIIIWH5PH5P+i+MHcE/U7wSQnIELbCEEELyQNJ14NqR/wc/+PlpE04IIdlDATsBBPsq2gnwWyShYB7nH+YxIYSQQoEClhBCCCGEFBX0gSWEEEIIIUUFBSwhhBBCCCkqKGAJIYQQQkhRQQFLCCGEEEKKCgpYQgghhBBSVFDAEkIIIYSQooIClhBCCCGEFBUUsIQQQgghpKiYMi8y2NiwAl9rjAHjXfjpoR7sMuEoacCuFU243PkqtlwyYYJEfIuhTjx0dMjsSKrxTHsr6s1eAlc86+1EvY7jx7B9xQrcXeIOlySPG+8+hI09cR2cwHzvSU9m+L89yfu2JP94Q9i7vxM7zJ4k+G1M3mPmKo+tMrQdKUkibsCxbMj8fgF3qDR5y0VilZv3ugOpasXLraleT5XMl1B5Z12rux5b57GFe/I3QfSy0N+Pe6/bcf+Ey2NvnZ5AWpuwc2252bFzBbt/1IWfmT3F7Dl4bnMtxG1q8IkjyXU8QgghWTPFBKxoQMdjuNxlEyceAesnUkzD7BANOqzS3iBbIsLW+CdEiV0Q2ASXRyipYwDvdZfg7poLTpGiMGlxi7gMUemLOcWQlWa72PDGs8RKkJjzyZ8Euc1jO4FCy0VwvGCRaok8f3EbBnPseLqyS5F3ibrjFKGJeuYRsKIuucSqk3BlEZhfnvsnSdiymFCUgJ2OIy8ew/aLJswPI3THf3sMX3nthgiYjm1fWYwlpS7Rmet4hBBCckJ4F4KZ2/DjDTvx45bVJiDJypZn8eyGZ7F1pgmQmPjPJjbX9wL9u+3YhNXY2m6L274NK02cqJy6MIT6GtnSB1DVKBpzKQ7sje4QthzqQrykCY81+Nr5NJe68Z4UCtU12KoCYqgR0ePdXehNhImGXXyGDDP7drbKtA1dwDaxxUtqsDxprpkwdhw9pK4j1tiYSLMXIXi6pbiqxu1VOiQ0Oc3jXBPHtk6RDnFdqx3pqMY6aaEUwjkz8ZojSkpFrRoSHRygpdpKnyiDahnm7iiEIJuymLIIcbm8XPQuu4zYlNzA9ue6cBblWLtmugnLdbwka77+Qzz51Pfw6AITQAghJBLhBey1Azh9DZgxd7VLXK7GfXNFI3h+H3aI7zVfwhPLgJ/t3oSvmm3v+Rja2r0iFmjEug3fwIJzT5u4L6F35hJsWfol831EhDDsrW7Edl9hGMP2JiEgxy/gsNtiNX4Jp6Soq6nCRhMUyPiYS5xewvEhSxBJITSOAz2XMCyOVxmzCwQpREQ7J0S2Pl/MJlImkjguhNZCcXUd4clXHueQ8R4cEEUQa7wjUU82NjSiXlo9u7O3eueCC6Iew3QwZNoqu7uxLS4yTwjcVEP4TnJUFlON2eVYVAqcPX3FBGhWr6nFfPG/pKlcPNUEuY6X4PNYNE/+L0XTEipYQgjJhAiTuA7gjXNC9cxciPscltbVWCD2e889bwIkz+OJ/dvxptmT7DxxBNdFg7rgVq8Ft/ftTfijUwfM3vM4fl78K63L0AorLYd265WdElQIwRK/cCkxnJ4kvajb2HAHpF+r3+93CFGqxEBVDeqF+PAdUpXfifQdVxY+fb7JERDacpxSJJY04DFpkfQTPynJXx7nkh1HO8W1x3B3oxB45lrj3UdTDMVPMEpgSut3DMtrgFNDoXscNrIri4ngls3fx51/+VcB2/dR2WIiRmI6lmy+Bzsft7YmfNl8o5hdInLmBkZsLgZf/sI9+EbTMHb/9oZ49pSIbrUg1/ES/Bon+uT/MXQdOa1CCCGERCPSKgRvntqnGn27CF1560LMQDeOD5qAIK71C+nmRxxXE5Zbzc53NuGrLgEchV093biccng8BS4LV6xxBV5uf0Bt2t/wVZvfohYIl+NiXw59owaPNVVrC6sPlvuAJW6l6MUkuBFsvUP6RMbxXmfSL1ZR0oSvmWt9eUUT0H0ID9l8Z3NGpDzOF8ZForoRu1r1pKkX8n7O9GyMicqgOhZxbOsaQn3THWhBqk6EEOErTJklttbwdT+SRTf3fPjid/D+n/5JwPYdXD5lIoalswubfvSubTuGI2Pl2PD4YmybbeI4KMcPhMhdO3IMm54bFE+yIHIb77WffBPf/faf4+fUr4QQkhERl9HS1tGkG4F2H7h+Yjd2qv0k2r/V5te64eEJbCiHbEP6EXFZJeVEp4f2v4qHOqUoNRY7X+I4fEHG6MJemw9lbKalTrX7QPyaTYlcupC0AuYTuzAVm5qstd9n4o+c1COvdb+0TkphmWEnIB0Z53Fu2dVzFO+NxyA1Y29XHoR6tsj6USInJdrTVoIaR4dH+rfKMrNvESZV5dNVoyC4ge3/OIBxTMei212+qHLVgMdFR23fuzbfVR9yHY8QQkjWRBSwwM5z3Uk3AuU+EMfp89bwv0aK1y2LYso1wPKBVb6t5vuJYEd3F+AZnh9X/pxJUWnHDKvHx/2FzKVO7JX6KtC/VgqiFBZL5T4gRWHS2igtZUrU523CkiEhTM2W1qo6hC1KTGbSCchvHucW2emQVlfLraPQEOUgyivzSWVZlMUEkR8XAhcXb0CO7pfMMgL24rgStEvWVuDEi+/iW506WNIo44yNa8tpruMRQgjJGZEFLAZ3o+OadiNQ7gPXTuINhwuAmdR17QheTudWkE+kDyHcw/NGsPgJpJIqtIiwoOF/iRTFcbuFsKQElfpTWpT7gFtIys0Ixcgz/fONWQ0guhU2x3l8k1E/M2qHIRVRy8Jt3RWoVRGiTuQLT85dCPxorVCTqRKTrC5ewYkx8b93wLXUVjlaRY9yvOsKVJc81/FsND36PTz51A/xLS5DQAghGRFdwJrJXDPmbsBDQqj2/qvbV/UABuTD3D7ZSy2pNZEuBBLpQziOu5tqzL5G+seqYfvWBpt1thrPyLU30y2hZGavh7MQmkkysRJxHuM+4DeZRrkRCOGSaumvSUH7YMq8iWqFnbg8vskYHxOlElN+12EJWxaJeI6Og4in1uTtLpzJbVGRw/ryxQa9XTbL6A1sPyzEbH0TftBqgiDXbW3C/LEB/I19KaycxrNYgKULStWnmUsewhr1iRBCSBQyELDAm+dP4vrMRtTP9J+8tfOdp5WVts1a27W9HK9PsAuBwvgQOuWXHJY9hPdg9wvVi8qHeXFARhZC5T4QD5hJLv11xT+3G0F1q83VwGx3TLDI9bHCygX1rTyTHZKkS8QKm+DMcR7LxfTNcfTbpKqxzjruROdJFoTLu6iIfPJM4sqkLGS8TvQ66l34MisUVq9ZbFt9QGyba3Fx37vY9EvnEldqste+K5i/1oq7GEswgKefG3RaS3MdT3EaP/9Nj/lcgdk0whJCSGSmzJu4CCGkePg8tjz1EOaNHcFzf/ECukwoIYSQcGRkgSWEEJI5TY+ugnyXQd9vKF4JISQTaIElhJCJYs0f48l1DeJDD/7523+N13QoIYSQiFDAFh3VeMb4UKZErniQj5cQ3BQwjwkhhJBChgKWEEIIIYQUFfSBJYQQQgghRUVoC+ynP+N6DSMhhBBCCCGTAC2whBBCCCGkqKCAJYQQQgghRQUFLCGEEEIIKSooYAkhhBBCSFHBSVyEEEKKj+mVaKwrxUcXz6J/1IRNWUpRt6ASn7kygO5LH5owfz47dz5qZpgdwfhNkT/kZoQWWEIIIQWHFGILGyoxzeyTcFw9dxYnT4utfwwfmTBCpiJTygL7+/Puxh/WA7999z1857oJDEDHtXVTL53EhhOX9ecZc7HzHnGg3vewqc97IP3bcbxy8CR+ZMLSUrEQu2+vNDtJ4q5zeNKluO65Jv94mr7jb+Drw2ZHUYmfrFqo3r2u8R7v8UX34cEqs5Pgsuca/eNJrGPOwPfvuRt3+SdNI/N6qFLlh/v6LfR5vOkMxn2NXhLnMuUbM+EOEvXAOp4rDxK/tYUHlK3EUxaec/sff9hThiZf4zp9qcpf4y27yeEWfPNLC3B3KTDecRpfO+BvPfrihsX4t7bC849bhu9/vQ7zzR7wId77xWn8cMjsJggZr7oKP/33s1FidoFR/I+f9ONvzR4Jx7SqOjSUfxr4aAw9PZfxgQnP1kKqLImfdh3TTjFYYMtqsHC2/T69jgunL+Cq2QtPeAtsgpvKQi3ReSTv54+i5BMpWm5CAWsJLHsDb8TK9V78zbvn8PdmvyKVgK0eMnFDokROiTNtlvBJnNdPHFvpDRJzTmHjwZzDLhQt8WMXV0owxpLpCBRwCVLnUQK/6zYEilSfNEfFm4/+BMezrt8pQq28cwhEk15vx8FJYL7b8yCkgHUSsiwmmPtXL8AftQHvvXYFC9fMBnxFqSVwbeJxcR3+dk2ZU8RaYrOvH1/crVtjLXpd4jRsPM85fNJBQqEFrBANH30aH43YxNJNLmAtYe8cwhciq+EWDAVdUyAUsOmwu05QwN4chHchiP0J/tu6/xf/rfk+E5BkRfNP8My6n+Bxu0nLxH8msbm+F+jf/TkexX14fLUt7uo/wQoTJ+dUzDNi0C5YLuPr7/YiPqMem+elsmrlmOGT+JteITjEeR+sMGEeruM7Z6VgmYEFVVHTJkTPfCGQL510CJu/73sPr1wC5t2+EI+bMC9CoMm0CXF0e2DasuNHJ06iT6Txrnq79dKkWYj6FydTjM2YjgppVe69jHnVVvpmYFm16CCJsOhU4kEhXqUotwvTH514D7+9LvLg9rn4fRM2JRAC8Y/mX8GPf+JnIbWxeLYQjVJc2kTjsX78uONDlLTNxhdN0BfvFaJ07CJ+bESp5G93n8Z7Y7fg7nvLTEjYeEKs3iM+C5GbFNQf4ofP9+MsytC++hYTZuPffA3/5c+exH/+g0YTQNzE49dRUlpq9oJRrgELbNtc22+k6DLhSox8phQN9rgBLgWOY/rGuQWzG2xxxNZY5SxnKTj1b6VYDI4XjlJUS6v09csu8TiG/gDxqs4f4rzOeDX4rAnPBPc5HWVhw11mQWkLGy/niHpTIerL+MXLGDdBUbHyoi75ODGYuuOuV9K6brvWsHnnjWeOL8Nt9V9ufvmX0zx2nW/hgjrM9rNVeuIFxPfEy65+piO8gI2/gTNx0YTfep9LXN6HlbeWAIOv4Ufie81m/F9LRMOx9z9gi9n+abAErau9IhZowP+27j+h+fx/N3H3oDd2F/7jXZvN97nEEkdDeNutja4P47QIi1VXCCExjmH5uSQ5uJgv/j4e/nYbFg1EJJRYF+30kFdw/UiFhRGn11Ve5AcjkqsW4idWOqw0n41g3c4nly6jr2oevi8bU5m2eB++cymOOEocEyXS8fvz5mGeyMvTl9yZeR1vD4mwGdVYFuF4BY8QoV98/hJ+Y3aD+GKTaC3GruCgQ+SW4d+1yYdyGRYv1vuL54nG6eyo83hK/Ir/88qM0A0Zr7oMC8X+2S6nWer+1bOV20HJ/DLcr4MS/Jvb6tX/mc3LQAkbwLVxjM/4rH8DaJAioXTM+GhafpozKpON+o3L6DbfXZC3inRLsOLKzUf8lcwWYlc8S3QcIWCE6K11NeqfnTsbuGA7zsXr+Ex5rbfxV4L5s/iw3xnPK2pC8ulbQvjwagEjrdhXrPOKbQCzPHkp09IQu27yZABXPpqBmgDhlBrrnB/hgjmfyjtZFi6hJgVTzQzp+pBM2/C02Z60hY2Xe8S11JTiM57OQjQ+uHRViV9PJ2x6KWKfEVUxPpaoe0rszv6MrbxM3rnKIm19tyPD62YgnqLu5TaPRUetBhiwHevC9U+jvM5HlNaJ9F4ZMPFkvZNfyHT04+INFUvnibH4J48n6meQKM4BESZxvYE3z4vijbVgpcPSeh+axX7v+RdNgORF/N8H/gqHzJ7k56d/Ky63BM1zvBbc3iP/Af/HmTfM3os4MSj+ldbmwQpbonpp8aFhH3EkCiMhwF3IYd1Vd2sRI5hXIg9yIycC6/djUiSnEomV+Inyr7yM4ymGp/3Qxw743XUpwlIgrnmzHCr3E/s55O/7TuC34vjz5ksLpLnWSydTDsVPLCL/Lmnr9+PVlb6dgTCoOhOQl1E6MXljzTew+PtPBW5z1ph4OeUW1IpGG1c+TApO6QLw9TrgNWkNBWZXCIFRLRoo8fnicHJIULon/K1I0/94TbZY01FbLf6FjjddPAk+xBWbaJZuBtJi/D86xG9Lp3tE6r/8a6/6f+3M2+hWn4iXMQxdEU3CzGCL0AeX+p0iQwhW9eybUZK5pUYIl5PnxszOGMbE8T4TK3WIsKvnkg2tYnRENcLueJLxi7a4o0KUi3+fuSX4mvyRefE7I4jTWMnKZqH8M78TYsiZxg8uXXCmWeLwM/4QV+PiHJnkXeKcdn/cMfQL0STTLPp4BiHAPy3+XR93+O168jN0vNwzrWq2uBbRfifqQKbouuPOz2kzZ+Azso1OuCRo6/pHVy7ars3knasDF62+OwWht+7lOo+9owFXL8uJf5923MPe6/8QF0fURaA0UU+sPBlwXO/Vc9IiLkRxZSadLIl4pttGTtwdyUirEBw68xp6XSJ0xZwWcRk9OHHRBAQRH4D/SOI4Rl1K6ue//Q/Y4hLAE8aMmLKU2cXs71dVIyauMvoQfhoqFiqfyHjvCZd/aCUeXHUfdqttIebJiUVpfDkzpSJmu6YZ9fhD67z36ElsG6L4+WaEcZGQ7hv3SCvlZbzi58s70Yh6EBN1U1qBftQrxEv1IqyqSt2JmHe7VWbWluz0pGeG6lxNGq89jWPf+XbgNviaiZdHlNj899Ox/yfH8J1jJtCD9FUVYrP8Ir6Y0lc1bDw54Wsx2q+cVhbjQHH6Lz/Fn/2X7+K//h3layqkFeuj8lmRBNWND4QIy4LxsUyEy4fwP+11jNkFRxZI8aIsc+KztKSpRtjHveGzpeLG/+g6roYQIXYrYDaocwqp8oH7nB7RZPIpyGqYIGy8XGMJp5EMJsZ5uaoVrE2Y3YLPxqQriE00lpUIFfQ7xK8lO8qKD3+nxF+6vk5gff/od3AWhxCYp8/afHknII9vfOhZuWK6Us1+/A4fWklTeSIuIRFgYToFoUYivHx2bq3onJgdQclspzU34jJa2jqadCPQ7gPXT+/Bz9V+Eu3favNrXbceehCuwLkeR5/5iNh0/L6ozJbfo3Yv0MTHM7GazcBd99gEjprc9IbPxBs5QegNIVqlf6TYtYaw84DDLUFOJlPnlb6p4vLr56Xwkc0hwyeVT25shhTzfXkR6lkh3UtE2cGRNq/glJOzNqj8sza/SXdB5NNVo/CxLKA/Tis2F2DhWSE2bT6uXkLGS1h7j/lMLiOZIRsscW8EWhyd/qVyUysY5BsfH74oLkCZo0WIHE7tSVhk7Y2wsar9TogTHTBxeARTks9MS8oNuSyXSrsUTibv/CzKYePlks/OrUTJR2MYyNWELWOZT7gRKPeB3+HK5WQnadotUlHJoXZnfZLD5zatZchtfc91Hlt+v8lNr+JgR1tl7ff0LZg9S9w8nk6XTdC6+cynEd2LoBSqn+XAaR2OKGCBn5/vEUrDuBEo94FxnBm0hv81Urz+xwUlyjXA8oFVvq3m+8kjlW/rDNTIazKuAX3jRk3MqMACDOHtvsvoU36KJl5GyMljUQTOdXzneC/iUvg6JjqFQw9NB/hqKgtjkGi6jK8f1z6yqyZoUpv2yfXzES0ERDn4djTCo+qTsu570a4e2to7aUyKC8GHGLgi/s2rw7+Fy2fW7g4w9CHkAM/8NV6xeX+FfCzewIAc3gkd74bI7Vtw95pynPyF09rbWC4ejmM36CaQBbLBg8/QvG7MteCw+7WqBjmfGB8+6SNpnVNuE32/KYusWpvVPqRqrGoZWqjyxUcfOOW0tibLfNP+j77+w4Kw8XJCWY1o24S4vBB1RYdUON0y1PC5S6h98KG0UUr3i2Rdsm/JIfT81Pdc5bEUr9YqGVbarBEDB7d8WgnzxCjCglqUi45Z4OogfqToLAVjrLcOnJbvyAIWF/egM67dCJT7QPwU3nS4AJhJXfHf4pV0bgUTjpkw42fRlEJVhDl8HIXgWFZVLRo86TNr+UL6id88cv0cDl4S/zOxwg4L0R0gfqU/Z0r/1uE+Zf2dMCtsgaFFZe74+0tDoiPi1yGQFn4Rdumyw/LscO1QGP/tjCz/IZgkF4K/VROpPsR7bzktpfcvKhdXPIpjSlyK/3JIYOwi/tHhWnALVs0XD+6+UWO1DRlvaBQnpUGl76JrhYSASWCS5kfxn//sSfyXbz7KSVzpuDGmOt2fdbepZphxfCRcw6eGWjOy3DjRPnxOK1ohoa9T5Fe2FxoBNVTud86g4fEEopPYY4STzUrrJU28hEU881nq2g3CbQnVFkRLbGUi7PRkLulGoN0HPG4bIV0Fotb36IQtCz+Ma4QQ1+JxmAJjbXV1/jyTKZXridM6qtFW1ExdX66e09dn4fBPF0QXsGYy14xb1+NBIVR7T7p9Vd/AefmcsE/2UktqFYYLwd/39WlR51i2qBI/kYvLeyYPlWCB0K+WVVBaCaWgWyA+R14RIAukD2ZmVlifWf4CuR6pWnv0eCr/Vmv5romzwhYN129AVhOvyEyB6YjE6hc5OiKPLzJrElt+v4l4zo7D44v0mrwHC2id15xw7KJe4mpdVXLmv1yCq+0WnH0t6U7wt29dxHjpbHzFtsTVFzeYdVvtS2aFivchfviu+DyvDt9XqxxIpM9sHeYL8fucjztB411NmCk/zLwTa/+NCiKBiIZ15COUy4bPjmr4bcOzAjmrOmhIVVu6UrkjhEMfx9646okheXUhkALNx0/xs5VymNkpprVgkkLMKeamVdXkbfa2HioX56yx++SWok6+dOH6VZtIEGFuv11rVr7DShs2nsFY9bIp38QbxxybtiDKyURyP7O1YLXlr2S29L+0T14ymIlYbn9MDxHre3oi5nFKjOXf3olRnQq3C0HYEQI9afEz5c4VEZSLhxzpzdjFQ4r0ZPm6V5nI7EUGUpCuvktUvR78097vefxfpRX28dX/Ca2JoXYZ7xgWCRFbffq/J1Yc0K4GQOeBr9uW4Mqc5CLzbmwLxSvMovC2qJ5F883i9Nof1ZpA5b+4fShSLOhvJ2hhffeC98HX6pO2xLVY2K9J432RgcTKp2R8nQ79rRN3HhtCXnfoeCEJykeF521YNsybuFL+3tSDxIsDPPmbxF0WnnKzvcTCjiefA+JpXOkpBDxvubLjfjOW9RIBsys4+5rPRC7PMQNeOhA2nnmZQQK5fmzg0l9r8Id/9nuoE5+u/fZZTuayoYci5RJQduuIGT4VnxwL+bveTCWFxgBmi9/L5Zy8b6iyhjkT2GfhG9cA90L9aqkh1wsQ3MeRaRordcbTcdzp0NcR6QUCFp63cAns6XcgRbVzwopzMX7/dHjTnMx3L3KWu/3a0p3TYLlgmF2J8+UMhrDxFMlz+54zY7IoLztW2TlWuHDiqZsSd/mGqu8mL8IMy0fK43S4y1/Wj3GUevIvuE65z53yfs0DU+pNXIQQki/+zdeexNq6a+j8/36AXWdMICEkIyyxk7kAyyNGeBZk2iYUI159hKhek1b6Aud/qbQgMnAhIISQm4zmR7FCml/736R4JSRbpleiVlrqsnz5QL7QS5ul8w+9CZh+i7L2+vmwBi4HNoHQAksIIYEkXQf6//m7+Jt/0aGEkEzIl+tA7tCWYbdLzM1KgAXWcmXIs4tAOihgsyDYH9ROgG8oCQXzmBBCSL7RQ+Ly0+QOixce/j6whdABoYAlhBBCCCFFBX1gCSGEEEJIURHaAksIIYQQQkghQAssIYQQQggpKihgCSGEEEJIUUEBSwghhBBCigoKWEIIIYQQUlRkL2ArlmH95sewqtnsBxE2HomGyddNm9eqxdYJIYQQQqY6WQvYssa5KIufREea1yuGjUckzVglROn6pbPMPolCXbsQ9A8vQ5nZJ4QQQsjUIksB24y2lhhGB84g9SuDw8bzIWFhfASLK0yYYhYWPyzC229yk+7w29jz4gvY+eI+9JsgQgghhJCpTHYCtrkBdYijp3vEBAQQNl4KRuNA2530PyCEEEIIudnJ4kUG0gK6Hm1jb2Hn/lR+AWHjBSAtsA8uBE6dxGhLGXoSlsaA4zavxablc8yOYND5vRxeXjVnEAc9Fks5bH8v6lzx0x3P+l3ZqT3Yc2WJI27/4RdwMMIlly19BOtbYmbPy6g8xzumE2DyJTFMHj+JPS+97bRwq7QDB18ZRZuKK6/7CMpkvsnTBFxL0pfWL58E7nMHxQuJ57rd6TLnG3XlpyrLUnPdnjS58MsfQgghhBQln6qaXfuE+RyNilYsu70SQ8dfR18qw2rYeEHMqEVLcyUwfAgnP1qCtsp+nD5/Q36B6kUtqPnwHI6e1QeWQugLbdPQ8covsP9wB452jqN85b24v2o8EWf0U9VonTsHn7ze4UxP8xLcP/cT6PjNGxi6roPCHE9cIOpb61Bd2SKOe00IuX/AG53i2NOasLTtNnw8cCJxvHR8cP6EOIc5jzgmhGD95T8dNmEd5roN1wdw2oRfrWpD/bTLOH1yAB+YrxUVjSJNpSifI67r747ik623ob6xFuUDv8a+YZGvDTNwtbNbizopAB+5C9Ns57xadR9WraxOxpEYoehI20AlVt07A6cTeRIW2Qn5A9GhGE7kWyKPG6ehz7oeUwc+GHCWWdl823W78+MTQrD+3V68a8KOuvOGEEIIIUVLxi4EkzF5q//9k0Btc4CVzfjZnnodx4ZNEM7g4OFBYE5r0n/2TI+yFNbNc7oj1M2bA8TPoT/x25DHs5AWPpsVcrT7nBB9Mcya9HlYMWDgSCJdZTiHg5YVF6UoM9dRd+dCVU7J70R+739L/G4O2uyTyWaViWO43EGkH67DkhsS0Wloi8VFB8FuvTV5HFuINnqMEEIIIcSHDAXsBEze8kMIpY6xAGET5Gc7MuoSkmfQcSouRKiMb9GMBqFfHekMfTzD2IjzGs3kqiguBPnBdQ3udCp8rl8xjBGRVWWlNrVurr/tQfekuuioTgPGMJroIBhMJ6OsnKswEEIIIcRLZgJWibtBdNisdb6EjReB/r5B1C32LpFUVl4q/kphJVcssG0+fpHaOjoHDZYQ9klnlOMVPRWz1DWVtax3Xutm4ytrRwlzaZm1500Wa9DGpSD2xyGcCSGEEEIMGQjYWVi8eA4wqK1kwYSNF5EzR9CBuahzaZvRK2PirxyOlktKeTeHJXT4DHriSTcCZQl0pTPS8YqdYW2VlZPE/K7VOdFLcgYHre/kcL/oDKzKw4sURsfcpllCCCGEkEwEbEUzGmLSEppGwYWNF5kR9A8ADY0uBRs0tO/LCI4dk76s0vKqh8896Yx0vFzjM3SfV7I435l9RsQm/WnDIq3piHk7I4HuGw50ufkxOiYuJiZ9dQkhhBAyFYksYK3JPukmZYWNlwmj73RitKUVDWZfIf1jhR6qWx7SN1P5Wc5BQ7sQS37pjHq8nDIiRJj45zdZLC9Ygv7etG//kiszuF8HHOjLmg5pTY/H0LbK7hLSjFVyKbLBzuTkOWMhTk68cy/35URbz12TzwghhBAyZYi4DqxtzdOUfq1h44XAtmyT/Vh6PVfxwbVmqO9aqnKFAJ81QK1jONZXdZH+eEZMedZUzRazzq3t1PZ0+qbLkIin1oEtRccrvxJi0JlO/XuY78wPfddSlW4UtjiCRN5bBORvOFJfZwJX2uQaux3l4hpqz/me25M/WaWREEIIIYVENAFrLYyfbtH6sPEIIYQQQgiJSAQXgkmevEUIIYQQQoggi1fJEkIIIYQQMvFktg4sIYQQQgghkwQFLCGEEEIIKSooYAkhhBBCSFFBAUsIIYQQQooKClhCCCGEEFJUUMASQgghhJCiggKWEEIIIYQUFRSwhBBCCCGkqKCAJYSQdFS14uX2B/DyigZsNEGFSQzbV4h03lFt9guAkgbsknnX3oqtJogQQrKFApYQQsjkYkTuM1Vmf4LY2LCCwpqQImUKvUq2Gs+IB1G92XMw3oWfHurBLvFRPrC+1hjT4TZ6O1/Flktmx6DjAu8dOoRt4ybQQ4rzDnXioaNDZiccW+94AOs8xpO4Jw3+1xE2nsZzzbIRWdGEZOwh7N3fiR1mT+KfPne8MGUhLUUrcHeJCfdD5N9PrzWq9PuVj7Y2yWN40xlMirQZ4t2HsLEnHjLvrOO50pDIy2R48PG85Za2LMz3lz35YvIkLuveeKg8jlpHpwzSqtpqr8xR6lGhYi9/q1z96rxPnbNI1D3/OGGfUZEIrM9J/M8ryfzc+p4cnwLlTsjNxxQSsDZUw1Ti+1DzfWBZDZmrMddxQwrYHAkB9ZCOJQV3IkwkzxJWEu91WGIu6GHu17AlscSVXSjq8zqP501fgICzSFEWDgLjBYtUvzRHxbc+eEiVd0lxYE+HlTa7KNJh6epTyLIIJWBdaQ1bFjcB/nVHlOWKEuy13XvFR+r73MLv3k78Fl3Ye6EG6wLqqvcZEHS8CIQQsEn0PVdpex5mSrj7nxBSiIR3IZi5DT/esBM/blltApKsbHkWz254FltnmgCJif9sYnN9L9C/245NWI2t7ba47duw0sSZEC514qfd4kFY3TrhQ1hh2HH0EN4TjUKssTHFUFcc27pkgxVDS7W/1TCYatFYxZRAtjce+rwx3N2ayu9PCDSZd+IYt+cl78R1dXaJv9VY3WC/Lp1m2elI3+DlkZISVEoLUPcQ6mss81AMy2tE4y/CopNNWRQbUjA9gF2iXKUAkj6m8rMS2spncgW2263HUuSocGtzfS/y7plQ4UF1Zwhb3OI1kRazpfItdcdNbNYQtU6HfMZI4eT93kXIc1t5pzfZ2TNfpGBHt7ynYqiwxd16xwq0XDiEh0Qe9JqwsPgdz1NePv7DibQriy9Q32qLL7boz+MweWzVhwdMJ1PUh0Q8d9wka77+Qzz51Pfw6AITQAiZVMIL2GsHcPoaMGPuape4XI375oqHwPl92CG+13wJTywDfrZ7E75qtr3nY2hr94pYoBHrNnwDC849beK+hN6ZS7Bl6ZfM9xPDrp5u9dBOipBCIo4LEQwNl+PRrBIbGxpRL85xasj9uzgOyxOX1GB52kYxjuF8WfXGe3BAaMFY4x0JYWKlOTORmAeGLqC3ulGnr6oRd8e7sW1oTKSwBDVp8y5JbsqiyKi5A6uvHVKdyJj4vKsVyiLWKyRNsjMmRIcIf2H/q3jIbHuHhKBfYRerUoBqIXV3Y/I+3nqHtJD7WAdjJek7A6Jzq8+nO5GBKOt2tbLo6vgy/QLpMuOy7kmR9rWZ3bbjCgHlEndKfClrue14ooPtFLG6A6CsoSqOdTzzdUR2HH01a4umA3HfbjTp2htwm8pzqnSrctOjGPo69JZp5zR1Hot6Yo6vDBdqlMR+Xj9r7OexaJ78X4qmJVSwhBQCESZxHcAb58TNPnMh7nNYWldjgdjvPfe8CZA8jyf2b8ebZk+y88QRXBcP3AW3ei24vW9vwh+dOmD2nsfx8+Jfad3EWmEtwjRqE04MNbIdHx9LYRmRDbxs3IZwPOJDv36mOPj4BRz2afh2xdO0hiUNeExaMQJ+nyt2HNWCRgkTc85499ECGgoX+S4ElRRcW0UnqPdCZsI6q7KYAG7Z/H3c+Zd/FbB9H5UtJmIEYiXjOGAJp5IYLncmBURspqVOvdbRHcbq5xhxkKKpU+S9NZoihKV0v+nttItXM2pQ0oSvtRurb5bIMpdidW/i3rPO4dPhkKI2MbxvdUxKlRuKxrLC2+u3uH51XaaTJJEdJeky1BnV5UEI39YmxBzpzYZcHy8HpM3jqPwaJ/rk/zF0HTmtQgghk0ukVQjePLVPiQi7CF1560LMQDeOD5qAIK71i0ewH3FcTVhuNTvf2YSvugRw/hnPzoIorSOOYajcNIwSObTn31DZh76MH66v9SBb3EODuuFX513RBHTrYcdojWhUjCAQDfgu01i+kEtrUaaIRjEm6s4FUXekoFLWxOpUnQhpNbTKzNqizIJ2lcUE8+GL38H7f/onAdt3cPmUiRiFoQu2OhvBkj8+jsvmo4NLncrip4ajjW+725K3q0fUWWMljTWaoeaMl8gyHUxfdN2wE79wKfW9UlXjb4UXHVj7ML0WzWE7jtpaq+ubfJ6I+ymbe9b+DMjF8XJM2jzOgNd+8k1899t/jp9TvxJSEERcRktbR5NuBNp94PqJ3dip9pNo/1abX+uGh7Po/U4EJdkJAyUe7cNQWQzHORoHa4jQb3KEaDTUucywod06k1NcokJaN9R5LQGQyjc3d+zqOSquMyaN5OjtKpzGMsH4JZwSQgHd3TZB5haccijbWU+idTry6KpR4Dh9GuWmJ8/5oS32EnGPBE5mcg0lq/vO7T8bBuN/Ln6/LuGzqa2oTnEejo2ygot64+noGD/RzBBptNe7TqjOb8ad7MQzwMq/EnW8QpxDQAiZmkQUsMDOc91JNwLlPhDH6fPW8L9Gitcti2LKNcDygVW+reb7gkRNxhGP+Tz03CPjahzSWzetiU5O37+w9F6Tjbf/8JpuTL1WJI0Z1hSNtXOCVb4wQ4HivFHdJCYGLRKy8SPMvCwmhny4EIRBzxbXqwYk7gvTgfIirY1C3I4PodfHv9QPZZH18Z8Niy4bY/VVgtOMiKRYCSAI7Sri19HRW04mLRordaymKicuU7pzKa6/KVMrNiGERCOygMXgbnRc024Eyn3g2km84XABMJO6rh3By+ncCgqIrY3SuuE3eaZIMBOdMrHC7hq6IK7cT4TK2fQiLJUV6VK3argmygpbaFjCJVdELYvKmDueHkmIX8uPys2LC0FazLWLjl0YH8uNDXcYl5tObDGW0cfy2sGyfFalW4JNbGYgXhUuV4EgfDs7yi/WfJ4MhPjOyABg3EG89Tm/6M5CuImWTY9+D08+9UN8i8sQEFIQRBewZjLXjLkb8JAQqr3/6vZVPYCBMfHPPtlLLalVuC4Eeg1D8ewtqElB0dlhJrVEtiD5zPKXaN/bVEOwEjN8OmFW2CIik0Y5bFkk4jk7DnrG/VByUtSUwKzCYZ8QpZZo8nEhqGpVltrEvWxZGu35KX/rsySV1YmNvrKF9p9PTjjLElO29a2p3Rk8nR15Xa0lUkOmRVq01eS2HLni6E6DOF6GkxcTeTjRHWHTWUj/zFyApQtK1aeZSx7CGvWJEDKZZPYiAylI25eoyVt7d2/z+L9KK+zW9m+gLbFagYzXiduFiK0+8XRixQHtagB07P+qbQmuTJFr+wX4xMkheTMMbw1FOrB9b8c3rkIO71k+qSnOm8EQohLTrkXC/dBp8y7ArcV4Mn3B1yAaG9ei4Z64Pvninz45ZGsElkpPuLJwoJYhSr/IftB1Z0qq44XJu9Tp0flgLbgefDx7fdJ44gbkm9X5ShCUv5KQeTxxmHpjFt3X12wtnm/qUOIesuqY/qV0I9m7/wJut+WvEnDKT9SqhxZWfbTls1n2ykFQfQ/QNo77J3FuN95nhXsB/qA65Ftf3Gl0XIe+bsg0w/bs8Uubz7UG10+BLb5/nrjzPPXx7C9lSeJ9btjzOLgsMs9jhacueK9FseaP8eS6BvFhDO8/y8lchEw2U/NNXIQQMlFYAtHTYXV37Ehx83lseeohzBs7guf+4gV0mVBCyOSQgQsBIYSQBGopNfgMn0d7AQkpbJoeXQX5LoO+31C8ElIIUMASQkg2KD9KeN/iV6VfopDJUlqkgJCuA0/9EF9ZMox//vY38cxrJpwQMqnQhWACSOVHl8TrB0nCwzwmk0qAD6zbz5wQQkhuoIAlhBBCCCFFBV0ICCGEEEJIUUEBSwghhBBCigoKWEIIIYQQUlRQwBJCCCGEkKKCApYQQgghhBQVFLCEEEIIIaSooIAlhBBCCCFFBQUsIYQQQggpIoD/HxS4VHTJ8ItHAAAAAElFTkSuQmCC;fontSize=14;" vertex="1" parent="yo_I0r40DUydshJ_veD_-10">
          <mxGeometry y="165.5" width="469.38" height="219" as="geometry" />
        </mxCell>
        <mxCell id="yo_I0r40DUydshJ_veD_-12" value="expire = start + timeout" style="rounded=1;whiteSpace=wrap;html=1;absoluteArcSize=1;arcSize=14;strokeWidth=2;fontSize=14;" vertex="1" parent="1">
          <mxGeometry x="340" y="600" width="260" height="40" as="geometry" />
        </mxCell>
        <mxCell id="yo_I0r40DUydshJ_veD_-19" style="edgeStyle=orthogonalEdgeStyle;rounded=0;orthogonalLoop=1;jettySize=auto;html=1;exitX=1;exitY=0.5;exitDx=0;exitDy=0;entryX=0;entryY=0.5;entryDx=0;entryDy=0;fontSize=14;" edge="1" parent="1" source="yo_I0r40DUydshJ_veD_-13" target="yo_I0r40DUydshJ_veD_-18">
          <mxGeometry relative="1" as="geometry" />
        </mxCell>
        <mxCell id="yo_I0r40DUydshJ_veD_-13" value="task" style="rounded=1;whiteSpace=wrap;html=1;absoluteArcSize=1;arcSize=14;strokeWidth=2;fontSize=14;" vertex="1" parent="1">
          <mxGeometry x="340" y="670" width="260" height="50" as="geometry" />
        </mxCell>
        <mxCell id="yo_I0r40DUydshJ_veD_-20" style="edgeStyle=orthogonalEdgeStyle;rounded=0;orthogonalLoop=1;jettySize=auto;html=1;exitX=0;exitY=0.5;exitDx=0;exitDy=0;exitPerimeter=0;entryX=1;entryY=0.5;entryDx=0;entryDy=0;fontSize=14;" edge="1" parent="1" source="yo_I0r40DUydshJ_veD_-14" target="yo_I0r40DUydshJ_veD_-15">
          <mxGeometry relative="1" as="geometry" />
        </mxCell>
        <mxCell id="yo_I0r40DUydshJ_veD_-23" style="edgeStyle=orthogonalEdgeStyle;rounded=0;orthogonalLoop=1;jettySize=auto;html=1;exitX=1;exitY=0.5;exitDx=0;exitDy=0;exitPerimeter=0;entryX=0;entryY=0.5;entryDx=0;entryDy=0;fontSize=14;" edge="1" parent="1" source="yo_I0r40DUydshJ_veD_-14" target="yo_I0r40DUydshJ_veD_-17">
          <mxGeometry relative="1" as="geometry" />
        </mxCell>
        <mxCell id="yo_I0r40DUydshJ_veD_-14" value="isDelayTask?" style="strokeWidth=2;html=1;shape=mxgraph.flowchart.decision;whiteSpace=wrap;fontSize=14;" vertex="1" parent="1">
          <mxGeometry x="375" y="830" width="190" height="110" as="geometry" />
        </mxCell>
        <mxCell id="yo_I0r40DUydshJ_veD_-15" value="task.sortIndex = startTime" style="rounded=1;whiteSpace=wrap;html=1;absoluteArcSize=1;arcSize=14;strokeWidth=2;fontSize=14;" vertex="1" parent="1">
          <mxGeometry x="30" y="865" width="260" height="40" as="geometry" />
        </mxCell>
        <mxCell id="yo_I0r40DUydshJ_veD_-16" value="push(timerQueue, task)" style="rounded=1;whiteSpace=wrap;html=1;absoluteArcSize=1;arcSize=14;strokeWidth=2;fontSize=14;" vertex="1" parent="1">
          <mxGeometry x="30" y="940" width="260" height="40" as="geometry" />
        </mxCell>
        <mxCell id="yo_I0r40DUydshJ_veD_-17" value="task.sortIndex = expire&amp;nbsp;" style="rounded=1;whiteSpace=wrap;html=1;absoluteArcSize=1;arcSize=14;strokeWidth=2;fontSize=14;" vertex="1" parent="1">
          <mxGeometry x="650" y="865" width="260" height="40" as="geometry" />
        </mxCell>
        <mxCell id="yo_I0r40DUydshJ_veD_-18" value="" style="shape=image;verticalLabelPosition=bottom;labelBackgroundColor=default;verticalAlign=top;aspect=fixed;imageAspect=0;image=data:image/png,iVBORw0KGgoAAAANSUhEUgAAAOQAAADACAYAAAAUas+tAAAAAXNSR0IArs4c6QAAAARnQU1BAACxjwv8YQUAAAAJcEhZcwAADsMAAA7DAcdvqGQAAB8sSURBVHhe7Z0PbBzVncd/QFuVXbtXiJ1NGmLfWknaEIfGBaz+iRrSRDInlV6vVpQK0UpEl3AIqJQWSuCUCjW61G1oI/WPSoOUSj1kNYpS3RUkYqmEtHLUyikEgdMUYtm1Axf21ikc8S66XqH3+70/u2/evJmdXe+OZ72/jzTa3dnZ+bfvO7/fe2/ed674SO9NfwOGYRLBleqVYZgEwIJkmATBgmSYBMGCbAIGu/vh+C29sFt9Xtxk4PAPB+CXd7Wpz0nmDnjks0fgME033qHmzQ8WJMPUxEbYfctt0HXxSdjx1HbY8dwTav784FbWqHT0wvHeTvXBRQFeGBuDPUX1sY5QhNyZLcLIyXE4qOY1ljZ4dOhT0BcWpF59AbYM5dSHekIRcgN0vHQKPveTOTUvgbTtgR/dsgYmTu6Ag3XcTRZkTaRhqL8fNhTG4dazeTWvccQvSIsvbIBnPpOGMz87BfePqXkNo0kEuWwIDt+0FF6KRZBiY1mY+f12eOR1NU+x/cYjMLB8Ckae2gNH1Dy9fBnrexHe74P1lzG8v3wdXln64Gr1zdsv/wDuOT+qPkWlEw5hnQrGn4WRNBXWtJqfdxZaWaD1MhjLpsZgcLogP4jIlwqMbrvXbYaB9CQ8PjYNx9S8SIJMdcOx/h5cUhMUQeWxdKlPruVcghT7RQG7aO8bsup2eHBHH7RdOA57f/yMmjkPIgjy/j0D8A/XqQ9EQAS1lyv4hOcQJJ7HX355tTiX0ydGYMcv5OwFpUGCdNchXx+HGXzpWmFXVO+AtctJRE+VxUahe8W4zKPF9AN4aS4LA58dgu1qkRLLb4PDIsyrZX8/BVd/+D54ZJn6vkq6ejfDzrYpuPXksziNwQvFThjo74ZB9T1BBVcWZloGp7FJgGw/HOtWUileRgmk4dqU/OikUPQW+IqgyPB6May3idNIPg0bUMRDnu0oMeZR2KVlp+DaXu8x2GgxzuAF6VZbjEhP3ypMOpGVa2GTmNNYtt31Kbj+lRHYcq+afnYeCtehiPdk1BISKcYcPK2Xw+k313wUHu1XC7jQYpw7D4/h8okQYwMJaNR5As5dxJflvV5RLaMreQEmLhoRbW4I7vFUaEfh4B+n8DULa31Co8hpXFGU8DvbN8rP1ULRoRShCnA6h1Ev1V6ONhilNoqCa0TN4jQMT6EEs1nZalkswiXxhcTbopmGDOq2MFdtxTAPuyyhHJyaFMJf3VmOmZBKwRJ8mcmZUdb/WxPaPy3GXbNqpsXkmQkQp/jCOfi1mNNYjv7klFcoeNH7zav4et1yuF/OQdpg2Qfx5dWL8KicIXh0KCwNxmipxbhnEo6qudH5GCzZ+z244TsB096d8D61ZFIIbGU98vIZeNsS1fYVmJbOvQK/rRSi597E3zrA+dPqreQJeAQjZfUpq6SQmw2NXIOdGZRAHs5ZBfcYRjxUA2REtCrCn/HjkrQUSlcbvXbC2g76lAqPnNVgCV+g5lGkPyS2F05Gpd5hYhRMDMO3H36gPulqjUy/YReSOXj9TXxxRE43S0Xq2l2zGInn4dK+r8KLXw+Y9j0Of1FLVktkLVRJcLfH3ChM4MbKaatMV2f+OAS/U3M0VK8UfTF6MuqIC4kW18AtmzHqGZOntbQAFFjTbaQ8FGJnHl7ACKoFSlwqqPpmFchIa27XrCdqMBqKVFuKUi5np7WaTtgg6sEFcQFJFrLv8Blj+pf1/ibaR4dG4LGXsFCRKNVyQf2N6fWroZvevFmoUYyNQZf1ta9hleukXwvzJaQfchR++xoWRJ22inR1Cs45G3kKWLnVdUjaUYquC8/MHAmJGnrKdbnyZDWwpFMwSClkPgd7MIKmMx3ycw0C0I1Ioo5X2p5Mz/0UYM+YWgZTPUpr/XVNgo6DxBv0/UIhG2FEJDPqhkJ4Dii9lcucgjO4SHr9p5yipMaeLSdyVURUF/VPWY88J8v4uRUUePbAx9X8ehEiSIDfnT+BhUimrSJEXxw3Wk4JGTXh4om6tjTVC29qGowULkYpTHGB6ouzOZhJZeBm8bsi5KoSZBpupoon1m9HwtJKF1i/HVSidKfKJF4SNoky5M4damXdfwD23b1FzWggX1guItk07nd1kWwO7t+jRHlNORvx8IsXShG1tjt3GpeyHnltCqvFa+ATtexWCKGC1I07XSuGUHgYBV+270b4E/wPCdFs/KHm4ISkrDA7pSJK+G1nQripHhjAa875vIyq56hVtLcH0sXLAZEtCJkCQ0nQ9L4bjrlS1o7ecmuvQtZ7w6IyNfqQaP0typpYW1lffQv3BaB7TTmKUWuqP2XFSDrUA9vUJ0H/UliDixXekBdEFxRRn35VRtLDX1AzFzEVBKmuBMuz0OWswI7CwZNPiig6oOuPH3kTDiUkZdXp4EjeUY9cZ9QjRdcHvebgtBLCQd3yWXWXB/72rE4t1bb622HUlbLOjsMwrPPsl+yiqXDHD0XScdw/vIjsLLUIl4m1lRUvDp/TqaWqF376jVOOlDUnWmK/pJYR05dXw+yJkYo3AFBLLEXS7s80yz2utcN36jBMLcR6YwDDMOEEde3NExYkE4lDHe8R0452f5H50FVXVPzO9X2t3yWCuVexNp+G9R+uz7ArzVUdSz/0iHrPMCX+GUXw/F9kbeZD77kCMiiQn8+9C/+UvgqWXQWe7+77wJUw/Q7AR993ZeB3+rdPFd8N/E7/Nuy75PAinHzl/dB3423w5TXb4B/b3w//efFF9V3tcB2ScfIYRqbT//suPP32uyiO98DeN/4Kf8WScv17r4Cv/N1Vnu/y7/wNvv/WO7AGhRT0nf7tJ95/ReB3+rer3ntl4Hf02//6q9rJRQgLknHyERTBV1EEml2zZRXY391z6R34v7/JYhT2HUEpqMb+zvxt2Hfmviw2nIJs+8A1UCxchnffWcSXIoZJIAmsLTNM68KCZJgEwYJkmATBgmSYBBG7IMl+gu7ZtG+qDkP8JuBG6qaG/HwCxz/WiTi2wdQNjpAGi1b4TUir/hexC/LgWTkYt+T6xlREZxX+aT6Rjwy2vOurJmthGgNHyCZAX8S06wDZWMrPFYZpBSHSWNvt7lkYhiyntgtMbDcG0FVe+IgqwoyatAWGB5f/KNKz7RtwZ187XBh5AA7VMvjP559qYW+3jn6rLk/Y8rG7PGblOpeYvrI2zuMxt21YT0Ywefb9F/bv1PYuWf+n+L9NP1uxXAbO437kskZZMM9vtf8FLin8cUsXkfBz7Nmu8/wSt8GK72yGq59/AiZ+/rya5yLqctURW4QsXeXFaPdg6I/0+KjiNBJYblbBjavaxbuV19doV0GDfc3t0J9ubNvre4qFuYF+q7rwywjoKiwVoMKnxFHaLg1kNunIiIuE13rSBRV2+7/ACN1J26i1bicHbW+c0xEe10eDrPVg8Wr/C0zZhVm1+v7xKXD8F4Tc7gDoZd0evkkgWSkrXiF9PqqhTMBzE5fFuwt/iMPysHF+qyQmLcba6tcooB48eXgRCLOI3J2hwu+3xvTRkcXIQxHH/C/wGJRTwUAE20onuH/l4yOrFHwhgzE5IzKD3Vm8sGCUM6L1semz0qkhWwqDJcRFLszDNyEkSpBBPqphTB79Jux9uMZ0tR7UwW8VKOr0ds5DjEiqA1ZjZKgc+aIhhesw+CIDMHwxbTKroT77p4zE8jnrwq38jBwCt608j03XmIU0GG7UqRJKK82Wyfn7rZav6LX4vzaUEIMv6WO7UCgDa7qQef4LbztFVN73xX8z7CE3i+wm9bE7jHlfE6ZhUZebDyzIKtB1vPr6rVJaKOtMkSPqPJCWl9qZvXaqf7xCPZFu86KBqfQ/GFNY1cDBX37+r4Y95LMiuyk+/4Qx77vCNCzqcvMhUYJ0+qiqemUQ1Mq6b/8B2FUHv0NRWAPrFY30W6VGLx1Ra+xbVGmyN5VU9UqDY5jmkSS7REoajHDdM60sNaJRqKDsMoMgB3j1tkbC/4vg1DRxbLpXlM99D90OPWpWGMmKkKJ+YlbKO+FQPx5GMejPr0Mrq4G8IHTCRmcHeaP9ViOaIAciG0hKDxFCdq/rhw24Xs/Zw4sDPWxIpHumFSYy2N1bvhhoT1tPyzC1MuNv8lPlrgVdXy4JXLUwq0+1Ev5fqMY0s4U2ofQsvVa+ae+DrRGCRkz9kGF/ktUf5OmLkv1KpzsxVczkGtMPaeHrd/P0fVFXgNnvRfueg7V4bHbfoG899nESjn7I8vGX+9TsPtwydr+bd/9EI1G+o9T/5+mf85xnib9RyT5e1zKItS5K6cVzO83/TC1Tsb/SIPy/INzlytPHLc5xZ2i/t5d690NugV37b4WV+C5KGWXHAIZpMJvuPgBbV16GFw9/E45OqJkBcKMOwzQSrENuxfA4d2a4ohgJjpAM0xCqS1U1LEiGSRCcsjJMgmBBMkyCYEEyTIJgQTJMgmBBMkyCYEEyTIJgQTJMgmjafshoHj32vZj2vZ+KgPssG428V5MsMpI3UJZZGJo2Qkbz6DHGJNreMgyTQDhlZZgEwYJkmAQRsyCpTmd6oLhHx1P90PRJsQfSNhLPtl02gVTfNPctzD2cxuKZy0Y4jtL2+ZEGLUl8ghQFmUawm16bZwGy3oJHDR1rc/p7nKiO6BjdXn8KsKTH9O60PEMFNGI+ii+rEpYaGFs6llwm1DNHN1SJ3zgG7DKLn9gEuTvbA2nfiO8C7DnrLXhkz+dp6SxOwyi1x3RmarC1qIY0pMl0t+TdmYcRYXVh2utH9WXV/rJWq+1ssGcqXYi0GONs6WWSRUyClKZHhdxsTVd96ZTWeGzPUOnrEmxMJXD4slbrL5tRVhUsRiYeQSon72i+o+SToupRavJ608RI8bKvS4UimblvLl/Wrjbc3xBPUy+dsEEcX5gBFtMqxCNIp0WhC2VaZD3T4XFKHReCVDtGurJQtOmSp17o8GUNtzC0IfMrsoAM8m1lWomYUlZpbJvOdIS3HOoHwUwmo0HDa6cf3ZdVWxhGNyOOaAFZpccn03zEJEgscJNYP/O1WqZhaJ3RyqpSRNPEl1oeFyRl7ehVjSz6trYqfFmFp6nD9BjXGdzKSg1G1EAU/FSmaj0+meYj3ntZ1T2jZXk57i1VPpoa8gEdhnXWPZ8RfV592zMI9VslXPe92ssF+7ISuhujhPVsRee9rKXjd/i41micxDQPbHLVZFTj8ck0HzGlrExdqNLjk2k+OEI2BZyqtgosSIZJEJyyMkyCYEEyTIJgQTJMgmBBMkyCYEEyTIJgQTJMgmBBMkyCaPp+SH2/qPPZ942idI+s637TVsO+vzfA+5aJBEfIhiEHWh/rXoCRKrHC3rf1pOkFqQ2TY4uORHEaBtXg5Fiioxjm1QriZjhCMkyCiKkOKccvwvizMJKWNhgSuw6m6iPk/jaV8oxltOuI9ljDMIMoe1l/fVPunxjTWMh6xmN61muPr/S56JVtPoLQ2zbtQLz7rc4B2WXqdavtQqR6sj1W1HuO5blw1X3V76wxm/b4VHtMpwexbIrrkPMg1gjZ1bsZdmZyyi+HfGQCRseTD2t/Bs4bdZN0tt8z2j7asz1kPW4gbXj04PKA63L5vNI2juN1Y0QtS14+nlH/pVSV/FjVPAuysRTbwQJPXjskQPlZTlpQx6anxPemO4Ig1QGrcXs1OfSJ1FZeWPT2RvJ4jnGetgU5KJz1HPYiwj6lAC9MlQ9MGHoJgen9x2OKxSO3dYk3ZfVEFG3rYVhilKAruHGVnc2JwlvZJMvLYHcWCxmuy4xiKKphn9+qQphrlSPHsXwO97KCDWTN5OGc0IbXb1ZbSI5WjIR+tPftsPHbg2fpwtAJG3X9U51L+0Ig/IOKOThdimwoZIzghamzRrTLwy5quHGdO6YuxCpI31VfeOg4CrzPQhELghFdoqFNqfx2jIFCKxSt/ZMRsVFeqf5opfYZ96/6xqIg71tlMNamDxYvUOKCZF4IHL9VEfN83jrnQf8ZUxcWf6OOLTKDaiNu3dFmWDpaiXTVmzZGRnnfirS75BlLk+0VpC9IxoVAiM8blQfT9CNywTPXhVOQRxFTF1q6lTWacXMjKcBpsrJT0Uqkq560sQqU961dZy1NZkNMcRbOGxcCka5aUVlaWVInv2NdOLHDemNYUEFWa7lfHd7CbtLY7WrsVNGNbNyhaCXT1VoftxB1exJVfxfnRqar9mMUGpearoJtDx0Q/rK72MrSx8IJMtUNt4tGg6ka6kvR0IV9wGwVjGG7EuXjWrEBRDbuUGvuhlRtjTkSLbLeaDcQiMYdFOM6TFeLDvNn9ZAjn7fsvOmGa9rlu5WfZMNnm1j7IW0f1Uh9cE7c65PYfWz+Zf3bDeiDswjrY/T3bRL2fZ4By+m+vqDt2/2fBr71OZd1318a5T5g5zGbreUh++bqpyV6tn0D7uxDVV4+Az/91jD+24wmVkG6zIQZRAky7OaGRcWq2+HBHX3QduE47P3xM2omQ7R0o05SkH2AlZ8ZsjjAOuQ2FCNMw69YjD5YkAsMpYQDnZhSjoel6IsDSlX37b8LbgBMVR/+IbC9rB9OWReI8v217vod05o0/QBlhllMcMrKMAmCBckwCYIFyTAJggXJMAmCBckwCYIFyTAJggXZSOg+TzGOsGyhwTBhJFKQwstlAQoxddYfd3n8MExMJPLGADnCoOhwRmss4u4ZMsRyjTSx3dd88B03zPzhlDUqs+PGiHlyzMN5NFzKmMdiZOZLrBHSN7bOM/4vbIwj4fcSLd8PqvCNJzTuoQ3yWw0bz0c4x/QZ/rFRxi+61iEiLsDI2GXYKJal45uCjB4/GXAsQX6rzOIgNkFKMYInrRMjHQpjvjGAUVJW32+1CAJFXi7Arn0hQlNWDxUEaRC4TmUqXCgWYXQsB2vpwlEsAOTOwjCs8x6/OjbTKFlejFiUi43YUtauNowXloETmQrXOiDX91tlOeHy0BERyii4jfVbrQY8J7mylUgacoanagoyav8i+a0yi4LYBDkzh4Up1QM7G9iKKbbhIma/1ehYvqdOy0qHZ6qgGlMrplmITZDCYp9cr0mU2uNzXpb0lI6q9agp7JkaTUsVfqtM8xNvK6vRUimejVHzcyJU3VCkorqVUz6LY9FRjd8q0/QsWLcHPSxHiDKd8qWw0qS3XIfyIZy2MUWdrNT4Uh0yrW4PaeldCGpITTfdK3xP9z3ENovNRkyCpFZJ+84bWTdy1puUSe+GbED0FN8bFvwItTrON2WVF4KkNZRU6beK9Cy9Vr5p74OtbEbcVMQkSHrsNTXtm3Ug9dg0V8pFjS7iKUuY0hrLlwTt+H7j3Nj8U1ZMqWkdnvpaDY1Q1K2ify/6SY16c01PQaZUXz9GT61HTm4T48mjp+CCes80F+yps0jZdPcB2LryMrx4+JtwdELNZBLPgtUhmQaCdcitKwHmzgyzGJsMjpCLii2wa/+tgFqECyMPwCE2Pm06WJAMkyA4ZWWYBMGCZJgEwYJkmATBgmSYBMGCZJgEwYJkmATBgmSYBNEigqSb2+X9n4c61KwkQXYedG9qQi0o6cZ92r+a7sNlqoIjZMOQA6i5EDPVwHfqNAw5iDpZT41W5lxhQyt9bndMnLAgG0YSBWmhnO/Y4Dk5xCtI2/3buhpLe0ZM8SrOl4Udxp+FkbT6TmDbItoRIchd3BBPkH+rxufj6l1naV8DICuOkkArnA8Pvu36LSCFNSTgOqZSnmV9x6CpIEhpNak+IP71yPO7OjcGo239YllxfKVz6D/f9vnxnA8mvjqkGLQr/nztBzMOM5anDhlhSa+dbHngLRbE2x0iJbp6N8POTE756pCbeCcMeBpGaGC02h4NaK6AGJhM5sXKr4YGK3f1moOAUbj4/bD6nqaRfBo2YKHUywgzL/Ed2TTKAqeXpclT+EoeQ8oJPQBx7lBgl1AQej0jeTxW1wBlOqf97TCqlvMfQ3TIZkVsb2wSz2QImXWgB4in8f0xcQ7p+NOwurMsPunqQH6z5fXSoGuuZ5eJSZBYeFBUhamzxtUyD7vEqH9DfMjBs1Q4sZD3krDwCtwrPUkfd0UOjyO4srpIZeDmGgqfoKJ/K+6zZXh8cIoKq7fg1Rd97rw+tNKX1WVzQlEpXg/adKoIo/pCk0rjhaO8/ZIXEF5YN+KuzhjfkfPDsHBoyPLTwRTxCFKYUlkepITyzvEWFhTWOBZyYXtB6SYWsHG3mZXPq9S5viqoxb9VucI1DGXodalgx6g8nKNrlG0SZplRxwKKvpw6F4Qpl81gZwb/Gdxn61xWNDRrMWIR5CAWGqpvbFB9gaXJUycyUFdOwhtVFx6RPprHgHXPxrvUuQu5IHEueW6Ecz1Fe8+5w8msQzPxCFJeBSmVUnUHa/JFoI5eUfGfyedFvS4pnfm6QYIaN8r7L+uKCwZmBQu6/YhIV3lqiDLPnZ64lVcTT8paVSpJDSd41cyPw66zU6Kxo6s32sNbg9Ki+pCGmzN4lcd65kik9dfJ6n8252sckQQ9YiCZVJ+aroJtDx0Q/rK7WsjKMiZBygfhVG7to2Z0SgHxSioacVR9klKdSg7nqjW2MFV+eE19KUCOLvJmoxF1RQSmrGp5q9GqevBciIaPdZ717F4nz1OpMSXpzNLFlaotUZ+M3Q3XtMt3Kz/ZOobPsfZD2n1QAqOlVPd72X1Tpd9Z/ZC2ECr3GRp4WmjV+sL6AQV2vyalYOpRcs7+NHt577HZ/Xwm9rH4zp1n/yViffaj79Q5oC4TV9UguB/SfY4lug9UHZ96LJ/cR/2YP/c5dR5zwHnv2fYNuLMPVXn5DPz0W8MwqeYvZpr0Th35Zyf6Lhhm/qy6HR7c0QdtF47D3h8/o2YubuJJWRmmarAOuQ3FCNPwqxYRI8GCZBIHpar79t8FNwCmqg//EFrJXpZTVoZJEDzag2ESBKesDJMgWJAMkyBYkAyTIFiQDJMgWJAMkyBYkAyTIFiQcSFuRE+oLyyTGFpCkHRDc1JNiBnGhCMkoaKXZyS7nioN+2JKfOnzH4MjX8Hp8x9Uc5hqYUESyjuHRq+Tc5ocXqRGs4cOx2IEvT1CiL0Tk/AnNYupjYUdDxkwDq7ycsY4PMuDtDTeMGwsJOEYT0jIbZNVoeGOphDfke3kWBEGjLGC9vhNiXs8od/b1F5OjzVUlI4j4nwizmFLS5fBT7+YghPfn4R/hw/Ct7/SA38/Mwnb/+NNtQBTDbFFyPLgVe2jgtFoLms1cpDQLO9OLGzCv9VVBxTzM3De8F4tefAYUU94vZIAS+vEySHGSAg3vCz82bVNjUiB5c3v5e05vE0dy0m/VWNUPR2H8JTthI0l/1I8T2SP6RIj0tO3Ctrozcq10HD3i/9+He4UYmTqQWyCFK5jlkUhmQp7okVHVto+Gr6iFDGEfysKYcDXQkkF0hjtLvxnAJakA+NiXZgZD9/m7iyKBS8AwxVGoriWk36rpviQ2XFpQqxsPAa71znOU5nJMxMwR28unGupoUuLgdgEKVzHKLqEtHbuzlADShFytp1EkNB8jmsoXowyjR2SVclEK6r5VNBybnOsY9NnlScNZRC26bTFxDB8++EHWmaU/WIiNkEKi30V6XaGtWCG2BrO28EtSaRSsARfxOMLzFZdYQ4tF/GiDb+QCNG3LqzeCau+8z24wTN9TabDTEOIt5W19CwLVa+znu1RicJcUEhoQpTjOTUI6XPimXyNXZ1wiBpx8nmYoYtaHN0x5x+Hia9/FV70TN+V6TDTEOIVpAE9yEWI0rDCP5ijCOp4NkfQowgiItPluBy+3SmnqC+q95LqfFu17eMI1jHJFpIuZoF3/VAr6/4DsO/uLWpGkmhNv9WoxCRIaj21/ThlHcrzPA3t3SketKPByCCMk6eC60wVkCa9VkNJwyjAaTJkNfxYqYV5IF2wWlnVw4FQWJWe/iR+j6dAP6hG1ieDDaRjbWWtmtb0W41KjP2Q/n45d/+d6mM0Aod/ObUMuPsSXchuF6Pgm/2QYX2WRh+oXIfdRymPy/b38fiPinWAWI6eaVnZO5ZaUFVLrn6GpLm/RFL6IXXfo/pk86cTz8OD4+qDohX9VqPCnjpM/LSg32pUFqwOybQqrem3GhWOkExscKpaGRYkwyQITlkZJkGwIBkmQTgFOffWG5yuMswCwBGSYRIEC5JhEgQLkmESBAuSYRKEsx9S0LYHfnRLH1yNb99++Qdwz/lROZ9hmIYRLEiNEiawKBmm4VROWeeG4DcXAa7+QND9/AzD1Ivodcj26+Dj6i3DMI2hfo06m+4Vo8Af3LZKzWAYplrqJshN13eL17ZV/TwKnGFqJJIgp9+yR/X7+fUfpsXr3MQYD6thmBqp3MpKLBuCwzdlYeb32+GR19U8hmHqTjRBCjbC7lvug/VtwMJkmAZRRYRcCi+d3AEH2ZSTYRpGpDrk9hVZrBy+Ar8NE6P2An2Irf0Yplbq1spa8gJt74OtbIDLMDVRN0FOHj0FF9T7a5ZyXyTD1ELdBAnwDLwsFHlZPA6NYZjqqZ8gsQ758ZX4euEUHGU9MkxNVBZk2x749HKAt18bhd+pWV62wC5qzNnRB2+M8DMJGWY+RBoPCRefhB3PPSFmMwzTOKq4MYBhmEZTx0YdhmHmyxUfvenTHCEZpo70rFmv3oUz+cpL6p0G4P8BN8fYf+h4/rwAAAAASUVORK5CYII=;" vertex="1" parent="1">
          <mxGeometry x="690" y="621" width="175.75" height="148" as="geometry" />
        </mxCell>
        <mxCell id="yo_I0r40DUydshJ_veD_-21" value="Y" style="text;html=1;resizable=0;autosize=1;align=center;verticalAlign=middle;points=[];fillColor=none;strokeColor=none;rounded=0;fontSize=14;" vertex="1" parent="1">
          <mxGeometry x="330" y="850" width="30" height="30" as="geometry" />
        </mxCell>
        <mxCell id="yo_I0r40DUydshJ_veD_-22" value="N" style="text;html=1;resizable=0;autosize=1;align=center;verticalAlign=middle;points=[];fillColor=none;strokeColor=none;rounded=0;fontSize=14;" vertex="1" parent="1">
          <mxGeometry x="590" y="850" width="30" height="30" as="geometry" />
        </mxCell>
        <mxCell id="yo_I0r40DUydshJ_veD_-24" value="push(taskQueue, task)" style="rounded=1;whiteSpace=wrap;html=1;absoluteArcSize=1;arcSize=14;strokeWidth=2;fontSize=14;" vertex="1" parent="1">
          <mxGeometry x="650" y="940" width="260" height="40" as="geometry" />
        </mxCell>
        <mxCell id="yo_I0r40DUydshJ_veD_-25" value="" style="shape=image;verticalLabelPosition=bottom;labelBackgroundColor=default;verticalAlign=top;aspect=fixed;imageAspect=0;image=data:image/png,iVBORw0KGgoAAAANSUhEUgAAAnAAAAHFCAYAAABy/MT4AAAAAXNSR0IArs4c6QAAAARnQU1BAACxjwv8YQUAAAAJcEhZcwAADsMAAA7DAcdvqGQAAJI/SURBVHhe7f0NcBTXnfeLfxPnWYNG4vImxKtkCQkbkGxkbBkvVMA4G+BevMkTyoX/Lmfrb55rsntjUkVusiZOZcuVVLw49hOq4mxtgu/iqrXLZcpLKom5BdqNMfYDa0fYFjECwptkCfEihAFLGkGy2fU9bz1z+m2mZzQjqeH7qWqNuvtM9+lzTvf59u/3O2c+c1v9XZ+CEEIIIYTEhs+aT0IIIYQQEhMo4AghhBBCYgYFHCGEEEJIzKCAI4QQQgiJGRRwhBBCCCExgwKOEEIIISRmUMARQgghhMQMCjhCCCGEkJhBAUcIIYQQEjMo4AghhBBCYgYFHCGEEEJIzKCAI4QQQgiJGRRwhBBCCCExgwKOEEIIISRmUMARQgghhMQMCjhCCCGEkJiRu4CbeBdWPfQwFs8262FETTdqmIB5DzyMtctik2EyJFjfuWHKa5ju6XELvyTOtRwzzTohhBA3OQu4cdUzMC55HIdOmQ0hRE1Hrh/Y6RJCCCHDQ44CbjYa6hLoO3sKfWZLMFHT+dEiQL/pBy8UCIQMP5dx5PVXsP3VV7CfL2WEEDLi5CbgZlcJ8ZREZ8dlsyGEqOkC6Hv/V6qT0Mtv0S23ndhlbdujthFCCCGE3Kh85rb6uz41/2dBxsCsQkP/b7F9b6ZX8KjpojAbix+6B+OEgNv1frAYnLnsYSyealYk54PPKy17q+oSZk3gSxeUb31+afGTItLOg/e83v05IeMFvzgH48wqhPg99K+/wpFLZlUyeznW3l2mtvfdbp/7PPb7RG0635qgNDngy599PO+5vPjPnb0urHq/0iiuO13Q3Qf8FiDv8cLqwtdWJCHtJTve6/bXmTofxPE/nOAqv6BriErU9p4NJ2+7+ut12cnjWPlM59HcF6niDWibEtVGZqDT2z6Tx7Hr9ffyssSvqusXbacTVVY5B9dtxDyqe8hVeL62WYw6I4SQYnDT5CnTnzL/Z2ZiPe6aOwm9R9/G6Uw6JWq6SExEZf1M3HzpJE6eu2a2pZEP+TkX/gW7/tchHG4Ty9mbUXnHHVg4eRCHP0qfXHcGEA/1f8HeAzrt6Umfx10lx6w8jkX5rXWo+OMZ812ng5YP+V/jA+v8uhPV29+R5xXLtVtXYGbfMfReNYkiI87zhbF47xfN+MAc65PJC3HXHTX49Kx1vInVqJ8xERWzG1A5IDqYnW+LtN34tLoRd916M04fP4s/qHSiI/3SHbhZdHS//LcD5nj3YvGicnzS1pFzR+qIN1jHO3x2EhbfMxYnVTldxmmT79M316Bu0iVXuRx2nVN2tF8RZWenGcT4Rffgz6utazD1Xj6pTlzzQCqtPP7Chttc5SLrYnmVdTzRBuqaFqHu5m6rzejz3nWzEBOpcpZlZ9d3DkghsOI2V5mcvvk2LG5aiPFXxf/mcONuEXU1dSbqZ/8H3stwDVGJ2t6joPJWNgEVaMMvj34O9bfOEnkdh869b+DC1DrUjXGOeQ29x835rpaL+rgZF04F5H3sdNTNnoZK0T7Hn3PKRdTtnfnl7+bpt4m2pNtBnxBP6prF+Rc2zPGUnbxPl6HuknNPOHXhKWPZjuecxy9NmtS9c6f7vkjX2RgcN8+LodQZIYQUi8gu1NE4eEG6W11vxZfew6Hz4nOqdOGmGVcmXs2TZ9BtvZH7vutCdviOePNariaI44mP852u7d17A974I3EK+z0Wiu4Pj4v1BKqqJ5gtaZQ7OWVxuYzus0kgMS5lKZh5+xxV/vstK0X3XumKnoqGhf7jZWWCPLbHHS7KeVc+VqvZjWhISOuIXabi+g+ISkvMQYN3dKO03ljl39dxRpXLBOcyRKfcMFVaR6zjibztP5HEuLrGdBtwzrs/d0uQH9E25omTnv+tyxLU9/7bOCSqYua8u1J1oXFfr+8aciBqe4+MuC06P3QOKFbOvp1uw0Lcua8jIq5yOYVOmb98jyVwWb5OyXvOfV+MW1iv71OrPeq6SKDhdqtB+drsZRw5ogoPVb5RtW4LXt/7bb7zEkLISBNRwBV/8EKh6OsXvagHtU0IhFUPeDvXIBx3TJB4k1wWxxMfU+8p3hQUl8Q5zL9e+q64LRk6ZtDJ52xUCW3hL/9LuCyKYFzZRLOeA5f7lOBo+OKXMC+Pr9vMnCXdV/3o8wpd1TGL/I33dJD9nnKQnbAVRK9eFkTn3Wn3y4K+K7KCyjDO5Fed1yPg82aiKGOhdfr6vQfzi2lFoc4bQlB7j4z3pcbTtvKh+7SnMoaEv27dTMDM6aIyPC9TqXs0m3BUbTsAX50N4f4hhJAiEU3AqUEJ53EoIK7IRdR0BUO6T9yjVF2xVQYlcoyVR85Np9KGia+pc3QsTTLk4S7o3vsKdp0QT3Qp4pzz5mPdMkjXmHMcvWSKKcvARN1hjatb5TmeHR+UI0o0SQueFHHO8YYwEjhDuebaQSrLKqb62oA7zqk4hIudtHAsPNHa+43DRExQTSB9HzqLL9ZRIN3trnSuuE5CCIkXEQSc4zLyvuV6iZquUJgYNeVmc0aoGmEVxKk9qTT7leckxIImg7n/9Tj6sljstOVLHm+Xcp1J0ZSPiNPxeQnlKnLy54y+zRljuVNu1tSxrCUft6fiFPY7x5BCWImmwk/n4rdqZUZbn6Sl1LrG1JKvS3uoBFgYC0KO7f2GQFvG1D1rlUlqsUITdNyqdI1a++V9bvYTQkjcyC7gjMsoq2skarpCoax94nxHco9rkhY0JeLCXCzS6uRY7LK6SeX8WEbE5exiMS6ggsUMDoOrRwphJeL8liav69JL92lZpjMw07s/z2lnsp3PQbvQPa5NFRdn/s+FS6fQKQ43c5a3XYS58wrEENr79UtEV6kJLcD5tvxE/XA/2wghJAJZBZwTFJ9NYERNVzBM/Irdkcq3bL9LSca0ea1F5oHujbGyEULFcZO6LWuzsfgBj2UuNC4qG6YDskWNHC2XrwtVikkZmO3Lc/5IC6H3p5NCY9mceDk7eNzmVKsOLl9sl58oT+nyzKdzdY73xczWQD1wwBrEIcv47jL0ierNnXQZ2+UybuHn9UCJ1KCAAhO5vd9YqAE/WV+0jKXOHuwhRxJHcqGK58fiYX62EUJIBLLMA6fdNpnmYdNETZcrWY7rmddJug734/OiU5PzR9kDEPRx7E7eP5+UGbzgmb9Ou17EP9JN42w3U2vYD//854ky5031w9IlqOe+cl23udZI5wnIH8LmxopAqgwcpBsvbG6vrHNtea83qC5MfdllngFf/iTe77rypfME+T0551c+ruWs12nyVeYpK1M3cmqMnNtL5PaeHVfeXG3L1A/MvsC2ZLDbQch1BZZBBHRoQfB97H8e+O9vifte8aSRed8PLPbkOVJbIoSQUUBmAace7MjeOURNRwgho5h8BSchhAw3GVyo4k18VA5eIIQQQgi5scnhp7QIIeT6hhY4QkhciDYPHCGEEEIIGTXQAkcIIYQQEjNogSOEEEIIiRkUcIQQQgghMYMCjhBCCCEkZlDAEUIIIYTEDAo4QgghhJCYQQFHCCGEEBIzOI1IzpRj67J6TOpowZrOvH4NnZAiUornNi9G45WDuH9zj9kWV8bjmW/U4BazJvlozwd4os2sGJYsnYcNd4wxa4L+s3j+xfPYZ1YJIeR6JPYWuDVVTdgtBNVGs04Iub4Y/N0RrP3JB2rxijfJvrfS+3d2mY2EEHKdQxdqkdk4/z4hMK1lfrnZcyMjrUQr8MZPxbKpwmy7zvjKAn19octiPNdk0hJCCCE5QgFXNKSr9T6sSLTjhb1vYqVcWtqRLK/H7qYqrDGpbkiapmBO6QBaD/UAM6fhW2ZznKl58O/wg+88jBqzjl8cxP2PN5tlP1oHxLZu97ZvteikI4XK89OPY6lZJ4QQEh/CY+BKN+EfljUCx57H10+4o0kW1W3D+luBQ3vXYYvsmCQm/VizCiTd+wX6exfQvHMnpi/bgIZSs2OgFVv3bsa7ZjU7Og6t0qz56UXz3jZsMWsSaQlbYRu/etuw8nCvWUkjXbKPVSfMmsCXLiAGrqQKO5pqIL/V1fYm1l90jgMcbGnBpkGdTDFZCLj6ck+6QU9+w+LsEtjc1IQFJWZVlLH3+Lkdz1uO/nJLUfswnljXiNLTu/G9f3zDbMyPB7+2GH9dfQ4/25TEqp8uAPY0Y90vzE6FFce1J4Ff/1WdKltJ8tB+/OXPnUZVgW3i+5Pltt5avLE8bc3rDDum0+YErmNJi5n4vvv4mm9tWoFVM3uw6/GDeM5ss1n6N8/iC7NkM/45nnntpNlqEyEuzZw/Tcj5RDuzy8OfLuhcupyqxH/u67sf659eiVnox4fbvo/ArI8oOgZuyu+O4NG3rpltmfnql+/E6gkZYuAK2I4JIWQkCbfADezDSfGcHztjCRaZTZoluHeG6D7O7bHE2SN46i7gpZ1rsc4szecSaFi2DRutDlNTjRWrN6D2zPMm7evoKm3E+oWPmP1R6MV6Y9V6oUMKEik8jJVLLW4RIkXN3B5rv2MJ87gz06IrnfaFgWpsnWwSBOGIt0FtaZOiTAqtuytEGfV2uMWb5GIPZJhOZUWurlQptoR4SwpB6eStA1ggBN3mlKDLAZlvI+qc4zX3lmOF2BYUT1jTWCukgWDW3CFabEpxT3Upkh0X8JoQH0e6gao5IW7UmULU/NU0HP9nY7Xa04NEw2Js+4rZb5Db3lgOIWR0up8dGkDVcreL8lub7gB+4Vi/0sf69ddMA/3FSWUlS1RPwYN6i6EC82aKj+5zAeKtFg9+R4u3083fDhFvEZCibM65dN6Uxa5CiVuXddKINwgRlkr7z334fEY3tCPepNBr9ojTN7D1yZ/jw/4y3L7uWay/AUxxhWvHhBAysmRwoe7DO2eEOCqdg3ttEVa6BLVivevMy2aD5GU85bGgbT/WiqtCyNROW2K2pOl6b61l1XsZR8+Jj7KZHqFYOHZ0thhhZRjsxD5pVCuvcImVylIhugZ7cMASXb7vuhCiyhFvLZ3YYbaiZDLqhKhKDnjVm2QQl+TmRElObtQ1VdWolELVsgbu6DyMg4MJLKjOPa5uY7XO9yuWRW7L4TYhLsuxpCpt33Fobz0J1fWfPoq31JY8Me7T48qnCHReFp+hblQpOixX4y/OoVN8TC63G6Rg4AR+ZlmhXms9h6TopidK4WV4brPHZekTbAP4bYfYUDoN99ixaV+ZJsTPAFqF4HMjrVdfw+1lnfjNk9/G1qEUinih+EuXZW5A5FWuC/Foi9WZ48QdlS47he+7NtIa54i3YOshcBKv/f238ZvTQtOseBZPPFhrtufGnz30Q9z+ox+HLD/EJKE7RwMFa8eEEDLCZIyBe/fEHtGhu0XYomlzMBYdOHrebAhjoFvIjSCS+MTqfyTb31+LdTm5UIdO14DtStSobSU1eCxSjNpk7X70irei4Fj0ejzuzSR65GXkKAal8JwrNF+y56In31pcJkoDTHonX8EzQqgM2X3aOA2JgXP4rRFTWmx5hIrDQJ8SbGl6sM5nRRJcSeI1869CihqRzu1C9TKA81fMvwZH+M2x/KzfktZBK78K6YaTrsf+Vrz45E+LIwS6+0RePKhtpWj8qygDIBLGZZxJvKV56x+/jRdb+1Ha+DX84G/uN1uj88dXv4sP//abIct38fEJk3CkKVA7JoSQkSbLIAZtHUu7UbX79Oqxndiu1tPI+LZtq7dbywMZYtSGG+l+dI8GdcW5GaS1bWWbkJ1SxDlpQ0aNJqpr9PUlB0PFW6AQyosSTJSHkm5f6xrk4orri0pJCSaJj0S1nILFPp4dX1cMtPvUJbhaLuC40GNVTTUe12WBke5Hz0jQVZaFTiGE39vdslwcq5x2n3aK7bZAXPoXjeJKCouMs7Pz9oYrzs2ghOlBIWqliHPSetysDjPrdLyfTwRHYNZi5GmII4QQMkxkHYW6/UxH2o2q3KdJnDwXNKghoVyjTgycim0z+0cWE6hvYtTS8WN+C5ziYjrGrFm5Wf2xcpKkjB2TYi9o/+AgPjb/+jFiLIPw82PcrnJAhXUNqSVXC6DJn7qGoOMFDO4oCMp9Kj5lbFtKrJiBBV7XZSExsWMJ1yjQZuwSYs3Lc8d70nlR7tMeHPFY8qS16ntP7sbpskY8+vTfDVns6EESA2h1Yv3k8s8n/BY4hbZCqjTKrRsQKyeR1yqPUVqHv96cXRzLgRiPNpapgRjfezL3AQ1xcaESQsj1QlYBh/M7cWhAu1GV+3TgON5xebDMoIaBVuzO5lYtAjuEEJKiqCLMcjS5QlnKutpzd3NuOWxEXJiLUog9JQSFiNvhihvrxVEl/twxdhIdy5bEwY4MIsnkOU2+rlKD73gZXKVhKLfhs3m51xyU+1TFY1lCRS5KrLhdl4VEnzcoji0AFRun86Lcp4GDFySFGgDgDJI4mfu0InKqEnVNCUwNEr/SYif3SxEXOtChMAMxYuNCVbGLoh1z+hRCSMzJLuDMYIaxM1ZjpRBqXb/3xqrtw9l+8WEPdpBTigyXC3WwX3T+GQL51X73qE85pYjfhSqn6PCOwNSxYpmsZdLtKkWedEfao1W3dLSL85ZjhR1PV1KFh+V5rdGpWoCK8zjfNdOMeFHHk67dLBMBRzteEpvaRaZ9wjOcoY/eM+7TIEFk3Kj+EaCF4bVe2QJsgSiD+wNcqAo9mEGOUFVWsYyirxADAJK4JF+I7IEcckqRABeqnH7FOwJXiUxxjPNh4k+IPDkqV1o9UyNuUzgDMeQ0IkMciBEXls6F0KqCKiyin5gQEmMiCDjg3XPHcbW0GpWlwYMXtr//vLLSNSwz8W/LxuPt4XKhDnZijePKTMVyWUIsYP+SgZYAF6oQNS09mJs6hj6OmmYji0txy+EWHBS6qbL+vrQgkufd24YuO56uqQbwHs9Y8eR3VZp6oHmvPp4L53iu69SLa5qTqMeTruKWdiAgDi5oWpIhj94z7tNO6aL0ETICtFAYEaOmGzFu24ktwS5UiR7MIPAOXgghNQCgtik9kW9kBvCtTTKuTbpCjVu5qQ8/C3Chvvbz/Tgyx3E962XVePcI3CDk9+S1quu3LHE1Dy4WYkaOoh2Nc8AVibd240P5wikonSxnxiOEkHjCH7MfBkIn9SWjExMzJ+db8414JcNIESbyFchfoJDxftJlfENYHQkh1yWRLHBkaOzo7FDTsaTdvPoXFfKagJcUHSdW722Kt+uQ+/EFId7Q34rfULwRQmLMTZOnTH/K/E+KxiBev/Ap/vucW7Hulmo8cssMTL1yHP//sze2OW7r5M/hgZLPovwmoPWPbkPw9Js+g/856XMZ9wV9N999EpWf/34HvrhwAjr37McTR80OwXDnJ1teo+bn9cH/Mls1Qznn8DMGf3HPBCR6evGrzj+ZbZm547ZpmDO2Hy0HBzwhHHKwxnfw//vfa3FT68/xg5+/hctmDyGExBG6UMmw8X+WfRb/T78WFNM/9xmsTXwWvxEC4+v/20147w//5dq3QaS9IFZv/W+fCd3nfPevL+rOPWif891M+yT/46+X4OF6Hb/4x3fewI5fj2x+/n7CTaH7nO++MhC+z/nuPWM+kzGvUfMzMmgX6i1mTfLRng/wRJtZMSxZOg8b7hhj1gT9mV2ohBByPUABR4aNn03+HA4IUbDr6n9hw7jP4XuX/4Q/idY3T4iibwjBYO/r/c9P8ZO+/8QcISzC9jnfvVeIlLB9zndr/9tnQ/cNd36+f+VPGfMqv/tQ4qaMeZXf/fEn/5kxr/K73jLPNT+OGCWEEDK6oIAjw8ZtQhR8U4gCh/WWOPDu+/rH/4n/+FQ3zUz7JNL16eDdZ3830z7JaMpPtrxGzU+2vGY75+//I71OCCFk9EABRwghhBASMzgKlRBCCCEkZlDAEUIIIYTEDAo4QgghhJCYQQFHCCGEEBIzbqhBDPJH7FeUA8mOFqzp9P7SJCE3EvIH/Rej8cpB3L850w/2xwHOF0cIufGIvQVO/s6o68frCSE3JIO/O4K1P/lALV7xJtn3Vnr/TvfPNBBCSOyIvQVO/1D8IJr3tmGL2RY/yrFViNBKsybpansT6y+alRsWYyUqFf92Xw+WIj8Pfm0x/rpBXmAYPdj1+EE8Z9YKx/VngSv0j94TQshohjFwI83kemVBnNTRgpV731TLCx1JVNbfhx1V+qedbliapmBO6QBaDwmBMXMavmU2x5mlf/MsfvA395s14LWf78f9jzeb5SA6xbbkIfe2wou33FB5/s7DqDHrhBBCRp5wC1zpJvzDskbg2PP4+gn3O+qium1YfytwaO86bBkwG036sWZVdEPu/QL9vQto3rkT05dtQMrwMNCKrXs3412zmh2/xcpNr8si58S+OQRZt1QatOGFgWo8Vi2EU28bVnaUYEdTDaSM8n5HW/7SAssfV6fzKIXZmmQ1dtenM5A+VgKbm5qwAO14oaUTO9Rejc5z+jqCLY3WOVznNsctMauiLg62tGCT9dv56vgJz3lLqtT1fuwrH295u8vXpubBv8OjjWU43fxtbH3LbMwTZZ2qPoefbUpi1U8XAHuase4XZqeiAtvE9slC8Pxlby3eWF5htgOdrrRR0wnE9f/6r+pUnWuEgPzn/fhWi1n9ygL1fSmy/vLnVuMWfGvTCqyaGWYxkz+m/jXcXoYMZWPl03PsFOb8aYLP57Ps+SyYQRY4ff4q8Z/r+mofxhPrGsU3OvGbJ3+KIVZrESiCBW7p4/jBiirxaPo5nnntpNlICCGjh3AL3MA+nBTP77EzlmCR2aRZgntniO7t3B5LnD2Cp+4CXtq5FuvM0nwugYZl27DR5x2qxorVG1B75nmT9nV0lTZi/cJHzP4o9GK9Za3SgkKv68UtLrYcNttb2oWUyUCiGg+XdmBlW6/QLNXYUV+BE0L4HBTCp7IiLcCk+NFiKn1cVDcFWswSYvvueqTSautaEzZLcVUyGXXis6vdLd4kW3pEHoRwmjtZr0dHii0h3pJCgKbOCSwQgk6dM1ekqPNYCJt7y7FCbPPHHdZiYa1QKIJZ89JWpvwoxT3VpUIYX8BrQqQc6Qaq5tjCJU2iYbEQNRBCRlutfnZoAFXLF+O5JpPAkD2dEDBfEe3Y7JfLru5SNP6VleYXJ9Eq2n2iegoeNJs0FZg3U3x0nwsQb/dj/dNSvPXjw21DELZSXM45l8rb/Y/vF3mpUOLWtk5q8QYhPNPX8bPLterawnHEmxSEzW4BefIVPPPkbpwWe7/w9N/hwVqz/Tpm6TwpY0UrrG2i5ZEQMirJ4ELdh3fOCLlTOgf32iKsdAlqxXrXmZfNBsnLeMpjQdt+rBVXkUDttCVmS5qu99ZaVr2XcfSc+Cib6RGKI4AQOCc6pHCSCDHWczhttUqUYI38FIJmidByXW2WSBzsxCtCmCWqq/2iZrAdL1iCckdvjxCRCUwU51pTXiH+S+KSZRlLMdivxOakhF8UZmJNVTUqpaA97FyHOGfnYSFCE1hQbZkhI7KxugYJcQ2vWBa+LYfb0CWE4hKfYD2J90/2q/9OH3lDfeaNcZ8el2pJ0HlZfIa5UQdO4GeWFeq11nOi7EoxUQoqm6zperBuU7sQjGme23NCpZmjAvEkA/hth8hL6TTcYwvEr0wT8mYArXs88WTSevX0Sszqb8WLT34fQzLmiBeFv3RZ0QbwrRa5LsSjJc6qJoi8DpzDbx2roUC6at3WSxtpjXPEW5jL9g1sffLn+LC/DLevexbrl5rNOfJnD/0Qt//oxyHLDzGpziQcYd46Ip3ZohhPtkC8nhFCyKgjYwzcuyf2iI7aLcIWTZuDsejA0fNmQxgD3UJGBJHEJ9bLvWT7+2uxLicXapEY7MEBS0x9nPTb67To6sVRjwt2R1J+sQQVXiuX2O6yrgmxt2ZvsQYoJHB3hRBVQiS63ZtJ9MhLcURoZMoxV2i+ZM9Fj4VwUInORKnfpNf+2vfxvScL4D5tnIaEJUK02HILlRRXki7RpYTO4153qyBqOpuWJLxV5Qi/tKgDviWtgx7RpNxw0vV4eje+9/evFEcIdPeJvLhRYre0Dn+9ucZjJQwiYQaKZBJvDifx2t9/G785Dcxa8SyeyMMU98dXv4sP//abIct38fEJk3Ckeeunqh3TfUoIGa1kGcSgrWNpN6p2n149thPb1XoaGd+2bfV2a3kgQ4xafKkslVYn6UK8D7vtxYpxyw1tjSsMJfpY5XJghDt/dgxgZEpKMEl8KDew63h2fF0x0O5Tl+BquYDjQpdUNUURJfkj3Y9v/HSFteiYMBdC+L3dLcvFcaNq92mn2J4WiLV48M993xwyMs7OlT9XvJ5GDYyQlkAp4px0m4Ldz5hZp0f5DvSpARS5UNq4Enka4gghhAyRrKNQt5/pEE9q40ZV7tMkTp4LGtSQUK5RJwZOxbaZ/dcTXQPS3uGNuXMW90CBbGirXQglZapjDrIChqMtY2oARlD+PAMlsjI4iI/FhxygEXg8y01bUJT7VHzOXGCJFTOdiNd1WUCcwH85sCEdZ6ZHhnp57rgUSCYvyn3agyMuS562Vn1vWysGZq3ED55+fMhiRw+SkIMqrPz9s3TxBvCLg6k0u4TYVGUZJOLk4AZ5jEgWOzkQ41l8YZYeiPG9PAY0xMWFSggho52sAg7nd+LQgHajKvfpwHG843KBmkENA63Ync2tWgRCXZdFoqDnu9ijRK49QEKTwOYasW2wHc2ZXK2TKzxWznxdpRrtHrYJd5WGIUeh/uDp/GOkJMp9aoLpU0JFLkqsuF2XhcNY/QZOYFcml6qDGsyg86Lcp4GDFwQFGwDgDJI4mR4RG5HnNhsRNz4RLNCkK9mx2IVZ6go0ECM2LlQVu8jpUwgho5fsAs4MZhg7YzVWCqHW9XtvrNo+nJVx6/ZgBzmlyHC5UFWwf34B+nlxsUMPCGgqxK8/9KJZjqItr3eNYF1TNV+5KO3RqVo4WqNS5fxxAW7bLR3tSJbU4LH5mctDWRJLKnC30WbeaVE0SWxq7/XlL5xCjEI1QipIEBk3qn8EaCEYwPkr4sO28MlRn0EuVIUezCBHtiqrmHfwgotCDABI4pJ8cbIHcsgpRXwuVD0gwT3Yw4g/bwygzS8OqlG50lL36695BLIzEENNIzLEgRgxoaaxVpSkoKwRX6CfmBAyCokg4IB3zx3H1dJqVJYGD17Y/v7zykrXsMzEvy0bj7eHy4UqBwWoaT/suC9bXMlpNcx20SHLzk5OkutPFxUhalqcqTSc45gli2gKYkdni5q2xI4ze6waOCjO4RrocLEtNcGvSqemJtFTnLhQgyTa0BUQB7fVmpJEnre5VwpRve+xih41WtZXZ+K8zjQp7uMFTUtSgFGoxn3aKV2UPkJGgBaI5zbLaTnktCHGbftX4/B2iAtVogczCLyDFwKxBgDkJW4H8K1NMi9y2hCTv6Y+/MznQpXpzmFeyvUsFz23XLZfXJCxc9JSp6ZbsSxxS/+iEaVqFO1onAOuOLS/th+iqhQTptwA86YQQmLHDfVj9qOb8El9ySjFTPqLTBPvkmGgOD+lJX+B4guzpMv4xrA6EkLiRSQLHBkOjLuypAYrHEuZ+mWEqrzi2UjxcWL13qZ4u/6ofRiLZonP0/sp3ggho5KbJk+Z/pT5n4w0gxdw9dMpWH7rHDxySzUemTEB548dxI+8btIbiK2TP4cHSj6L8puA1j+6jcXTb/oM/uekz2XcF/TdfPdJUvn5y9ux7u6J6NyzH08c1fuGOz/Z8ho1P68P/pfZqhnKOUeGMfiLeyYg0dOLX3X+yWzLzB23TcOcsf1oOTjgCRuQgzX+L3xZiPOe5m/juX/pMNsJIWR0QRcqGVX8n2Wfxf/TrwXF9M99BmsTn8VvhMD4+v92E977w3+59m0QaS+I1Vv/22dC9znf/euLumMP2ud8N9M+57vf+evFmHebHjbQt+/f8N9f9Z9zuPLz9xNuyphX+d1XBsL3Od+9Z8xnMuY1an5GDu1CvcWsST7a8wGeaDMrhiVL52HDHWPMmqA/swuVEEJGMxRwZFTxs8mfwwEhCnZd/S9sGPc5fO/yn/An0ULnCVH0DSEY7H29//kpftL3n5gjhEXYPue79wqRErbP+W7tf/ts6L7hzs/3r/wpY17ldx9K3JQxr/K7P/7kPzPmVX7XW+b55OefRlzEEULIjQUFHBlV3CZEwTeFKHBYbyxVEu++r3/8n/iPT3XzzbRPIl2fDt599ncz7ZOMpvxky2vU/GTLa5Rz2uVCCCGk+FDAEUIIIYTEDI5CJYQQQgiJGRRwhBBCCCExgwKOEEIIISRmUMARQgghhMQMCjhCCCGEkJhBAUcIIYQQEjMo4AghhBBCYgYFHCGEEEJIzKCAI4QQQgiJGRRwhBBCCCExgwKOEEIIISRmUMARQgghhMQMCjhCCCGEkJhBAUcIIYQQEjMo4AghhBBCYgYFHCGEEEJIzKCAI4QQQgiJGRRwhBBCCCExgwKOEEIIISRmUMARQgghhMQMCjhCCCGEkJhBAUcIIYQQEjMo4AghhBBCYgYFHCGEEEJIzKCAI4QQQgiJGRRwhBBCCCExgwKOEEIIISRmUMARQgghhMSMmyZPmf6U+T8aE+/Cqi8tQ8XVQzh92WwLImo6MrLMXo61K+5FffXNOH38LP5gNo8OJmDeA1/B8jsbMD5yOzLfmT6Iwx+x4ZEMqLZ/Oz49ewy9V822GxHzrF5YX45P2jrQZzaPGkbkGZXPsyfGjOp+oIjEXKfkbIEbVz0D45LHceiU2RBC1HSkCMhG+dDDWDzbrJPrhnELv4S1Dy3HTLNORg7WRQB89oweWBfXPTla4GbjrqXVQGcLDp+7ZrYFETVdMDOXPYxVixpQX+9davi2HIWx01E3exL+cDbCW8XlDhxuO4TDo/Kt6xp6j4u8ifxFfzsai/Jb61DxxzPXpQXu5um3oW7SH3F6NFpKsjIbix9ahfqbu3HS81xQ93zDML/9T6xG/YybceFUfs+UeNeFxdWzOCmfAYW4jlyePVEZkWdUPs+eUcZ10w8UkWK012EkNwvc7CrxtplEZ0eWK42aLoTuva9g+6ty+S26xXrfiV1m/Vc4ckmnIYQQQgi5UfnMbfV3fWr+z4KMCViFhv7fYvveTH7RqOmiIN/Y78E4IeB2ve8Vg3ofDryCQ+O/hFV1CbP9PPa/ukcJPzcmX04yITAP/astCK18fzgBq744B+PMHikgveeX7pP0Ob1p9LGqzu7CobJVWDzV7L/SiLV3i5Wwc4fmzZxv+hnsev0yGsR1O24b+7zSiiHPFUa3KKv9TpXImAeVF8P54PpSx4S/TFzHMoSeP+TY4WQvD5vA8+Z8TotIZaPbX9p95s+jylfZcVFn76UtG9KtIcqxzyq/7GXsPZeXgDaf9Rpya++FIfx+DiyrCGWsidheTNk716nJ3Lb85F4X3mdFfm1zqM+UgHr1lkfSW/6agj97JN72mVcbluj6iN4PZCOXtjQDnWJf3+3WtYeUobd8gu+xCOdWZVKmtrvOa11vTnURqYw12dtxoetCk73srOdK6n7Q+Pup4PvXn64wdVFsogu4gI4nkKjpImFVjK+xWxWRakim0BHcacqYvPR2kXbZbHTvtdZTFWZVlmngdgXrBmVVkjk+UvnUx6oSx8HZt7EfnxcPQNHwEv049GonqlzXZK7Duhn0jQJXg0nfPJnzpsipDsx1hwju9M2Tvt6g/PnKxOQt+EGVA9ZN4rp5FEH1nfl6suFcr/chtxh7XOvea3Pqx9dOogq4CGUs0dv7Mz4g/N/1t7Fc2nvhCL+f/WUVlGex7YEJOGSXZ8T7J/C6Mrat7GSvC6eM7Qe6yW9IRx+OPla0Z4oszy9h3If+6w+7HwPbqkFfZwGfPTLN7Zexy9cW7XKyyXRPm/KU/2brB3IlU/sw1ynFb7pMg9qsc3+7r81XPzm2Y0W26y1YPxBUP0HtuNB1EXAOp9xdZWydN9Mz1Hw33U+nt7nLqAh1USQiu1BH7eAFWbmpiryM7rPiAZcY53rLnnm7V7xJLuNISrzZyAZgVdKpTt0Yxk/Q66LCG1QHbz1oLr2H/SeSGFfX6FL24+TD1WkoiYRoJOnvjCubqD8X1ovviHOmrkE8EN5/G4eSCTTc7o8+7T6QIW9FQz6403nv6zgjyi2BCanTzkaVKJO+E63pMjnVKq5B5G36bI/Fo4DMbhQPFZG3/QW6UVJ163ngnbLEm7xB54lE4oa1O0JdZ6Ktzbsrz+vNVsZRmY0G0dn2nXg73U5wCvsPnAem1mOebnYWWdr7SDFxgirH7tOuisB+z0Mx2v2TrrPsHVkBcdqnVa+pukjMQUMeweVRnimS7r1WnUoKcD8W7NkjnpfpZ7ZEPIuPiDLBVFTlG3AfoR8oCq7nwCl0ysso021XI/4vEx/ndXk5eOsn135Aisa0gCny9ebajgtUF6kyse9509cGPsvkeS2R7H2GOjpgv/XcDmJU14WHiALOdApnT2XpKKOmKxxR8qTERdQ8Jfs86URDffWV1E2qBKqo3M503Sr6rvSLv2UYZzcq102bxGVfu5mAmdPFm63n5paNoE8dzn4QSPznHRaSZ9BtdwZeTGcbSL+4FvNvoZk5S1RstrzlQFjdupgo2pOosr5+70mHeOMW6jrC4k8vy3YdIAiztPcR45JuNzPvfjjDKLqI94+pM7cYLD6qfaIffd56HYr4yfpMCcOUSd4U+dmj2mf+DGefY5O9TZlyn3oP1i4La8i59gOyv3FXfN/7v8L2QOvl0Mm1HRemLkyZ+J5P4vhhL7fevka+KIhnmX5pi6oDRnddeIkm4FSncD795hdG1HTDiREX3kLOl3FlonLFm+Lihx7GWntxTKk5MRET1OHEze05nu3zH/WIG+WQeBlzWSDVW9vwd5pDQdVtwAMjiPD25BHxw8y48fJ1X7wpftHdntYad098kEJyl7ZqChGnr+NLnrfuGNw/GdqTbTErONI1NFrLRCDdinbe4tc+oyMH5e1SVqN0O1210FYfbMehZDAA5PUClJV49ckRBJzjfvAqUi9R0w0z5k2+UJXd1y9uRCFSpZVCj4y1F4/bIiuXcFkd7rcBxxLLMPjQC4MQyVI32MI2KD5mlKPqdsim74A31WFEW4KluyOgPYklTvUh33qPvG7y/q/Hxb0ghakt4uJ9//ituAXCxPWoOCGrPPZL994oQMeEedqoqt/rF22VkdeqX0rG1a2yRBzbcT4UyijjJl51kV3ARXU/jJCbIju6QgoVixXoKs2bcLPskCiwaM1KKkbC3diLLRYCBZex/OWDrtsscTiXTqFTnHbmLG+iMNO7G+2mzZ+s7S/MVTpkZHCueRPNVD4R8L+xmxeATO526Q4xIi59bRHvn8D7wbxwDoFsddF9WsYIzcBM7/4hTrOUDd3GxP344Qg8i7M+e7QrC+fbcnzZvV6QLyVGxKXug4jtOFcK1A+MTDs2ISlT5TncRAp18WF0gOfZo+LizP+aItWFRA56kMaNB/KNk/aTVcA5gX/ZBiVETTf8mADZxByscsUgiAf4sjwKUgUDS0tAYWZg7/5QdEq+vA0V01g9gyqKRtFEQ2Z0LMRUNDhvstLycHcZ+sS154UJ9J55t8dVJ268tGgx7WnqPS4hM27h57WItTpNLTDTD770aL4hYMo6KJhWYdzZvmsYKuYFTeIXr1E5hUMBAchBZSfL3O1mEumMMLHjvqLdPzq43L4fZi6TI8WSqoPLm2x14TwrFtvPmdlYLMMtiihgtLBMoKraKT8tvofHBZTt2WMsHHbHLDu269aFKurb22EHxNGO6n5gpNrx+23iZXgqFttlIp7xi9UgLWvAXCQcQZh+9sjn8eIy/zOgOHUhn5vmBgwSw3mSZRoRPZw2eBoPm6jpoqFN7GbFhbTyOG7K4HPqTjJgaL/jVjCr7mNJ5EMu+vDfwDxKs6sajWKOZYZku4cg63z7pkeQ28yag+2CDL6uTOXuP6Z9vPAyDkgXYSqMUHEiRwblanb21ZWF93j2UG7l2t4DyDzLedWsUUS54CsbV10ZXOeV6HN7HyquY6m867m05FxJuZZxigjnDqwPV9nl1t5T6cUhh+oa9+ctuOyipgtq6xJ3PtP5l6ipHzpmizLWc3nl3QllrQv3eSVhU3lkJrdnirfsZFl0znK3s8A2YrDzqNMV7tnj2y/b5X5gsae9R3tGBecjOM8RiPrsCbk/M93L9jGD7yF/uUlcaU17C/5+EJnrIloZS6K04wLXhSJz/jUmTdBz2oPrelV60e7Ed+3nsaYIdeE8K7x92BDILODUCZG94KOmI9clTkfga8jOgyvCjUUIIYSQ6GRwoQrFHefBC2TY0CNzA2ISTAwGIYQQQgpLDj+lRUgwYRY4x1wd2cRMCCGEkEhQwJGC4Ig4N2ExS4QQQggZChRwhBBCCCExI9ovMRBCCCGEkFEDBRwhhBBCSMyggCOEEEIIiRkUcIQQQgghMYMCjhBCCCEkZlDAEUIIIYTEDAq4nCnH1mX3YYfzy97FoKQKO8Q5tk4264QQQgghFrEXcGuqmrB7WT02mnUycrAuCCGEkOGBFrhiYaxou4OW+eUmUe5okWQfj4JpxJgyFS9+405s/8Y8bJpithFCCCHDAAVcsRjsxJq9b2KlWF7oSIoNvWg26ysP9+o0OZHA5qb78Fg1cLDFHEctPZg7BEFI8mEMNj0qhNv/Aez53TWzjRBCCBk+wn9Kq3QT/mFZI3DseXz9xD6zUbOobhvW3woc2rsOWwbMRpN+rFkFku79Av29C2jeuRPTl21AQ6nZMdCKrXs3412zmh0Zh1aPSrPmR4qlNmwxa5KN8+/DClvn9LYFCilp4Xqs2opv86XT557U0YI1nVKYCaS1ralGSCygq+1NrL+oNzvoYw768pQm+HrsY+ljSPHWgk2Dels43uMlfd9T5ZFoxwstndhhtjnX8bF1XpUOogw6SlLXKEnnLfe6wOR67K63KiNTGSerXWmDyne4+eqX78Tyy0fw6FvXsGTpPGy4A2h99Qg2XzAJvNQ+jCfWNaL09G587x/fMBsJIYSQ/Am3wA3sw0khvsbOWIJFZpNmCe6dIbrxc3sscfYInroLeGnnWqwzS/O5BBqWbcNGR6SlqMaK1RtQe+Z5k/Z1dJU2Yv3CR8z+KPRivbFA+axbanELBil+5vZY+1vakSwXIsJjuUqLpHTaFwaqMw8mcMTboBBDIn3O4kK5WrVYceXP7NYkcHeFKPPBHhzIJt6kOPIc74UOYEHTEAZFyLJqKsO+1PGSqKxvwuYSuTP3uthdX2KVcRu6AupCkqiWaZE6nvu8I8dLv/xAibeo1DTWQt0Gs+ZiqdpCCCGEDI0MLtR9eOeM6JBL5+BeW4SVLkGtWO8687LZIHkZT3ksaNuPteKqEB6105aYLWm63ltrWfVextFz4qNspkcoFo4dnS1uYTXYiX3S4FNe4Yofqyz1iyTfd12UY6sj3mxLVg5srNbff8Wx5gVRMhl1QrQkey5mOUcCm2uEEOptS1sHBTs6D+OguKbKmiqsMdtyQ1rw0kJsR2+P2JLAxJyFVDlWVCeQ7DhsWQOFAGwTlVFe7RdmShQP/bx/9tAPcfuPfhyy/BCT6kzCItHeehLqXef0UbylthBCCCFDI2MM3Lsn9qDLI8IWTZuDsejA0fNmQxgD3aJrDiKJTyy3qmT7+2uxLicX6tDpGvALJrWtpAaPNUUROpO163AI4k0KmrlCb2UXZhFxhN6A10yXxIEeeW1lGVydGYhi+YvC5Apx/iRO9HrKfrA/WJglB93lYuIKc7Vy/vHV7+LDv/1myPJdfHzCJCwWJ1/BM09+m+5TQgghBSPLIAZtHUu7UbX79Oqxndiu1tPI+LZtq7dbywP5iYWiIGOq7JGbcjCAE82VRlrbVkprkBRxTtqQAQKJ6hp9fV6RMQr4OOkXp5oSVORsNSscaxLy5AnlzrXrYrcVW0cIIYSQ7GQdhbr9TEfajarcp0mcPBc0qCGhXKNODJyKbTP7RxYTZG9i1JzYLB2vFcDFtlSaZuVmDY7PSsoYM+X6C95fUAYH8bH4SFRMztMF6jCInkJY0vJkhxC70hroHkWbXoo1OGGkXaiEEEJIockq4HB+Jw4NaDeqcp8OHMc7LheoGdQw0Ird2dyqRUCLggyWJeW2A7rac3dzbjlsRFyiJFg4CbGnhKAQcfn9MsMgLonsJ0rdmVdxceZ/TS+OynyUVODuTBa0wYs4IY5XWeEVlGYQRG+PezSohzXlFUOyhGWtizBXaZEZcRcq7sf6p5/FD55+nIMYCCGEFITsAs4MZhg7YzVWCqHW9XtvrNo+nO0XH/ZgBzmlyHC5UI0oWFAdYgVT+92iRk6N4XehynnWvJPi6hi1TG5S6XaVIk+OmMx9lKeJTbMC+OUozRWJpMqzzZbDbSoecUGTdxRmObamLIBJbGrXVkE7L2uq5mNBSRIHO6QK1Oh4v7Qg1CNwhyLfBFnrQg8eGQ0jSYeVpXMxS/1ThUUP1qr/CCGEkKEQPg+cTWqOtw4079zki3+TVriN9rxuKl0b5goRV27NIxc4f1wh8M4rpqaysKav8OyX7s9XMF8IFu/cbMbdatYkMq09otNJ45oHTom/JiGSrPTW3HA+PPOeueaoU/ugzoGAOc9889l5r1WSrTwMrmOpwRiDWOE5r0oTYb64FBHOHSgWXYNBTD345ocbHei538aYNQ/9Z/H8i+fFa41NLR78ztdwe5n4l3PBEUIIKQDRBBwhZEjUPPh3eLSxDKebv42tnEuEEELIEIngQiWEDI378QUh3tDfit9QvBFCCCkAtMARUjTSrtOB1p/jmddOmu2EEELI0KCAI4QQQgiJGXShEkIIIYTEDAo4QgghhJCYQQFHCCGEEBIzKOAIIYQQQmIGBRwhhBBCSMyggCOEEEIIiRkUcIQQQgghMYMCjhBCCCEkZlDAEUIIIYTEDAo4QgghhJCYQQFHCCGEEBIzKOAIIYQQQmIGBRwhhBBCSMyggCOEEEIIiRkUcIQQQgghMYMCjhBCCCEkZlDAEUIIIYTEDAo4QgghhJCYQQFHCCGEEBIzKOAIIYQQQmIGBRwhhBBCSMyggCOEEEIIiRkUcIQQQgghMYMCjhBCCCEkZlDAEUIIIYTEDAo4QgghhJCYQQFHCCGEEBIzKOAIIYQQQmIGBRwhhBBCSMyggCOEEEIIiRkUcIQQQgghMeMzt9Xf9an5PxoT78KqL85B34FXsP+U2RZE1HSxZQLmPbAKDQmgO4bXOHPZw1hcdhy7Xn8PfWZb7BiONjaUc8xejrV3TzUrgvO/xfa9o6+hqLYgstl3Yhd2vX/ZbL2O8dYLzmP/q3vQbdai4JSZQyGfAd5jj8p2M4T7Ih7Pnng/38mNQc4WuHHVMzAueRyHsjToqOlIEZAP14fEQ3K2WScjw6k92P7qK2LZhUNJs42MLEa8SbGq60YuuYk3Sfde891/PV5QEaLFWxKH/tXJm1hGoegnhIw8OQq42WioS6Dv7KksD62o6YKQbz4PY60QIO5lOWaaFKODyzjyun7A8u2MxBlHjNwI1reZs6Rp6zwOjcprnY0qlb02HLmkt5CRgs93MvrJTcDNrhIiKonOjiwPv6jpMiHdBs4bqLJgTMViWpUIIUMl2Teqwwb6+qneCCHZySEGzsQE9GeLx4iaLoyw788WAu4ezEy6Yyeyx4vo743zxPeMW/glrKrr98W+6O0JsybwHS8dG6GR7o5f+d+YVYzIDHSKfX23W3n05F9h4knGmdU0IccOwVcWHuxYjlQcyn5gsXXu4HgPU/ZmTVowco0Zsslexg5ZzmvF4XTOylLGAu95g2O+vOfU2OUS3HaC25kmyj2RrYytY3w4wdVe8o1d87aXTLE+3rT5njO3svOWSdj9EPGeFKTafUj8VeD+TPFemfblTKY2lCZ7XVjHudLoivfLP57LWxca//G86fzPilQZZ3n25FIX3jJJ4Xm2ZE9XhOe775hp8r2PCJHcNHnK9KfM/5mZWI+75k5C79G3cTpTe4uaLpSxKL+1DhV/PIPDH7kPUFYttuNjnDx+Fn8Q67IzmHPhX7Drfx3C4TaxnL0ZlXfcgYWTB63vTkRl/UzcfOkkTp67ZrYBN0+/DXWT/ojTbR2pm013LhA37L9g7wF9zNOTPo+7So5Z13INvcfN+a6Wo37Gzbhw6hh6r5rdDmOno272NFTObsD4c7vwy387IL4ziPF3evJnHkgQN7JO041P5XX+mXzw7cYp73Ez0PeRVQ6zRR2Ih1yqbOS1WMU57pYGVE6cJPI4BsfN9Z6+uQYLG2bgE6tMVP6+dAduTuXvED6ZfC8WLyp3p4tItDIWyFilFbdhnHyw7nzbXMNn0bBsIk47ZafKeBLKZ4hrGXDS6TKuu7nbVd/ywb286pIo01/jHXksUUZ1TYvc6QKu1SnLP5xNl19Q2wlrZ5rwNq2IVMbmGBNnot6qM9kGFzY0YvxVd/1Gwdte7Gu00Z2ebI+m7MRy7dYVmNkX0O6zEL3sjBBw1f+fMOcLs/GJuf81Mt0y1F1Kpzt9821Y3HQbPj2r8yfb3JeXLkR9vWgnpeIrfybavfhfrqttVhtQ98XN6WeMwrSzwPLJtC8SsnP/CpbfKfMyU4mZmyfVpfJWX1+Tug59ratQ/xkhEn7RjA9M3cl2HPTMK5fHmTGQqjd9f6fLJTIR74uozwpdxmNQMXecEED2s8edt6h14Wuf6rlcqsTRL985qxMJoqUr8PPdEW9I15m81rpJf6YE657D3mcFIdGJ7EId+cELEzFBvsH0X049CPre/5X77e/Sezh0XnxOlS7c3BlXJk6QPINu623Ld45cER1Q+g3rFDpl/sompN46VXm5YnIu48gRdRGoKrq72P122ddxRpSt+7wzbxdvyKI+91tvid17fyveqKeiYeEEsyU60cpYPPTmiVdaz9uzLL/9QRYsVzpdxuOmz06VsexYGsThug9YlgDRVvafSGJcXWOqrQRd63CQWxnLDsiyCJzqVNc0bnzudREN0VbLxMd5fR6H7r3BFq6CMVHfI92nPfXvsW6MW1gv6k+UidUu+t5/G4eSCTTcrhuybF9OOMZ+eWuJst6VCs8Y6di/dKzV9ldlnYv8CkHh5G27Vdepa7XLwLRjTK3HvIlmm4O6znSb1/d3AhNybCpR74uc2rF4DEjrVerZ836bSJeus+jouMG+E63p9nmqVQ0acj0DIqfLkSzPd0wU5xXX2n0kXWf6WkV5zWI8EBkaEQXccAxeyIR8i5FmefeDOoi+/vyH+6nvJuZg1QN35X9De3B3QH6UoAkkicvF7lc8QsqPeej56vMSLssHX5m3x8hOpDJ2HnpZys4haxkbkdzpSdZ3pV/8LcM4dRlh11pscixjX/yWEDVFFSHihUkW09R7sHbZMHY4l/SL2sy7H84Q9zoBM6eLhuIRl6k82x1p7DHXGhC/FyrMrJddhRB7Urjm9kIa9b7ItR17nz06Xc51ZoR+IPb1R02XI1mfURPGhZ6XsY5kqEQTcGpQQoSRW1HTRUF2GKkRqCb2xxNLIR8acmCDPVrVFVuVI+pN/YB4hZICwzlmkTut7g/lNAT2G6qxPmUVV8OAeeiNq1vlKmNVH3kWc6QyVg+9wglYLZL1IBjXdbjmAhshilDGhUaOUt2lrDzpe3JVHtbX3JDCVE+/IkWcPu+XPFYmY5V3PSv0EhjndD2QQWwUzwobgSG3YyO6c8V4XWxLOmY3qnO6xFXUdIXGWPlmzku/sGpL6hAH+REiiCDgHHeW9y3XS9R0EZFusZQbQSw+y5uJkfG6Q2RHMxRSc3cZd0uxLQ/mDS394DPxEr5A2BHAWEHcLh1ryWINDSVbGV+WVobcXT1haKusdD168q+WIrsCs1GsMi4waTekFlWyvRZfxFnuRTXfWgINX7RFnLHaeJ8VzjIa7qFhpO/KCAqCIbdjIQClqz5na5j5nv2CJl7M/IMroqYrNOYlw3ph1THAI/zcIdcF2QVcVHdWjm6vIaOsfeJ8VmxBdIw7IgvS8qAERtFcMVasl/2wG2rHYx6mQ38jz99VGpXAMnbcZwWKEXG7SsMIvlYV12P+z4hpj7lT/DIuLFJUGRFXqDxHKTvp/jMiLi3sRTsZBlepdsGPNJfRfVYUekB8b1iIQGGIel8MsR2b/iObW9FXF8qKJmN5reenWHyiLGq6ApOKW7TOmfGlUQ4EUUJvtM17SkYjWQWcE5iabVBC1HQFQ1lp3J28HGXkd6GaB0sqUFXG0wWZ9eV2702j4zqGEiORmWJ1QOaabXdBXpgBFVPvKZC1JWoZn8Ih47Jzn3c2FudjDVVuDGm9yfRQdDrIdDC4HL24uCzpq3stCK3BHr6fZsqFQpdxoRFl/oAnXjFiZxtE5LIT273loTtvt2tdhSBI60aBrOQ6RnMGZlptYChhGYVEB79Pdd8DosNfLOOO7eD8ghL1vhhKOxbPhcX+ARCR6iKqtb7AVv2oRHt5TJMWqMMxiI3EnSzzwGk3ZbZ5iaKni4IRWFHmkfM8/KX5fj8+L27y4HmmnM5bptPzIyFjOolKa1+TfEOy5i5yId25jvXMpAucr8g1t5H/nA5DM+/7j2sfz58PQUieg685fK6tzEQoYwdf5y7fZK36ilzGGj2NgFlxcI1g9aRR+6DyC8853J2JzFcrxol2W3U2fS2B5zP46jZrGZv7omDu9fB2F1bOdt6G0jajlJ3E32F78pUi+FqC8hjWNmxc9abu6ctocLWBHMouJ/RxMz9H/ef2X6dJ42nbQyHqfRHpWREk2kPymr0uQoSdxH4eCyKlC8y/Ia/nu+cabIKuOXX+obQjcqOQWcCpG80rcgKImo54MA9az4NGom/6fEUSIYRc/ziiLPSFyIikqOkKTehz3IjY0JdXQiKQwYUq3vhHYvDCjYQZuRU0RF8H3hNCCAlDjzAPiP8zcbQOUdMVFvF8lwMngmYUMCFAhAyFDALOjADL+lYSNR3x4Qw28E4kKd4KZVzLqJhKhBBCRin6RdcfLzZzmXYzO4PqoqYrLCbG2Yrj05iYP04lQoZIDr+FSopDcDwNTeuEEJKd4Ng2fwxZ1HSFJjAGLiBshpBcoYAjhBBCCIkZESbyJYQQQgghowkKOEIIIYSQmEEBRwghhBASMyjgCCGEEEJiBgUcIYQQQkjMoIAjhBBCCIkZ18U0Ihvn34cV5UCyowVrOkfJLxiUVGFHUw0+bnsT6y+abYVmKOeYXI/d9aLQHHrbsPJwr1khOTMc9Z0HX/3ynVhdaVYkXe1Y+8srZiUKY7Dp0XlolDPKK66h9dUj2HzBrBJCCBkRaIG7UbkoBNveN8XSgoODZhu5rtDiTQquD7D2J2bJSbxJrmHzi+a7e3L9LiGEkGJxXQi4LYelEHmzINY3ac3bvcxa5ltWKjI0pJXKLluWcREZj3ppees6S2sZIYRch9AClyKBzU3SFduLZmWZMktPBXZUeX9+hQyFrjarfFvakSyvF0KuHhvNflI4Bi9fM/8RQgi5ngiPgSvdhH9Y1ggcex5fP7HPbNQsqtuG9bcCh/auw5YBs9GkH2tWgaR7v0B/7wKad+7E9GUb0FBqdgy0YuvezXjXrEbFiX1zkMIgLP5oTVUTHqu2hJg35svEhGU6hptybBWiIx1eJIVfG7aYNTsm6miFlc/BdrzQ0okdZlUjxWMTFpSYVVF2B1tasMnn2vSeU2PnWV/noDsv5nuTAmMEzbmTmWLgslyrfYyOEnXdTkm74hLD4sRM2btjGL1lEhDjGHI81S4S/nL2tpfgmMnC1cXIMh7PfKMGU353BI++FS7icoqRq6/B9uVjMsbAeY83GHL+JUvnYcMdY8xaeDrUPown1jWi9PRufO8f3zAbCSGEhFvgBvbhpBBfY2cswSKzSbME984Q3fO5PZY4ewRP3QW8tHMt1pml+VwCDcu2YaMj0lJUY8XqDag987xJ+zq6ShuxfuEjZn90HNepsuKYbUFoUQPREactPy8MVGPrZJPAYlIigrVNCg7ZeUsR6FiS9vZgboArsLJeiAY46drQVVKDh10WPSkEjPhx8tYBLBAiYrMlXrT7UYuw1DmzXHdBCDhvc285VohtPouZtKQ1VeCEU85tvUhUNwWWs4vBft91bJw/HxBiKHWt5lj5WkO1eHNbV/eVzneX8Wivi6zIAQd3Yvs35FKDW8SWkjvmmXW5zMOmKTqlRIqo+pNWfNyrZzFYKUTal8ebFLmhxdsV7HSOJ5Y9E2pc55TIdBvuuJZOJ84Lkc8Xl6YFnUNNYy3UI2TWXCxVWwghhEgyuFD34Z0zoksqnYN7bRFWugS1Yr3rzMtmg+RlPOWxoG0/1oqrSKB22hKzJU3Xe2stq97LOHpOfJTN9AjFwlFZKjr9wR4csKwoOzpb3JaSix0qmF+KhN2iE3d37DYJbK4RQs03arMX64MsWK50vTgq/k1UTMYas2VNVTUqpUXL+u6OzsMiLwksqE4Lwo3VNUgMtuMVn8WouASdd8thIUSF2FniE1NSIFnWqos9Il0EUVxSpix2Hyftc3isXk79WGUXnQQq5Al6eyyrof8cI1MXD2DGj36M28OWxx8w6aJgDTj4STs+ElukZcsRU2t/4rac7XvrCJ5oMyuSC+exR1ZY5UR8VW/JgTGYMUF8dF3CS3qD4qVfeqx1U6ZieSXw0Z72dDpx3n/63TUhNqf7ztveehLqPfH0UbylthBCCJFkjIF798Qe0QG7RdiiaXMwFh04et5sCGOgW3SFQSTxieVWlWx/fy3W5eFCjUrXgOhoS2rwWFNVhs4/iU3SctQmcy067CYdYO+z+JRMRp0Qd109wVfnJXO6BO6WysIjLGReeqQ2SJSY/JZjrtAPyZ6LHtdrsQk77yAuSTFV6lG5g/1KsKURonZvlsEl0polpzMRQjez69GUSV6Y70oLYeiAiZGqi9dx5m+/iQ/Dlp++btINDx15x8xdw5nL4iOLBW/J3IkowRW02cJRsO9jeV4hAj3WOpx8Bc88+W26TwkhxEOWQQzaOpZ2o2r36dVjO7FdraeR8W3bVm+3lgd88UEjhbS2KWEmRVy2kY+e6TWURc4WfspalFQCZuiUYKLUQCqI3+TLLHas1ohRUoJJ4kNbJe38uWPTckW6lVPHMjFsvvg75aa00ollKGUi3e0vdAglZpW1W5yP8rooCjJOznGv6sWOS8uVl375AZ7/nRBiUsSZ43ndotUT5Pp4rLbOqZbl+bltCSHkRiXrKNTtZzrSblTlPk3i5LmgQQ0J5Rp1YuBUbJvZPypICTMZwyXWM1pjJNoipzp9IfxWOHFcKl4roTv7IaMtWcrNavLmWnyDHYaZwUF8LD5ksH9g/oJcxhFwjUIVi8/yJsWbHAjhKRdVb0NACXl1rLQ4T4u4kaqLQrpQc0EPcril/yyeT7lYjQAbAtIt67hrW/tFVXpi27SFzx0nl144QTAhhEQlq4DD+Z04NKDdqMp9OnAc77hcoGZQw0Ardmdzq44SpDVGiYGUWywHjKiprCiEWcbrngsj2GWpYrHM/xmZXJGnNTTEVVpk1pRXKCvnwY58FJt2cWZGinMj4lLXNkx14WOEXKj1E9Ugh48OnIf7daxQyHg8I+KU1U0T6ioN5X6sf/pZ/ODpxzmIgRBCLLILODOYYeyM1VgphFrX772xavtwVjykXYMd5JQio8aFKqeF8I6YNJ18cjBlVZEjVf2jJcuxQk49MtiO5pSVqBfNxhXndsGVY2seE9Ju6WhHUrp2s1gDD0h1UV6dGlwh87sikRR73OwQ16Suz7kW709m5YQQOu1CRPmutbjoa0igrtw5p6zDAFemT0wHT+2htnvjH00sY3JAnktT6LoY1VwYFFIUuKU27brUo0PzdaGOxzOPThWvcxZTxuPWMlFNdlxd21kh6sag8aGaaAMlls7FLPVPFRY9WKv+I4QQEvW3UFNzvHWgeecmX/ybtMJttOd1U+naMFeIuHJrHrnA+ePyJqyzlsjRkP550Oy0QXOAeecJkwTPFSbwCSPPOY0bMNocZcHX4p1TzJU/NboV6ntyug07nZ42xRE/Ml8dqGhqQl1P+lqCrtXBN5eZ49I0qxp7fjQpsJqwAEFz3FmElEkQ7mvQeVLz6XnLzpM3ma45Ib5b0ZMxncR3nYrC1sXIEWEeODWvW1rAyRGr/4QaM8WHGSU6ZSpefGg63PZGg3S/vmhZ8ALSfrTnA/dIV4Nv/jlJ4Bx0tXjwO1/D7fK3WDkXHCGEpLgufsyeEHL9UvPg3+HRxjKcbv42tnIuEUIIUURwoRJCyEhxP74gxBv6W/EbijdCCElBCxwhZBSSdp0OtP4cz7x20mwnhBAioYAjhBBCCIkZdKESQgghhMQMCjhCCCGEkJhBAUcIIYQQEjMo4AghhBBCYgYFHCGEEEJIzKCAI4QQQgiJGRRwhBBCCCExgwKOEEIIISRmUMARQgghhMQMCjhCCCGEkJhBAUcIIYQQEjMo4AghhBBCYgYFHCGEEEJIzKCAI4QQQgiJGRRwhBBCCCExgwKOEEIIISRmUMARQgghhMQMCjhCCCGEkJhBAUcIIYQQEjMo4AghhBBCYgYFHCGEEEJIzKCAI4QQQgiJGRRwhBBCCCExgwKOEEIIISRmUMARQgghhMQMCjhCCCGEkJhBAUcIIYQQEjMo4AghhBBCYgYFHCGEEEJIzKCAI4QQQgiJGRRwhBBCCCEx4zO31d/1qfmfkDxJYHNTExYk27DycK/Zdh0zZSpefGg6Sswq+s/i+RfPY59ZTRE1HSGEEJIjtMDFinJsXXYfdlQlzDoZES6cx6M/+QBrxbKzy2wLImo6QgghJEco4K4nJtdjtxB44UsTNqfMQYQQQgiJKxRw1xMX27By75tmacHBQbGt171tk9xGCCGEkFgTHgNXugn/sKwROPY8vn7CHbWzqG4b1t8KHNq7DlsGzEaTfqxZBZLu/QL9vQto3rkT05dtQEOp2THQiq17N+Nds5obJv4qZVlK4mCLLVSk27EekzpasKYzabYBa6qa8Fj1IJr3tmGL2mLFcXWUYEdTjdiiSbq+ax0vWY3d9eVmO9DV9ibWXzQrBn2etMvTfSyzv6IHL7QMYoU4bqXZbqfzHsOL95iaCHFp0mJn5V+oPas8LEqqXOXhTxd0Ll1O8nqC8zeMqFi0iTj26hGc+fM7sdopZE9M2pKl87DhjmvY+ZN2vGS2AePxzDdqMOV3R/DoW9fMtjRf/bI43oTssW2R0i19HD9YUSVuh5/jmddOmo2EEEKIn3AL3MA+nBTia+yMJVhkNmmW4N4Zois/t8cSZ4/gqbuAl3auxTqzNJ9LoGHZNmx0RFqKaqxYvQG1Z543aV9HV2kj1i98xOzPASkslgnhgHa8kLIyHRanqMIakyRnyoWoaarAiRZzvLZeJKqbsHWy2W+Q23bXQwgZne6FjiQq690uyo3z7zMi0RyrpV3krckfw1ZSg8eWVeNSyDl3dLbo7UI0yVAqKYj0ul7yEkey7IRwTB9HWuzKlYjcaJIojHiDfc6WfiyZbws/L454k0Ivz/wVnDFofOhOLL98RMWkrRUi7aOy6djw5fFm/8izdF6V+iytbYIocUIIISSUDC7UfXjnjOh4S+fgXluElS5BrVjvOvOy2SB5GU95LGjbj7XiKhKonbbEbEnT9d5ay6r3Mo6eEx9lMz1CMTsbq2uQGBTiraUTO8w2IW+w6bC9nitSdFgWvIs9SjRNSnhElzyvZYXa0dsjzpzAREfACeGzRGicrjbLUjXYiVeE0EtUV7tFkqCrLcI5C4nIyxqXZU6UW7tcL8dcW6yWlImrSuJEryXCfN+1kdY4R7wFWPOicN//jdt/9OPQZcZ9Jl2udLVbVrQraJOFPGGMeCUZHbx1pFN9DpxsEa8khBBCSDgZY+DePbFHCAm3CFs0bQ7GogNHz5sNYQx0iy48iCQ+sdyqku3vr8W6nF2oQmgIgZTsuTgEsRbAYL8ST2l6sT7IipQcdJ9XihqRznGhrimvECXXi6Mel+oO8T2hilDhGkzgTzciiGv32crUtgQWNEUZAFFi3NlDEG+SN/8nPvzbb4YuZ9406XLko5NXzH+jlLd+iu89+W26TwkhhGQlyyAGbR1Lu1G1+/TqsZ3YrtbTyPi2bau3W8sDqXiuolBSgkni4+PkaHDP+aksldYz6ZL0jAR1xZyNLNLF68qbK87NoISpdN1KEeek9bhZHcprdCyiTwQTQgghpJBkHYW6/UxH2o2q3KdJnDwXNKghoVyjTgycim0z+4vC4CA+Fh9FdTMOga4BKSx1DFg6zsxZRn40qBRvK8rlgA8rXy3tfgucQlshVZo27Wb1xcpJ5IhXeQwZ09c0hDjEYrlQCSGEkOuErAIO53fi0IB2oyr36cBxvONygZpBDQOt2J3NrVpQBnFJiKBExeQ8hEICd1cUV/gFu0qHirnm0qEeVLuf0duRu5CUU5UoERdybdJiJ/dLEZdxoEMGiuRCzYv6ibjF/Ft0ah/GE08/ix9852EOYiCEEJKR7ALODGYYO2M1Vgqh1vV7b6zaPpztFx/2YAc5pUixXagwQfc+oZDA5vm29ccr9MyUFwUVVgFc7MDBQel2DHE35kUSPdJEVl49xAl5dZmgvCKdNzmlSIALVU5h4h2Bu7FClvcgesLEnxB5clSuHNEbp1+N2PexHOAwHvX1eh31Ndi+fPhGqdY01kLdQmWN+MJStYkQQggJJIKAA949dxxXS6tRWRo8eGH7+88rK13DMhP/tmw83i62C1UirUHSZSen/kjFcs0HOjyjUlva0KWm6pD7m1DX02KsSMVEnvdNNPcGxMHla5kSbDksp/uw49Hy+WktUyZ2jF5NP14IcKHKKUyOVqTPJZcVCfcI3CDk95pFEavpVoZwvcNKWzue/9013LL8Tmz/hliWAzt/cgSt8gXFQs4Xp/aLRc0pJ6cjMesvLh2jEwmipnNof20/Tpv/J0ypNf8RQgghfvhj9oSMIpb+zbP4wqx+fLjt++BgVEIIIWFEssARQoaB2oexaJb4PL2f4o0QQkhGaIEjZMS5H+ufXgml3Zq/ja1v6a2EEEJIGBRwhBBCCCExgy5UQgghhJCYQQFHCCGEEBIzKOAIIYQQQmIGBRwhhBBCSMyggCOEEEIIiRkUcIQQQgghMYMCjhBCCCEkZnAeOBIN+WP39eXAYDteaLF/a7aYJLC5qQkLSoCutjex/qLZfKPi1IFDbxtWHi72b/reYHxlAd5YXmFWBN0Hcf/mHrNSfL61aQVWzQSSh/bjL38+YLYWm1I8t3kxGkuBzj3NWPcLs5kQMqqhBS5WlGPrsnx+vP76ZuP8+7C7qQprzPp1y0Uh2Pa+KZYWHBw020hh+YUQbI83i2U/WodLP8WCCmz76Qr8+mtC5RFCRgW0wMUKKeDqMamjBWs6k2abGylmVlhGGk0SB1tasOk67fTVNScKYRnU5Vs56i1bxjKZHD35dCxHPouVsmgl0PrP+/GtFrMtFhir1JUgC1zaYuWmB7seP4jnzNr1hRRwCzB5WC2DhJBM0AJ3PSLdnMpSo5fm3gQWNNFyR4rNAJLja/Fck1m93pFiVVnrHItdBVb9dAW2fcXsJ4SQIhJugSvdhH9Y1ggcex5fP7HPbNQsqtuG9bcCh/auwxbnZcykH2tWpdXHtV+gv3cBzTt3YvqyDWhw3mAHWrF172a8a1ZzIx0npfFam4KtVmuqmvBY9SCa97Zhi9piWTU6SrCjqUZs0SRd37WOl6x2xSQFxWnp86SFk/tYZn9FD15oGcQKaf0x2+103mN4sdMGW6OcMupNXW/6+jtQYZefN8Yth7grXz59aaOWcbY6FZRUub7vI3UdxqoWFLtnri1db7lY4LLk0XfsNNpKmq4LjTm3WROF59lvY5XjqLLA9aD1UAJz8Lu0lSbEApey2Bl8MV/W984vt9NaVi5R/7/+q2k4/s8nMfGvFqBKCEhX+oET+Nmmdrwm00q88W0ZLWYRLHC+fdpKVZU6r5VuT0LktS7d3j3X6y2PTLFoWcvOtpb11rqu2X1cryVRl59dTw9+bTH+OvWg9pM6tynboNg9p234ynrp4/jBClFrrT/HM6+dNBsJIVEJt8AN7MNJcR+OnbEEi8wmzRLcO0M8hs7tscTZI3jqLuClnWuxzizN5xJoWLYNG333fjVWrN6A2jPPm7Svo6u0EesXPmL254DsxJeJjgy2xemwOMUQ4qHKRcfbVIETLeZ4bb1IVDdh62Sz3yC37a6H6GR1uhc6kqisb8LmVIeuO2otksyxWtpF3pr8lrCSGjy2rBqXQs65o7NFbxcdepdYl2JHr+vFFoTBJNETmKRciMYm1PVYx5d5mW8JtkhxV1JQeK5VHkuVZUBdZC3jJDZZ+wIZ7MQac65mmcRjdVyZEmtCCIm6QUkF7rbqRrKxQl5nL47mPDhCii0joMz5XugAFghRlar/iz2qrirVOWzKMVdsSnZ0pMWZasf6pcA5XnOvrJt6bDRJ4sL51nNAQy2+Zdb96FiqVeOFyHGsV/98QnxnMd7YZIsrSSka/0qkhWPpMlauzTV40KSQzPlKLS4J4dE6UCr+X6zT7xHCqnQa7nGsgVLszTlnjmNbzBZkyGuuJHHJrV00M4W4UULTnFvkLSGu17bUPbfZ7BNlEX4351J24q6U25dDCCed9meHBlC1fLFlIR0Q4socR5ZXAK/9fL/eL8RXp1iXAk2v6yUl1n5xUpSnfC5OcdWNzPM8KTa7z/mE8tJ5VeqztLYJNeo/QkguZHCh7sM7Z8SjpHQO7rVFWOkS1Ir1rjMvmw2Sl/GUx4K2/VgrroqOvXbaErMlTdd7ay2r3ss4Kp75KJvpEYrZ2Vhdg4TPsiI6/8MeS0tOSMuHZUkxHfGkhEd0KcGQtpDs6O0RZ05gotOBi055ieiou9osK4oQHa8IMZGorvZ1zF1tEc6ZNwlUyEMN9qvj2kgLUVoACjEjxVCiJDcBPLkaC0qkBcq2GPVivRRfQhCu8IjfyGVcIJy6qSu3jx8gpCKypqoalfIaLOvXjs7DQuAmsKDaEWymLMsr3HU9uUJ8N4kTvelu2mnHr1hCfMthKdbLsaRYbu/7/m/c/qMfhy4z7jPpckW8pLzdLTrtEDfig1+rRZW0fNmWMfGdl4S4wEy/+1UJhpSVawC/7RDpSseJYziUInHlZMpqlChNYlcqfSkmOpYqcY6/dFnLhHhpkevhec0dcf/LZ+WVZPraFNL6ZFm2fnFOiaHJ5eGWrSByLTtlgbSsXq8JcZ20y6SgOHVjiWbJV6Zpy2iAQHzriCwF8c2TLeIVnBCSKxlj4N49sUd0Im4RtmjaHIxFB46eNxvCGOgWXVgQSXwi7nOb7e+vxbqcXaimA+65OASxFoBP5AghsjfAypUcdJ/XWIQcd9ka0XEnZCfuse7sEN8TqgYVLmtQPlag6GycL119QmC1eYVtEpc8VrUth23rVTS0JWsQPZ5jhYvfiGVcKAYv4oTIW6JiclqYBgipaCRwt1TDQhS6hZ+xclrid0tHu9gq2qklYFVZDfbgQKqswtrxoKqbRKnHbFgo3vyf+PBvvxm6nHnTpMuD5/acwOQmt5VMU4p7qoVoGehTAsYmTFxc7HU/LLRFyO2K6zxuiYOAY4fS3SfOWSikO1K6cYXA8rpcfXnqwTrbehWJ3MvOJySliBXnLdY0IU4+5lijO741p0Lk+Rx+GzSA5a2f4ntPfpvuU0LyJMsgBm0dS7tRtfv06rGd2K7W08j4tm2rt1vLA1Y8TxEoKcEk8fFxskid/hCpLJWiRbrB7sNue7HjyYqFcsmmz6li4myLVzEIsO45FE2ERCaJTe3SGph2oyoh1duRR5mUaCurdANbZazK2Vu1Rjim3aharHW1WwLZtGPlkncdz46vixktF3AcdVgVZtnyWajS5GqVygUZi/XGT63FiknLC+kaTR3PxLqFxtQViBEqu0go66tsy44bVbtPO8X2sDwTQvIn6yjU7Wc6xMufcaMq92kSJ88FDWpIKNeoEwOnYtvM/qIwOIiPxUex3G5DpWtACkvpKjQxWa6l2GIqLB5sZEgOFPNiI6KsgY4b1QipnmAbcWa0ZUwN0LDLOLCskzggzXKOG1VZ/TzWVtOOvXGNqaVYgxSK5UJVaPdklbS+5IjX4lYodCC9DNJPx29ljjeLgGsUqli8lrdhplhllwvPSWuo40ZV7tMeHOHEwIQUhawCDud34tCAdqMq9+nAcbzjek6YQQ0Drdidza1aUIyLyXaLRca4wYpIsKt0qBTZrZYnW6QQChgkkL+bMjeUWC4py2Lx1YMZVHsJElKR8btKM7Gjs0MIR+1G1VY/r+t1hOq0iC5UhYzzmjnNM0DAxEn5tgMPNk4Td2WxOnsnkD4dKxc/RqrsHPQAjcSELM9NNZhBu1GV+zRg8EKK2ofxxNPP4gffeZiDGAjJg+wCzgxmGDtjNVYKodb1e2+s2j6c7Rcf9mAHOaVIsV2o4oGi3WKeUZPiUbZ5vj3y0Sv0zBQMxe4vL3booPamQo4kNOKhvNo12nXEca613i73cmyV7uK83JS5ocVy9oB/NZhBtheRr3wGLzhskbFtvnYXhh7MUFlRj7nlSRzs8FrUTDsur7/O5unrwa5DCXy+yX1Nr/38JDqFoFplj5psqsFXG0qRPHSySO5HMzrUFj9y2ouhulCHmZEpO4cBnL8iPoIGS7jQQlOOgFUWz5DRrZKaxlqoLqOsEV9YqjYRQnIggoAD3j13HFdLq1FZGjx4Yfv7zysrXcMyE/+2bDzeLrYLVSKnuGgRnakrHmk+0OF2Y21qMdNjmNgiNW1G2PQUBUOe15kOwsmbWSJ1/MFsOSyn89AT8zrHK2bHL6dC0ecxotcqa/e0HyJf4j06HXtnpsXIxwWoptUwx1Exg9b1Bk1LItqBnMbFFUcWlM7EpMn8ZrQKBsS3uepMDVgx06R40nmnm5EoC2V5OSpdgxcsTDuWU8y4j+eflsbZHl4XowcZ1I5Sb1yWDOA/iE47fkwIqYt7cg3qzwU5XYacBkNPtKvO2dSHnwW4UNNxcmZ+NCufxZugV08P4pSFvJurljv5sKc5KXDZyalVnOOoueL0tC1q3TNVi+S5zXqqllQasQT9tJYezCAIG7xgaH9tP06b/ydMqTX/EUKiwp/SIjcQxvoq5w0c4bhAQq5bpDAUwhIBk/p6Wfo3z+ILs/rx4bbvg4NRCcmNSBY4Qq4LSiajrsQzCpQQUlCcmLy3s1kFax/Golni8/R+ijdC8oAWOHKDkMvPZBFC8sL8pFamnwID7sf6p1dCabfmb2PrW3orISQ3KODI9Y39m6kUb4QUBfs3UzOLN0JIoaCAI4QQQgiJGYyBI4QQQgiJGRRwhBBCCCExgwKOEEIIISRmUMARQgghhMQMCjhCCCGEkJhBAUcIIYQQEjMo4AghhBBCYgYFHCGEEEJIzKCAI4QQQgiJGRRwhBBCCCExgwKOEEIIISRmUMARQgghhMQMCjhCCCGEkJhBAUcIIYQQEjMo4AghhBBCYgYFHCGEEEJIzKCAI4QQQgiJGRRwhBBCCCExgwKOEEIIISRmUMARQgghhMQMCjhCCCGEkJhBAUcIIYQQEjMo4AghhBBCYgYFHCGEEEJIzKCAI4QQQgiJGRRwhBBCCCExgwKOEEIIISRmUMARQgghhMQMCjhCCCGEkJhBAUcIIYQQEjNumjxl+lPm/2hMvAurvrQMFVcP4fRlsy2IqOnyZjYWP7QK9Td34+S5a2ZbZmYuexirFjWgMofvDJ0JmPfAV7D8zgaML1pZXGfk3HaylXF6f329XGrw6dlj6L1qdl/HOG1eX7dYJg/i8EejoBGaOl5YX45P2jrQZzbfmJj2OX2U1A0hJBbkbIEbVz0D45LHceiU2RBC1HQkBsjO9qGHsXi2WY8dl3Hk9Vew/VWxHDhvtl3/SPG2eGoSh/7VXLtc9vKGJDbyRViI/IUTzDopBvJeXPvAXRhn1onQCAu/hLUPLcdMs05yJ0cBNxsNdQn0nT2V5Y05ajo/ulJFYw9d8q/w7r26E9v1/nC+5abFw372nUWCZexnNqqmio/zbThySW8ZVVx6D7uUqNyDbrOJEEJIdHITcLOrhHhKorMjiwCKmi6Avvd/pS0Favmterj3ndhlbeMDn5Co9PWPRvVGCCFkqHzmtvq7PjX/Z0HGaaxCQ/9vs7hhoqaLgjTv34NxQsD5rWbpffvxeayqS5jt57HfI/K0K8msCLoPhFtqpAUwfSzB+Xyvw5RD6lDSlfWrEGuIvpa0ZTFT2ghIl+cX51jmen+ZaLzndafzlpuXTOXow+SpL+Q7utz79fmttJ2zrDwkj2PX6+9ZVt1cytgweznW3l2WIV0exwxBlR9E+/lwgqs+gsstc1247ivP8eQLTqb7I5PFOXt7t45zpVGUXbpBpK9D563q7C4cKlul6kvlKZXeKkNv2/TVqUbla/oZse8yGqxyCbxWX3t3yKXurPINut8D2m/2sotaZ0HnTreH4PodGr68e/Cf09s+i39fpJ8JrRgny8fJblCbUfe19bDy1IV+lgU9B811edJ7y8dXHqo9zECnKIO+20OeUaHt0hDS9jNiPb9c5w18xnvrLKwfiEiWMnbOB1GPh8bb5Wef15snL/60mZ89DuYespq0t85yeqZIsl6vxHve/O+LfIg+iGFiPe6aOwm9R9/OMnghYrpITERl/UzcfOlkwKADva98Uh3qxnyEXb9oxgdt3fi0uhF3eYKB+z46hMNtYjl7MypnT8IfzgYHx+ubFqIC/gV7D+jvnJ70edxVciyPa7mG3uPmvFfLUT/jZlw4FRQ4bz1Adr6t07f9CXO+MBufHD+LP5hUkTEPDYhG+ct/O2CuexIW3zMWJ+0AaZnuS3fgZivdJ5PvxeJF6aByb7n1iptm1/8y28SSU5lcHYsKUV/jBoMHkNw8/TZRjxdxWF7z2OmoE+crn9GAygGnXAYx/s47UOcagBK1jC0mVmepi2Wou5Sui9M334bFTbflNehh3C0i/1Nnon72GBw3ber0zTVY2OA5XoS6AMai/NY6VEx0H09e98KGRjN4Qz5MnMEaoqzFt24W90dqAINr8IZOu3jqJfHA/DXeUXUqynjRPfjz6ptxOtX20vdZ/YyBVFr3dei8jS+bjoqP38CeS9NRP70Klbf8Ee+9ehifra9GxX+Zert6FifVueQ1ygFFH+NkQDtX7WHqNNTVTxCdZNC1moS+9i6fAaKc/kx2BLtxKnKdXRPnFPkpG7Su3UK1yTE4f1heb9Syi1JnVro/njHPLaeTk9fwa3xQhAFXfzh3TNWByreoX9fzQiyue1R2ZCtuc6XR98XCvAZmRb0vVBuYJNtfHcZ2OufWz4GF1mAc+dz+csPN1nPb1IWVpu8m+XyYis968zu7EX8+4zM49O/vpM4rxd7yKqtuxfOvrmmR+9mj2sM08VxswPhzIXnztvXPCMGm+im9TT3r9NGio55fE1Ehzpt+Npp+71ar7UV6pkQnShk7z4qZ4rld9x+tIXm7jNPm+mWd102y7yG52HmL8uzRKWcuW4Gb33PyJhZzj9kDFiM/UwSyDay6tVQJxVSfd1MjFk/ssNIVtr/Ih8gu1FE7eMH1FnMZ3WeTwFTpws2dcWVCRifPoNtSz9Kl67eWFJCJE1RH233aPskp7M/1zcxhwjhxPI/7WsYbed4cZt4u3gxF2e233jy690qX9VQ0FCWg+RIui6pJITuFh76EeRP1qir7/svua3a98ZxC53mRbvrs8DfaITJuYb3uNK2y6nv/bRxKJtBwe74jONxvZH3vt4kyTqCqOl3GudWF7NStN7xTneptddx4mc4arBEYfmB9T3RcDQmZN/uNXLQ7OcgjMQcN3suV95n19t7XcUbUVQITrOyNS/TjkHMNiQT6DqTTjyszFZ0j3QfCrlWjnjeiTFLnlWVwRA5UmYqqHKusr9/VQMXD2QruV/dVP/pkXnItu4x15kWKQ0e82ccfKUR+5k1V96JtpdD3hWi78/INzM9+XzioTjR1bv0cQJl+bsp6UvHWJ95Ol69TF1PrU88Xp8xnznJXzsxZ4trsZ74QPg1iU7fVduXzc/+JJMbVNfr7FVe5ePNWPNR9nXpOmX4vIduoprDP94hl7CCfFRnyljMRnj3de637S3KqVbXPoP4i2zMl3QY8Vr5TezwW4mL0F7kRUcAVf/BCvhTyXOoBLh7Aq4ZztNAlLVpm3v1wYUZ5Xu5Tjbvhi2lx5EcHuPvLTousfDvbzIjr7E8fe9z4MvHXeWCLB55c9eAWtcVmAmZOFyLyvL6h0+h85/1Q9rwQ+Ms4x7pIyvq1EQ9SIc4CXQAZUB2XI0hswsSFV1ybQQiuB5yr7JK4nFuWAjiPzixNQAn/QHI/f98VUdFOR2NerJwOQLdXTc5lF7nOpHiT7pjRIt4EE0X7FEXsj6UcYsec9b5w8NejGozmvOCGxVub52C6kz+FQ0KEuV/u/fee80LgbXeqbaAM4zzZG95nVJq+K+7r1bHjTpsp8PM9chlrCtknK6I8e3yY57aPCM+UkDbgpkj9RY5EE3CqAu233BCiphulqJvAvEXLaTPUqNdlxVbS8mG+S7/NChGnR9pmEl9ZUI1bvmlJEecczzNy1+mc6laZ/c7ijiEoNEogq4YtGz/EA/W862EysgH3EzFBXvvUezxlYseZFIERqguFT1ikyfkhP0J0f3hcXINtVTAWI59AiIDqkHQnLR/iOHEc3bZAscurGGU3dY6u8wzHHim8giGNX9QMJ86LYPpZZ5aA2DNtubEsswH9lX4hmKqsr67j2bFQo52cninypcFOoxfbmJBLGY8Y0mVs500s+T63tScu2z04Qv2FhwgCzjGhe5Wml6jpRjmn9qRcTvulOVxWUNFFnOX6+lfZIWWzoGVDv+Gr40lBqh5IlogzVj+3e81aLJNwwVEdomj8EB1sh7hJ1BuxvhnCO4nhQL+dKrdtUJnk69LOxkjWRQZiM3pVuTbtzkp0UrDDKnJFWxSkRbiz45RoE7rDD3Txh5B32cm2J+//4fYCDIkAS+Qwoi1j0h0bcO+IxWWluXQKnfJF2bhRlSXV019pN7q0gAYdz+OmG63k9Eyxwy7Si11uOZXxSGDiYMd5nt2q/84D7YnLZlkeof7CQ3YBZ0zoWU3FUdPFCGmqV41gmMyhCmlBMyLOa5rOCylIlYiz35RzNKWbB4LPNZQj+kEgkG++sjNUD1TnjbgQLrehIPIzHKZv332Sp1tjiHSfFm0iMQMzvacNc5eMSpyXRs9DNN+Hp2nnohBQNVUKE+0mdDp8R5gVtezk/e94AUJfHNNWk6GHXWRpfx7RkybMhZQn+fYfIW68YEx8pHpplHXsP1+Yq3SoRBMFhaLAz5Scyjg6hSpr7fIUAvPDwmgPna9sMbR59Bcq7lvctw8U7uUsq4BzgiGzDUqImm70Ih+K3kmC9U0e9c07L0SlemdBdxpkPoJGjhbyPtT9MTvOg+yeiDOwmwdCUBBvLqgHwVQsvnuqeXCaDvJuGbQ9sm/yEuWOy9hxDhXRxhZ775Nc66JAqCDfBBoW2w+T2apuRu3kvz4KLbp1O1ft0QgT5XYTdSPdIikLcbHLTrx07VLxWmFtwrhvBPkPInAwZRgUjK5It0+XW23h56EGchSk0wy6LyIiBO8hkb2Zd0f0WKg4RdE5LxMiLuh8Tt1+0dsXDA1HFBRngJiXAj9Tci3jqBhhONSAf1229gAY/YKTtyvTDIDwXa/oq+17INf+QvfDgqCXvzzJMg+cHs6ebS6p6OlyJdNxg/fpqUDMfGJqi04XfDN6g4X9aaUZOq9rcsy6ZtWFeHDYLh6dZ/NEVgwtiFnPeWRWJJ7zpQjMo3t0WBp/2fjn4smGcwzr+pw82Hk027xzxqnrKvOny1rGOdRFWHvJ/VoD6kEirUVBbtGsdSEfSrm4B/V1ZL4nzTGtpudv76Y8wvKtMMcx85jp9iyn45F5d3/f39bT2Of238eSoGsKri/JUOos/V2njLz3RZSyi1pn7vJzSLWfgLJPlWPYvZ0TEa5FWg9ccWD5P6Oi3hfudmQ2hhDYrkLKxjl/pmd71jxGfUZZ+PKYT92ZeojUtrM+U3IjexkHP3P097z3siFju4ry7NF48ybLR80hatVFcD6C8yzxtYHAfAQ/fwLrx7nWgtyzmswCTp0Q2W/UqOkIuYHI9DAnhcA8PAMeiPrhm39nNepxOucIndtog/cFIYUhgwtVvJXdSIMXCCHxwoy2C5q2QAejX6+IZ650OUprRczEGyGkcGQQcJf16JSsD4io6QghpIA4g2u8k3VOvAuLlXsxj6lERjnSDZQaaUuPByE3NDn8FiohJBfoKhoOgmNQMsU3kZGF9wUhhYECjhBCCCEkZkSYyJcQQgghhIwmKOAIIYQQQmIGBRwhhBBCSMyggCOEEEIIiRkUcIQQQgghMYMCjhBCCCEkZlwX04hsnH8fVpQDyY4WrOmM8QzsJVXY0VSD9C+6JXGwpQWbBs3qSDK5HrvrRSEPtuOFlk7sMJuvK9Q1loyeMs9EfQ22Lx9vViRXsPMn7XjJrEXhq1++E6srzYrgoz0f4Ik2s0IIIWRUQwvcaMERb71tWLn3TbPEQEiQ4ceIt8HfHcHan3xgltzEm+SlX5rvvnoWbGaEEBIvrgsBt+WwFjxDsr5JAbXsPuz2LvPLTYLisqa8AglpcevoNVtGGReNsCy29U1awUS5b51s1j1Ia+vupiqsMes3Il+tlZa3K9jz1jW9gRBCyA0HLXAeutoc65cUK+1IlktBUY+NZn9xGUTPjW4KGewXMjYLycHr04WbC/2D6DD/EkIIufEIj4Er3YR/WNYIHHseXz+xz2zULKrbhvW3Aof2rsOWAbPRpB9rVmX8lmu/QH/vApp37sT0ZRvQUGp2DLRi697NeNesRsWJfXOQ4mv9RbPiYU1VEx6rTkeXQboqD1vWLuPC/Nh7DBP75Y2v8x7PH39Xjq1C+E2S25PVOn7MEJRPfbxBNO9twxazzY8+ZjpsKSBGzorj6qm2y6c3fWyVBmhu6ccSFXMn93WgoqkJC0pkUqtszPWn8JabQucL4rqaE3a5WOe08NZbCnnsjpLgejCo78KdB+/x8q4Lq+ycMk3Xc/C1jAQqdm3CWTz/4nm478w03vg2dLVj7S+vmBUPU6bixYem40KGGDjv8aT79tEAC+CSpfOw4Y4xZi08HVCLB7/zNdxe1onfPPlTvGW2EkIIiUa4BW5gH04K8TV2xhIsMps0S3DvDNGhndtjibNH8NRdwEs712KdWZrPJdCwbBs2OiItRTVWrN6A2jPPm7Svo6u0EesXPmL2R8dxnSpLmdkWhO6EITrmtHXthYHqUDediwCLkBQMWmylz4/qJuyosgSiISG2K7HknLcjicr6JmyWQkkKBuOq1SKhHCsc161cbPetSqtFSOoaOoAFTUHuxoTaroSOStuCg4Pi2C7XYwmW1JdhnxAlXeK8S5rmo66nReUP5RVpi6PjOlXHMNtCqKwX11HakeGcjtiSYkhfw8o2LcSk6FKibHAQH4v1SQl/WfqRwkwcL9GOF5zjmboIcn1nrIsAHPGm8jbC4k0Ko+3fuFMtSkiVTccGsy6XF5emRZNMW3/SiY0zMW6VNdj+ZXvQQ3S0eJODJNLH3DOhBpummAQGmW7DHdfS6cR5ccc8V95S1Dahpkz+U4Vbl6othBBCciCDC3Uf3jkjOvPSObjXFmGlS1Ar1rvOvGw2SF7GUx4L2vZjrbgqhETttCVmS5qu99ZaVr2XcfSc+Cib6RGKhaOyVIiBwR4csATIjs6WUGudi5IyNSr046SRcSVVWCK0QVeb1aEPduIVIQYS1dV+V6sctWl1/jt6e4QgTGCiFA0pcaTFhLbyGCEil5SVKYHNNeKkvW0uy9KOzsNKVFXW+GPCUoJIr+FAj/ieuJa0EUVcVU9HKl8J9OCV1LFLUBEiajIirzXjOcsxV1xGsiN9XlzsUNeQqJgcHNdmhKsu1wQqRLaTA7oi11RVi2OLMrPj8kxdoLzaL8wy1YUXcV5HvOUXW/kAZvzox7g9bHn8AZMuGvveSg9Y2NklNvSfxfOOUBKLbeWSaV2WtAvnsUd+p3Iivqq35MAYzJggProuuQZJvPTLI9h8waxIpkzFclHRH+2xBlOI8/7T766h5I7p/vOebEF7v/ynE8dofiOEkJzJGAP37ok96BIdnC3CFk2bg7HowNHzZkMYA92iaw0iiU8st6pk+/trsS4PF2pUugakkKjBY7kGv0u3qnS3CeHkiD092KAXRz3ib0dSiooA4eON1xICY40QZ5HEo0PJZNSJ4zrCJU2QSNKkBKdBCla3FSmJE71WmgLElSV7LmY+RkkJJpl/faTOP4hL1mVurJCWNCH8AqyMd0s1N9gv2qibUGEWtS5k3KOo9/zFm+R1nPnbb+LDsOWnr5t0w0PH5XwHPFzDmcviI4sFb8nciaL1X4F4r3Gx72N5XiECPdY6oeDw2t9/G9+j+5QQQvIiyyAGbR1Lu1G1+/TqsZ3YrtbTyPi2bau3W8sDPlExUijxIl11UsQFuSctpBsw5cI0sVh2vJWy5nldnXKx48SKhFeUpcnTYjbcCMG0TxSly1I5uVrF3XX1uOV+olRekLTY9eKgdHUqIadxlUMG4RnNDeslgQXV+lzh5T3aGY9nLPeqXOy4tFyR0408/zshxKSIM8fzukWrJ8j18VhtnVMtrrnqCCGEFIqso1C3n+lIu1GV+zSJk+eCBjUklGvUiYFTsW1m/6jAclc2S60grSwBIs41CjXAOqOseV5XZ2oZqXnb4jJ6VbtAXQJYCF/3oI4kpFFRMbkClb092CQtaiouryTY3RlCfgJMDgzRbUSK+UhxkoEU1oUaHSneanCLx8WqBNgQSLtwj6C1X7wyeGLbtIXPHSeXXjzuVkIIIUMmq4DD+Z04NKDdqMp9OnAc77hcoGZQw0Ardmdzq44S5OAHJeISJbm5VAWhrtJiMngRJ8RpbSuUxrgRhcBJu0ZHMcrapgWSLXwD3cmibjaL61WWOXX9XjeqcR/bAy4MYW7uXNhyWA/ayDTIITMj5EKtn4hbxMdHB8JHqA6Na9j8ohFxyuqmCXeVhrP0b57FD55+Fus5iIEQQnImu4AzgxnGzliNlUKodf3eG6u2D2dlMLI92EFOKTJqXKgJbG7yzuOmg+nzivtSQfdylOdwzQ0nSWJTuxAy5fUui9CaqvlaEI3WyX+9qBG9IYMGfFSgrtwRYVqsVdZUY5L434mR29HZoUbQrrAtqSVVeFgNPrAGSuSFKPMWOUJ3uOt6iFwYVL+qcIua7FejR4fm60Idj2cenSpe0yymjMetZaI67bi6trNC1I1B40M1EQdK3I9bZ+n/Zv35w6jR/xJCCIlIBAEHvHvuOK6WVqOyNHjwwvb3n1dWuoZlJv5t2Xi8XXQXqp5CwolVk565dPya3eHKjrgHc520Zr+ajsOKbYuOPJ604AXEwYXE1RUE6QJu63XF6OmpTIrrtpXTfujzmTni1MTGelvO7kUzQtQVZ+gs1gATPegkgYQ1QEENTJDbzLqmF+vlNChWnpy4xfwHH9iI46spamRd52uJG2YunMeje6644tWWXz4S4EK14uQemg55abcsN+vfsEXYFTzx/wL/w0lr0ss549zzu0nLnBwhGxAHFzj44Q38RprxJGUTYbQcIYSQiFwXP2ZP4oEzr5pvImMzibL6Hdi8RDWJJbUP44l1jSg9vRvf+8c3zEZCCCFRiGSBI6QQ6BG8AbFpZvJecmOx9C+EeEM/Pvw3ijdCCMkVCjgybOgRvP453TbO1z8P5p1KhFyf1Dz4d2rwwhfGt+LFJ7+P106aHYQQQiJDFyoZVtK/LWozen5nlBBCCIkDFHCEEEIIITGDLlRCCCGEkJhBAUcIIYQQEjMo4AghhBBCYgYFHCGEEEJIzKCAI4QQQgiJGRRwhBBCCCExgwKOEEIIISRmUMARQgghhMQMCjhCCCGEkJhBAUcIIYQQEjMo4AghhBBCYgYFHCGEEEJIzKCAI4QQQgiJGRRwhBBCCCExgwKOEEIIISRmUMARQgghhMQMCjhCCCGEkJhBAUcIIYQQEjMo4AghhBBCYgYFHCGEEEJIzKCAI4QQQgiJGRRwhBBCCCExgwKOEEIIISRmUMARQgghhMQMCjhCCCGEkJhBAUcIIYQQEjMo4AghhBBCYgYFHCGEEEJIzKCAI4QQQgiJGRRwhBBCCCEx4zO31d/1qfk/tmycfx9WlAPJjhas6UyarSQjk+uxu14UmkNvG1Ye7jUrFpHSlWPrsnpMGvbyH5nzrqlqwmPVg2je24YtZlvBUeVegoMtLdg0aLZFxLkfHLra3sT6i2alICSwuakJC5IhbWakmDIVLz40HSVmFbiG1lePYPMFsxqF+hpsXz7erAi62rH2l1fMCiGEjB5ogRsVSCFyH3ZUJcz6MHBRdL573xRLCw5mEghR05FRw5bDsr7E0tKOG+Z1xhFvUnD95AOz5CjeJG3O94+gtd9sI4SQUch1IeCcDmsoVhhpVdm9rB4bzXqKkirsGG5xlQGdz/usJSDPJABpNbLLbfTUKRk6S+ZORIm0uP07rWWEkBsDWuBigxYgj1UDB1uMhUUtPZg73/KXkQCkhbMJC9COF1Ll9iZewXxsnWySkOuAaziTq8WNEEJiSngMXOkm/MOyRuDY8/j6iX1mo2ZR3TasvxU4tHcdtgyYjSb9WLMKJN37Bfp7F9C8cyemL9uAhlKzY6AVW/duxrtmNSq5xProuCXL4uKJ5QqNa5IWuKYawBNn5T13WPxdpnS+PHnwp5XiLUJMlMlz+sjJDN+LGs+UKV06Fk2KovQ19QbGiXnLJDT+zhy30qz5jxcQA2ddu9Mecio7SZa4v3RbEeLZyl9wG8h2DQZfnUnc9abKLSFEaEsnduhNqe99HNT2M+1ziBgL6aszSWi9DT9Lls7DhjuuYedP2vGS2ebDG9+GKxnSj8GmR+eh8XKGGDhfzF3I8XKIq1v6N8/iC7P68eG27+O1k2YjIYQEEG6BG9iHk0J8jZ2xBIvMJs0S3DtDdDPn9lji7BE8dRfw0s61WGeW5nMJNCzbho2OSEtRjRWrN6D2zPMm7evoKm3E+oWPmP3RiRrrk+7A09aXFwaq87S+yA7ZdKTmWPL8qG7Cbo8lTHd6ssNOn3df6XxsNk/8HZ0tZnsbusS6FABOOrmkxUACd1eIMh/swYGsAkTkrx54xTpOc28CC4T4cs5bNCqEeKvoMeUiY+bKsaKpCmvMbomsi7k96bypuisXIsJrRZTCQgofKRKctNmsjY4IGtR14xYtCUyMcP2yzqSgkeIvdd6eioC2Iq5N5A9OurZeJKrTdauQ+TEC0zlWc6/+nsvtLa/VCK3UOcXxio2sCz1QwjmvaIe+utCWX1d7Hy3xkFIYfeNOtWy4Y4zYMB6rzbpavmyJJim2ai+54uNa+2X6GnzVJMkJI97wuyPpY746iOX2OQVSWG5fPgatrzrnbcdHlSLfnnSa+3HrLPlZhprGWrWFEELCyOBC3Yd3zggBUToH99oirHQJasV615mXzQbJy3jKY0HbfqwVV8XDv3baErMlTdd7ay2r3ss4ek58lM30CMXCUVnqFz9SPIVaJTKwpqoaldKKYltBBjvxSocoq/JqqwNPQGou9Pa4rC1bDuc+qhAlk1EnjpvsuZg+Zyi9WG/nTbClQwrcBOrK3fadQpOAEG+pcyexqV2IkJIarLDEj6/cRdntk1qlvMISNUI01AgR4bPwiGsLtfgI4eqIN8/17+jsUAK5sj5LzKAQXEvEaX2W3IttgW3Fle5ijziHu4w3Vuv8vGJZ5bYclmK9HEtS8Xfpa82nPeaPEJLVCfHScNhqj6J8pXC02/HkaiwoSeJgm7tM8+XPHvohbv/Rj0OWH2JSnUkYhdSAgw/w/O+uiQ3SAuYIJbHYVq4L5/Goy+p1DZsPyPXxqBc6PGemlKiYu2NH5XkNvnOMxwNCWA7+rt0aTHEFT+wRaSqnY9MUsynFGzh2Wn72o72V5jdCSGYyxsC9e2KP6pRsEbZo2hyMRQeOnjcbwhjoFt1BEEl8YrlVJdvfX4t1ebhQo9I1IDpQISQe81iD/EjriDvQXVpG0l2yYwnrV4LAZocQalIkpa08SfTIfjvIujTcDA7iY/NvMfEJTFFOsggmJTILR1U/NkawdvWEiTUvk7WbMkC8aYQw2fsmXpAi26pjr1VtjRCRCZH2aCQhlS1dOeaKaveL7kFcEoIpUWoaSs7XWiAmV4gXkSRO9HrKXtVZuh1vrBAXEcnyG40/vvpdfPi33wxZvouPT5iEw8GFQVEbeaK+OwaND80LEGKG+om4xSvyJOa7EwK+99Y/fhvfe5LuU0JIdrIMYtDWsbQbVbtPrx7bie1qPY2Mb9u2eru1PGDF/YwsylUpLQtSxDnCLFBUud2daglyzyYHQ60RtliRLl4lGqSIM+cdjpGPyjXmXKda7BisYSRQOGoXtJ0/XxxgSZmQEEkldKKQqK7R15ehXiRel7WyyFntQFtq/eI8L0pKMEl8JKRr3XW9TViQEvkjx5qEzIR0rdt5E4vrheX64qtfttyrcnHFr+WItLZJd6gScc4x3e7YJZOkW9feb5ahnJcQQgxZR6FuP9ORdqMq92kSJ88FDWpIKNeoEwOnYtvM/lFBaj4zGYck1otkGfs46ZZ7adGg44Zkh56ziDNCKFExOYsFUYs3KYhcMVxGsAw7RsSky8QE9JsYNSd/2jJm4bECZUPFDirXX9Q61RY53Q7S7kJtqS0rjNg1deaNa0wtIxz8v0OIXZE7V1yovRTLnVtQF2oOSPG2ulJO7Gu5WF89m78FTnEFTzjHkm5RFYOXFnH7PpaWN885reWJNp2OEELyIauAw/mdODSg3ajKfTpwHO+4XKBmUMNAK3Znc6uOEqRlTHXeiZKsgshNEgekX9QVr6XJ7n5LYlOLEXGO+yyFx63mQxxX5rekAndnFDWOi7cdzcMaTxWMLhPLkqbcdkIotWeJpzLip1K676IiBLpj7czXyqlFTTnmFmRqkWx1ajDX6nYzm7i4COgyzoOIIjlQ1Kq4OPN/joyMC3U86lXDO5v7xL5RkfF4SsSNwQzHNZrBVRpGzYN/hx88/SyeeJCDGAghmcku4MxghrEzVmOlEGpdv/fGqu3DWTljuT3YQU4pMmpcqHIUnTdwXccnZXO5BaED4suxwrb0lFThYRUQ3uGe4sIbc+cMRhhwFI2DEy9nD4Jwo4Pfg0aTivOk8mKOYws9MxJy2OsiVSZWkLyJibOFmRz16Z9KpRfNgWLMvlY/0tophbm0ctrxbRvnB4zANQMW0NuRzt/FDiWwK+s96SfX5zFi2QziyCootThPVFen2qjM7wLxfVlWNlpMpevWsbbmhRk84rtWDzq20xp0IdtTfYm8dWLENVyWz6jKiWkXpxzBOgRXphxd+oxn8MNXa+XIUmsuugvnsacLuGV5hjg5F7VYWFum/ittXIml6j9CCAkm2m+hpuZ460Dzzk2++Ddphdtoz+um0rVhrhBx5dY8coHzx+WNcceZNTfeubb8ab1zdunOMOo8cP7j+UYuSsx37S42MJ1CCk13fFTQvGL++bi81+o9jtyv5yuz50sLnNfLYOdxKOkCr9Uz75i8Rj13XEDZe+coC6lX92+hpq8/XX7+spWE1YXvWjyjYYPbSlBeBAFtQIo795x07vypfPdOFt+rwAnP3HWuvKlBG4Op6Uz0teRyX4SIQO9gEFc96GNA5gNxmgduPJ75Rg1uMWvoP4vn/1/gfwgRd2FP2p2pXa36fy8fWekkvrTymC+eF6+0bnTeZDycRUhaLH0cP1hRJf7hXHCEkMxcFz9mTwgh1wf3Y/3TKzGrvxUv/v0raDdbCSHESwQXKiGEkOGg5sHFkHP5nv53ijdCSGZogSOEkJEm5TrtxG+e/Cne0lsJISQUCjhCCCGEkJhBFyohhBBCSMyggCOEEEIIiRkUcIQQQgghMYMCjhBCCCEkZlDAEUIIIYTEDAo4QgghhJCYQQFHCCGEEBIzrot54Jzfhwz67dAbltRvcPp//5IEE/p7uIVE/a5oiee3UCPi/W1Yz2+0FgJ1LyU8v4U60kyZihddPzx/Da2vHsFm50fjoyB/vH65/LF5Q1c71v7yilkhhJD4QQvcqED+APl92FHl+VHxGxwpJnY3VWGNWb/huSgE2943xdKCg7mKv7jiiDcpuH7ygVlyFG+SNuf7R9Dab7YRQkiMuS4E3JbDslN7c0jWN2l92b2sHhvNegppyRppcSUtLyIP4UsTNqfNE5rBTqxRnf31bn1LYHOTuzwohK8flsydiBJpcft3WssIIcSGFrg4kLK8WNYX6T6ztuXsjrsukJbLJixAO15IlcWbeAXzsXWySUKuA67hTK4WN0IIuc4Jj4Er3YR/WNYIHHseXz+xz2zULKrbhvW3Aof2rsOWAbPRpB9rVoGke79Af+8CmnfuxPRlG9BQanYMtGLr3s1416xGxYl9c+hqexPrL5oVDzq+ybLMeOKHQuOfTCwZPPF13nOHxd9lSufLk4fgY0qLkxAtyZD4p1Tsm2EwIJ5JxVIBzS39WJKKk+tAhTyutOT5YqukUKpHpVkTCQLjxLKVsXOcSZ7rcpW9N/9erOvR30MO8WSZryOdjx7MtdJlrIeU5TMZnI/A63GnDYw7M9/7OLBNZ2kDkojxcoFtMKjNjBBLls7DhjuuYedP2vGS2eYjpxi5Mdj06Dw0Xs4QA+c73pWQ84/HM9+owS1mLTwdsPRvnsUXZvXjw23fx2snzUZCCBkC4Ra4gX04KcTX2BlLsMhs0izBvTPEA//cHkucPYKn7gJe2rkW68zSfC6BhmXbsNERaSmqsWL1BtSeed6kfR1dpY1Yv/ARsz86jut0ZUu76BLDSXf0aSvNCwPVeVppdLya6nDNseT5Ud2E3fOtDlOgxZsUCenz7iudn3J37uhsMdvb0CXWpVBw0sklSBBmJeU6fRPNIX27pgRL6suwT527XAi5+ajracELHeKc5RVpV7IUEkZ0Oflq7i3HCrEt7W7Wbkwtfpz8i+OWCxGRawybN/9STKSOKRafsEhgYrqnDUe5oYUoc1kuhVDz1JmsX3ltEMJJpWnrRaI6XWcaY/mTAsoc64UOYIEQVa508pxGhKXOKY5XbGR71wMlnPOaughon+46y9Zmhgk54OAbd6plwx1jxIbxWG3W1fJlazCCFFH/B/BPqfi4D7CzawwaH5qHTVNMklww4g2/O5I63tpXB7HcdU6BTCfE2xQr3c4umc8afNUkSXM/bp0lP8tQ01irthBCyFDJ4ELdh3fOiM68dA7utUVY6RLUivWuMy+bDZKX8ZTHgrb9WCuuis61dtoSsyVN13trLaveyzh6TnyUzfQIxcJRWSoE52APDljWESmewqx1mVhTVY1KabmxhYQQHa8o4VNtdeAJVEjDRm+Py1K15fBocXeKzPV0pPKWQA9eSQnGElSY69hYXYOEEFHpffIajOhzYs0mV2NBibQq2Va5XqyXYqWkBiuK5M7c0dmhhG9lvYx9C4hfTCEEZo0QLz4rlMhjgFXKZcm92CPOkUBdublWQaoNWN/d0XkYBwcTWFDtiKT0OfNpZ/kjBGh1QrwMHLbamakLu30KYb5EZK+rzW9JzYc/e+iHuP1HPw5ZfohJdSZhFFIDDj7A87+7JjZIy5YRU3JxWc6u4IkXz4unVZqX/v0sBjEGt86V4i9HppSomLtjR+V5DRfO41GPte6rfz4dJf1n8U9vpdO99Mt2fCQE5fKl3vO+gWOn5Wc/2ltpfiOEFIaMMXDvntijOi9bhC2aNgdj0YGj582GMAa6RbcRRBKfWG5Vyfb312JdHi7UqHQNCPEhhMRjWa1B0vriDoiXFpR0153A3VKVDfYr4WCzQwi1pNiftgYl0SM1T4DlY3SQxInetChDcjDAZVaOuSLryZ6Lnn2DuCTEQaJUX+zGCnl9g+jxClMlfoBJiXQJFhYhTPZK65cq6FTd+SyrJZNRJ7La1RPcIt304mhGwWXagEeYp+o7UaLbWE7nLCCTK4S49NStRLRZu32uKa8Qa9muNTp/fPW7+PBvvxmyfBcfnzAJh4ML15B3yNyFQSX+MlvwxqO+UhRp+xWXcJSu28v9ouon+IXjW//4bXzvSbpPCSGFI8sgBm0dS7tRtfv06rGd2K7W08j4tm2rt1vLA1as0ciiXJXGGvSYI8wCRZXb3amWIPdsoNjR2GJFuni1S1K67/R5YzVCsqQEk8RHQrqHnXJTix37ZQgQtQ6O0CsWXle0ssjZ9VtSJsRKUonOoVOiRZBVp85ixzqOFGuEgJQic4FnZK77ReT6QsbJpdyrarHj0nJEWtt+Ii1pUsSlj+dyi04ZA6ntSu7wnnceGst0EkIIKTZZR6FuP9ORdqMq92kSJ88FDWpIKNeoEwOnYtvM/lGBNZJTxfkUyTL2cdIt99LiQo8elWIoNiJucBAfiw9vbF5qCQug95AcKIhyioC2yOn6tdyFHuvT0NDWR+WO9ZaHXEY4+H+HeLmQ1kA73tNeiuXOLagLNQf0IIcx+GiP5WJVAmwoXMETzrH2SNepJ7bNWPgG7Tg5e+EEwYSQYSCrgMP5nTg0oN2oyn06cBzvuFygZlDDQCt2Z3OrjhKkZUx18o67KzJJHJB+MjvI35DdJZXEphYj4nwWKbdLcvQQLV9bpJuwpAJ3e5OFufNcGJdkANr1XTZ0S64RopXK1TtUPK7SMMw53e5jExcXAd2e8iCiWNVCLx3rqDBxcfkwMi7UMVhSMwboP4vX28ymQiPj8ZSIG4MZKZdquKs0jJoH/w4/ePpZPPEgBzEQQgpDdgFnBjOMnbEaK4VQ6/q9N1ZtH87Kmc3twQ5ySpFR40KVIyS9Ae46tiuTKzQMHThfjhUuF10VHlaB4+lBAfIcW70xdyYuym+RcuLl7EEQowEhOtuFOCuvz2w1vNihA/jr7esV1y+nsejtsILpjSCsmGzSyboJcMcatMiwBkt42Dg/YAJjR4S4ztuLZuPKdl+HyGMeVtgtHe1ISnd8xu8KMS+KLlFdnWp7Mr8LRJl65awWqmkBHDi1R1QGO7FPnLeyPqBsbMzgjPSgC9lea8T3vbkbzVzDmcvio2wiljjiyowOzdeFKi16z9SbFcNXa+UIVHsuumvYfECIusoavOgbsBBELRbWat9qaeNKLFX/EULI0Ij2W6ipOd460Lxzky/+TVrhNtrzuql0bZgrRFy5NY9c4PxxeSOncrDn9LKRsWz26Dp/Wu/cXuk5wDyj8uQ0GrJjc6X3Hy9wDjrzXbsrDp+rzi9m8pkHLlPnnzqemiPM+T1Ocy1mhGZ6yhVrtGzAdUhx5573LGr+3WWn0iSr9bx03rIX+K7HNUdZsAAMLWPv3GiedhLcBnR+vXPXhbU/97nd+VPX2jtZlGUFTrjKTk/pkYqhU9c4mJrOxDmed05BG+81B7YD7/xurnrV9XmgXHyvoidG88CZed1SsWdyxOol1AsRJ6f4eNSMEv3ql+/E6uCHhXK/PmFZ8Hxp+8/iec9IV4VvvjhJyBx0Sx/HD1ZUiX84FxwhpDBcFz9mTwgho5v7sf7plZjV34oX//4VtJuthBCSLxFcqIQQQoZCzYOLIefyPf3vFG+EkMJACxwhhBSLlOu0E7958qd4S28lhJAhQwFHCCGEEBIz6EIlhBBCCIkZFHCEEEIIITGDAo4QQgghJGZQwBFCCCGExAwKOEIIIYSQmEEBRwghhBASMyjgCCGEEEJiBgUcIYQQQkjMoIAjhBBCCIkZFHCEEEIIITGDAo4QQgghJFYA/x9gNA2OZEi54AAAAABJRU5ErkJggg==;" vertex="1" parent="1">
          <mxGeometry x="-160" y="411" width="477.99" height="347" as="geometry" />
        </mxCell>
        <mxCell id="yo_I0r40DUydshJ_veD_-28" value="requestHostCallback(flushWork)" style="rounded=1;whiteSpace=wrap;html=1;absoluteArcSize=1;arcSize=14;strokeWidth=2;fontSize=14;" vertex="1" parent="1">
          <mxGeometry x="647.87" y="1020" width="260" height="40" as="geometry" />
        </mxCell>
      </root>
    </mxGraphModel>
  </diagram>
</mxfile>
